<?xml version="1.0" encoding="UTF-8" standalone="no"?>
<!DOCTYPE svg PUBLIC "-//W3C//DTD SVG 1.1//EN"
 "http://www.w3.org/Graphics/SVG/1.1/DTD/svg11.dtd">
<!-- Generated by graphviz version 2.38.0 (20140413.2041)
 -->
<!-- Title: erd Pages: 1 -->
<svg width="1182pt" height="657pt"
 viewBox="0.00 0.00 1182.00 657.00" xmlns="http://www.w3.org/2000/svg" xmlns:xlink="http://www.w3.org/1999/xlink">
<g id="graph0" class="graph" transform="scale(1 1) rotate(0) translate(4 653)">
<title>erd</title>
<polygon fill="white" stroke="none" points="-4,4 -4,-653 1178,-653 1178,4 -4,4"/>
<!-- Schema -->
<g id="node1" class="node"><title>Schema</title>
<polygon fill="none" stroke="BLACK" points="16.5,-596 16.5,-620 145.5,-620 145.5,-596 16.5,-596"/>
<text text-anchor="start" x="54" y="-605.2" font-family="Times New Roman,serif" font-weight="bold" font-size="16.00">Schema</text>
<polygon fill="none" stroke="BLACK" points="16.5,-572 16.5,-596 145.5,-596 145.5,-572 16.5,-572"/>
<text text-anchor="start" x="40" y="-580.2" font-family="Times New Roman,serif" font-size="16.00">query: Query</text>
<polygon fill="none" stroke="BLACK" points="16.5,-548 16.5,-572 145.5,-572 145.5,-548 16.5,-548"/>
<text text-anchor="start" x="19.5" y="-556.2" font-family="Times New Roman,serif" font-size="16.00">mutation: Mutation</text>
</g>
<!-- Query -->
<g id="node2" class="node"><title>Query</title>
<polygon fill="none" stroke="BLACK" points="205.5,-596 205.5,-620 602.5,-620 602.5,-596 205.5,-596"/>
<text text-anchor="start" x="383" y="-605.2" font-family="Times New Roman,serif" font-weight="bold" font-size="16.00">Query</text>
<polygon fill="none" stroke="BLACK" points="205.5,-572 205.5,-596 602.5,-596 602.5,-572 205.5,-572"/>
<text text-anchor="start" x="208.5" y="-580.2" font-family="Times New Roman,serif" font-size="16.00">products(search: String, first: Int, after: ID): ProductCollection</text>
<polygon fill="none" stroke="BLACK" points="205.5,-548 205.5,-572 602.5,-572 602.5,-548 205.5,-548"/>
<text text-anchor="start" x="275.5" y="-556.2" font-family="Times New Roman,serif" font-size="16.00">users(first: Int, after: ID): UserCollection</text>
</g>
<!-- Schema&#45;&gt;Query -->
<g id="edge1" class="edge"><title>Schema:queryport&#45;&gt;Query</title>
<path fill="none" stroke="BLACK" d="M146.5,-584C159.516,-584 172.903,-584 186.408,-584"/>
<polygon fill="BLACK" stroke="BLACK" points="186.754,-587.5 196.754,-584 186.754,-580.5 186.754,-587.5"/>
</g>
<!-- Mutation -->
<g id="node3" class="node"><title>Mutation</title>
<polygon fill="none" stroke="BLACK" points="217.5,-391 217.5,-415 590.5,-415 590.5,-391 217.5,-391"/>
<text text-anchor="start" x="373" y="-400.2" font-family="Times New Roman,serif" font-weight="bold" font-size="16.00">Mutation</text>
<polygon fill="none" stroke="BLACK" points="217.5,-367 217.5,-391 590.5,-391 590.5,-367 217.5,-367"/>
<text text-anchor="start" x="269" y="-375.2" font-family="Times New Roman,serif" font-size="16.00">signUp(input: SignUpInput!): SignUpEvent</text>
<polygon fill="none" stroke="BLACK" points="217.5,-343 217.5,-367 590.5,-367 590.5,-343 217.5,-343"/>
<text text-anchor="start" x="279" y="-351.2" font-family="Times New Roman,serif" font-size="16.00">signIn(input: SignInInput!): SignInEvent</text>
<polygon fill="none" stroke="BLACK" points="217.5,-319 217.5,-343 590.5,-343 590.5,-319 217.5,-319"/>
<text text-anchor="start" x="245" y="-327.2" font-family="Times New Roman,serif" font-size="16.00">createProduct(input: ProductInput!): ProductEvent</text>
<polygon fill="none" stroke="BLACK" points="217.5,-295 217.5,-319 590.5,-319 590.5,-295 217.5,-295"/>
<text text-anchor="start" x="220.5" y="-303.2" font-family="Times New Roman,serif" font-size="16.00">updateProduct(input: ProductUpdateInput!): ProductEvent</text>
</g>
<!-- Schema&#45;&gt;Mutation -->
<g id="edge2" class="edge"><title>Schema:mutationport&#45;&gt;Mutation</title>
<path fill="none" stroke="BLACK" d="M146.5,-560C168.533,-560 257.51,-485.057 324.423,-425.797"/>
<polygon fill="BLACK" stroke="BLACK" points="326.902,-428.276 332.056,-419.02 322.254,-423.042 326.902,-428.276"/>
</g>
<!-- ProductCollection -->
<g id="node4" class="node"><title>ProductCollection</title>
<polygon fill="none" stroke="BLACK" points="654,-621 654,-645 782,-645 782,-621 654,-621"/>
<text text-anchor="start" x="657" y="-630.2" font-family="Times New Roman,serif" font-weight="bold" font-size="16.00">ProductCollection</text>
<polygon fill="none" stroke="BLACK" points="654,-597 654,-621 782,-621 782,-597 654,-597"/>
<text text-anchor="start" x="659.5" y="-605.2" font-family="Times New Roman,serif" font-size="16.00">payload: [Product]</text>
<polygon fill="none" stroke="BLACK" points="654,-573 654,-597 782,-597 782,-573 654,-573"/>
<text text-anchor="start" x="660.5" y="-581.2" font-family="Times New Roman,serif" font-size="16.00">hasMore: Boolean</text>
</g>
<!-- Query&#45;&gt;ProductCollection -->
<g id="edge3" class="edge"><title>Query:productsport&#45;&gt;ProductCollection</title>
<path fill="none" stroke="BLACK" d="M603.5,-584C614.082,-584 625.092,-585.049 635.91,-586.718"/>
<polygon fill="BLACK" stroke="BLACK" points="635.325,-590.169 645.773,-588.412 636.51,-583.27 635.325,-590.169"/>
</g>
<!-- UserCollection -->
<g id="node5" class="node"><title>UserCollection</title>
<polygon fill="none" stroke="BLACK" points="844,-621 844,-645 965,-645 965,-621 844,-621"/>
<text text-anchor="start" x="855" y="-630.2" font-family="Times New Roman,serif" font-weight="bold" font-size="16.00">UserCollection</text>
<polygon fill="none" stroke="BLACK" points="844,-597 844,-621 965,-621 965,-597 844,-597"/>
<text text-anchor="start" x="856" y="-605.2" font-family="Times New Roman,serif" font-size="16.00">payload: [User]</text>
<polygon fill="none" stroke="BLACK" points="844,-573 844,-597 965,-597 965,-573 844,-573"/>
<text text-anchor="start" x="847" y="-581.2" font-family="Times New Roman,serif" font-size="16.00">hasMore: Boolean</text>
</g>
<!-- Query&#45;&gt;UserCollection -->
<g id="edge4" class="edge"><title>Query:usersport&#45;&gt;UserCollection</title>
<path fill="none" stroke="BLACK" d="M603.5,-560C686.389,-560 708.84,-543.161 790,-560 801.978,-562.485 814.245,-566.306 826.074,-570.743"/>
<polygon fill="BLACK" stroke="BLACK" points="824.866,-574.028 835.453,-574.419 827.42,-567.511 824.866,-574.028"/>
</g>
<!-- SignUpEvent -->
<g id="node6" class="node"><title>SignUpEvent</title>
<polygon fill="none" stroke="BLACK" points="670,-475 670,-499 766,-499 766,-475 670,-475"/>
<text text-anchor="start" x="673.5" y="-484.2" font-family="Times New Roman,serif" font-weight="bold" font-size="16.00">SignUpEvent</text>
<polygon fill="none" stroke="BLACK" points="670,-451 670,-475 766,-475 766,-451 670,-451"/>
<text text-anchor="start" x="675.5" y="-459.2" font-family="Times New Roman,serif" font-size="16.00">payload: Sign</text>
<polygon fill="none" stroke="BLACK" points="670,-427 670,-451 766,-451 766,-427 670,-427"/>
<text text-anchor="start" x="673" y="-435.2" font-family="Times New Roman,serif" font-size="16.00">errors: [Error]</text>
</g>
<!-- Mutation&#45;&gt;SignUpEvent -->
<g id="edge5" class="edge"><title>Mutation:signUpport&#45;&gt;SignUpEvent</title>
<path fill="none" stroke="BLACK" d="M591.5,-379C593.545,-379 623.407,-398.953 653.487,-419.41"/>
<polygon fill="BLACK" stroke="BLACK" points="651.718,-422.441 661.953,-425.177 655.659,-416.655 651.718,-422.441"/>
</g>
<!-- SignInEvent -->
<g id="node7" class="node"><title>SignInEvent</title>
<polygon fill="none" stroke="BLACK" points="670,-377 670,-401 766,-401 766,-377 670,-377"/>
<text text-anchor="start" x="676.5" y="-386.2" font-family="Times New Roman,serif" font-weight="bold" font-size="16.00">SignInEvent</text>
<polygon fill="none" stroke="BLACK" points="670,-353 670,-377 766,-377 766,-353 670,-353"/>
<text text-anchor="start" x="675.5" y="-361.2" font-family="Times New Roman,serif" font-size="16.00">payload: Sign</text>
<polygon fill="none" stroke="BLACK" points="670,-329 670,-353 766,-353 766,-329 670,-329"/>
<text text-anchor="start" x="673" y="-337.2" font-family="Times New Roman,serif" font-size="16.00">errors: [Error]</text>
</g>
<!-- Mutation&#45;&gt;SignInEvent -->
<g id="edge7" class="edge"><title>Mutation:signInport&#45;&gt;SignInEvent</title>
<path fill="none" stroke="BLACK" d="M591.5,-355C611.046,-355 632.251,-356.22 651.571,-357.808"/>
<polygon fill="BLACK" stroke="BLACK" points="651.519,-361.317 661.784,-358.695 652.124,-354.343 651.519,-361.317"/>
</g>
<!-- ProductEvent -->
<g id="node8" class="node"><title>ProductEvent</title>
<polygon fill="none" stroke="BLACK" points="662,-279 662,-303 774,-303 774,-279 662,-279"/>
<text text-anchor="start" x="671" y="-288.2" font-family="Times New Roman,serif" font-weight="bold" font-size="16.00">ProductEvent</text>
<polygon fill="none" stroke="BLACK" points="662,-255 662,-279 774,-279 774,-255 662,-255"/>
<text text-anchor="start" x="665" y="-263.2" font-family="Times New Roman,serif" font-size="16.00">payload: Product</text>
<polygon fill="none" stroke="BLACK" points="662,-231 662,-255 774,-255 774,-231 662,-231"/>
<text text-anchor="start" x="673" y="-239.2" font-family="Times New Roman,serif" font-size="16.00">errors: [Error]</text>
</g>
<!-- Mutation&#45;&gt;ProductEvent -->
<g id="edge9" class="edge"><title>Mutation:createProductport&#45;&gt;ProductEvent</title>
<path fill="none" stroke="BLACK" d="M591.5,-331C603.217,-331 623.743,-322.035 644.843,-310.816"/>
<polygon fill="BLACK" stroke="BLACK" points="646.786,-313.743 653.897,-305.889 643.44,-307.595 646.786,-313.743"/>
</g>
<!-- Mutation&#45;&gt;ProductEvent -->
<g id="edge11" class="edge"><title>Mutation:updateProductport&#45;&gt;ProductEvent</title>
<path fill="none" stroke="BLACK" d="M591.5,-307C608.896,-307 627.035,-303.468 643.939,-298.503"/>
<polygon fill="BLACK" stroke="BLACK" points="645.241,-301.763 653.734,-295.43 643.145,-295.084 645.241,-301.763"/>
</g>
<!-- Product -->
<g id="node9" class="node"><title>Product</title>
<polygon fill="none" stroke="BLACK" points="834,-425 834,-449 974,-449 974,-425 834,-425"/>
<text text-anchor="start" x="876.5" y="-434.2" font-family="Times New Roman,serif" font-weight="bold" font-size="16.00">Product</text>
<polygon fill="none" stroke="BLACK" points="834,-401 834,-425 974,-425 974,-401 834,-401"/>
<text text-anchor="start" x="885.5" y="-409.2" font-family="Times New Roman,serif" font-size="16.00">id: ID</text>
<polygon fill="none" stroke="BLACK" points="834,-377 834,-401 974,-401 974,-377 834,-377"/>
<text text-anchor="start" x="864.5" y="-385.2" font-family="Times New Roman,serif" font-size="16.00">name: String</text>
<polygon fill="none" stroke="BLACK" points="834,-353 834,-377 974,-377 974,-353 834,-353"/>
<text text-anchor="start" x="867.5" y="-361.2" font-family="Times New Roman,serif" font-size="16.00">price: Float</text>
<polygon fill="none" stroke="BLACK" points="834,-329 834,-353 974,-353 974,-329 834,-329"/>
<text text-anchor="start" x="846" y="-337.2" font-family="Times New Roman,serif" font-size="16.00">photo: Attachment</text>
<polygon fill="none" stroke="BLACK" points="834,-305 834,-329 974,-329 974,-305 834,-305"/>
<text text-anchor="start" x="839" y="-313.2" font-family="Times New Roman,serif" font-size="16.00">createdAt: DateTime</text>
<polygon fill="none" stroke="BLACK" points="834,-281 834,-305 974,-305 974,-281 834,-281"/>
<text text-anchor="start" x="837" y="-289.2" font-family="Times New Roman,serif" font-size="16.00">updatedAt: DateTime</text>
</g>
<!-- ProductCollection&#45;&gt;Product -->
<g id="edge13" class="edge"><title>ProductCollection:payloadport&#45;&gt;Product</title>
<path fill="none" stroke="BLACK" d="M783,-609C851.071,-609 794.701,-522.449 826,-462 826.048,-461.908 826.096,-461.815 826.144,-461.723"/>
<polygon fill="BLACK" stroke="BLACK" points="829.112,-463.588 830.87,-453.14 822.98,-460.212 829.112,-463.588"/>
</g>
<!-- User -->
<g id="node10" class="node"><title>User</title>
<polygon fill="none" stroke="BLACK" points="1026,-596 1026,-620 1166,-620 1166,-596 1026,-596"/>
<text text-anchor="start" x="1080.5" y="-605.2" font-family="Times New Roman,serif" font-weight="bold" font-size="16.00">User</text>
<polygon fill="none" stroke="BLACK" points="1026,-572 1026,-596 1166,-596 1166,-572 1026,-572"/>
<text text-anchor="start" x="1077.5" y="-580.2" font-family="Times New Roman,serif" font-size="16.00">id: ID</text>
<polygon fill="none" stroke="BLACK" points="1026,-548 1026,-572 1166,-572 1166,-548 1026,-548"/>
<text text-anchor="start" x="1056.5" y="-556.2" font-family="Times New Roman,serif" font-size="16.00">name: String</text>
<polygon fill="none" stroke="BLACK" points="1026,-524 1026,-548 1166,-548 1166,-524 1026,-524"/>
<text text-anchor="start" x="1055.5" y="-532.2" font-family="Times New Roman,serif" font-size="16.00">email: String</text>
<polygon fill="none" stroke="BLACK" points="1026,-500 1026,-524 1166,-524 1166,-500 1026,-500"/>
<text text-anchor="start" x="1031" y="-508.2" font-family="Times New Roman,serif" font-size="16.00">createdAt: DateTime</text>
<polygon fill="none" stroke="BLACK" points="1026,-476 1026,-500 1166,-500 1166,-476 1026,-476"/>
<text text-anchor="start" x="1029" y="-484.2" font-family="Times New Roman,serif" font-size="16.00">updatedAt: DateTime</text>
</g>
<!-- UserCollection&#45;&gt;User -->
<g id="edge14" class="edge"><title>UserCollection:payloadport&#45;&gt;User</title>
<path fill="none" stroke="BLACK" d="M966,-609C980.291,-609 994.692,-605.902 1008.43,-601.103"/>
<polygon fill="BLACK" stroke="BLACK" points="1009.72,-604.356 1017.82,-597.526 1007.23,-597.814 1009.72,-604.356"/>
</g>
<!-- Sign -->
<g id="node11" class="node"><title>Sign</title>
<polygon fill="none" stroke="BLACK" points="861,-523 861,-547 948,-547 948,-523 861,-523"/>
<text text-anchor="start" x="889.5" y="-532.2" font-family="Times New Roman,serif" font-weight="bold" font-size="16.00">Sign</text>
<polygon fill="none" stroke="BLACK" points="861,-499 861,-523 948,-523 948,-499 861,-499"/>
<text text-anchor="start" x="864" y="-507.2" font-family="Times New Roman,serif" font-size="16.00">token: String</text>
<polygon fill="none" stroke="BLACK" points="861,-475 861,-499 948,-499 948,-475 861,-475"/>
<text text-anchor="start" x="872.5" y="-483.2" font-family="Times New Roman,serif" font-size="16.00">user: User</text>
</g>
<!-- SignUpEvent&#45;&gt;Sign -->
<g id="edge15" class="edge"><title>SignUpEvent:payloadport&#45;&gt;Sign</title>
<path fill="none" stroke="BLACK" d="M767,-463C792.858,-463 819.985,-470.811 843.15,-480.132"/>
<polygon fill="BLACK" stroke="BLACK" points="841.91,-483.407 852.485,-484.053 844.622,-476.953 841.91,-483.407"/>
</g>
<!-- Error -->
<g id="node12" class="node"><title>Error</title>
<polygon fill="none" stroke="BLACK" points="852,-231 852,-255 956,-255 956,-231 852,-231"/>
<text text-anchor="start" x="885.5" y="-240.2" font-family="Times New Roman,serif" font-weight="bold" font-size="16.00">Error</text>
<polygon fill="none" stroke="BLACK" points="852,-207 852,-231 956,-231 956,-207 852,-207"/>
<text text-anchor="start" x="868" y="-215.2" font-family="Times New Roman,serif" font-size="16.00">type: String</text>
<polygon fill="none" stroke="BLACK" points="852,-183 852,-207 956,-207 956,-183 852,-183"/>
<text text-anchor="start" x="862.5" y="-191.2" font-family="Times New Roman,serif" font-size="16.00">path: [String]</text>
<polygon fill="none" stroke="BLACK" points="852,-159 852,-183 956,-183 956,-159 852,-159"/>
<text text-anchor="start" x="855" y="-167.2" font-family="Times New Roman,serif" font-size="16.00">message: String</text>
<polygon fill="none" stroke="BLACK" points="852,-135 852,-159 956,-159 956,-135 852,-135"/>
<text text-anchor="start" x="858.5" y="-143.2" font-family="Times New Roman,serif" font-size="16.00">context: JSON</text>
</g>
<!-- SignUpEvent&#45;&gt;Error -->
<g id="edge16" class="edge"><title>SignUpEvent:errorsport&#45;&gt;Error</title>
<path fill="none" stroke="BLACK" d="M767,-439C782.098,-439 782.858,-427.302 790,-414 821.615,-355.118 792.393,-325.768 826,-268 829.222,-262.462 832.99,-257.081 837.095,-251.917"/>
<polygon fill="BLACK" stroke="BLACK" points="840.014,-253.887 843.796,-243.99 834.667,-249.368 840.014,-253.887"/>
</g>
<!-- SignInEvent&#45;&gt;Sign -->
<g id="edge17" class="edge"><title>SignInEvent:payloadport&#45;&gt;Sign</title>
<path fill="none" stroke="BLACK" d="M767,-365C817.46,-365 790.683,-425.96 826,-462 831.458,-467.57 837.664,-472.81 844.128,-477.64"/>
<polygon fill="BLACK" stroke="BLACK" points="842.239,-480.591 852.417,-483.533 846.295,-474.886 842.239,-480.591"/>
</g>
<!-- SignInEvent&#45;&gt;Error -->
<g id="edge18" class="edge"><title>SignInEvent:errorsport&#45;&gt;Error</title>
<path fill="none" stroke="BLACK" d="M767,-341C782.098,-341 780.347,-327.609 790,-316 807.049,-295.495 808.261,-287.911 826,-268 829.435,-264.145 833.041,-260.258 836.739,-256.394"/>
<polygon fill="BLACK" stroke="BLACK" points="839.469,-258.607 843.944,-249.004 834.457,-253.721 839.469,-258.607"/>
</g>
<!-- ProductEvent&#45;&gt;Product -->
<g id="edge19" class="edge"><title>ProductEvent:payloadport&#45;&gt;Product</title>
<path fill="none" stroke="BLACK" d="M775,-267C789.781,-267 803.911,-271.171 817.029,-277.792"/>
<polygon fill="BLACK" stroke="BLACK" points="815.504,-280.948 825.945,-282.745 818.904,-274.829 815.504,-280.948"/>
</g>
<!-- ProductEvent&#45;&gt;Error -->
<g id="edge20" class="edge"><title>ProductEvent:errorsport&#45;&gt;Error</title>
<path fill="none" stroke="BLACK" d="M775,-243C794.999,-243 815.7,-237.8 834.474,-230.822"/>
<polygon fill="BLACK" stroke="BLACK" points="835.787,-234.067 843.813,-227.15 833.225,-227.552 835.787,-234.067"/>
</g>
<!-- Attachment -->
<g id="node13" class="node"><title>Attachment</title>
<polygon fill="none" stroke="BLACK" points="1053,-353 1053,-377 1139,-377 1139,-353 1053,-353"/>
<text text-anchor="start" x="1056" y="-362.2" font-family="Times New Roman,serif" font-weight="bold" font-size="16.00">Attachment</text>
<polygon fill="none" stroke="BLACK" points="1053,-329 1053,-353 1139,-353 1139,-329 1053,-329"/>
<text text-anchor="start" x="1077.5" y="-337.2" font-family="Times New Roman,serif" font-size="16.00">id: ID</text>
<polygon fill="none" stroke="BLACK" points="1053,-305 1053,-329 1139,-329 1139,-305 1053,-305"/>
<text text-anchor="start" x="1064" y="-313.2" font-family="Times New Roman,serif" font-size="16.00">uri: String</text>
</g>
<!-- Product&#45;&gt;Attachment -->
<g id="edge21" class="edge"><title>Product:photoport&#45;&gt;Attachment</title>
<path fill="none" stroke="BLACK" d="M975,-341C994.425,-341 1015.62,-341 1034.72,-341"/>
<polygon fill="BLACK" stroke="BLACK" points="1034.79,-344.5 1044.79,-341 1034.79,-337.5 1034.79,-344.5"/>
</g>
<!-- Sign&#45;&gt;User -->
<g id="edge22" class="edge"><title>Sign:userport&#45;&gt;User</title>
<path fill="none" stroke="BLACK" d="M949,-487C968.975,-487 989.382,-491.921 1008.36,-498.969"/>
<polygon fill="BLACK" stroke="BLACK" points="1007.27,-502.298 1017.85,-502.709 1009.83,-495.786 1007.27,-502.298"/>
</g>
<!-- SignUpInput -->
<g id="node14" class="node"><title>SignUpInput</title>
<polygon fill="none" stroke="BLACK" points="25.5,-76 25.5,-114 136.5,-114 136.5,-76 25.5,-76"/>
<text text-anchor="start" x="56.5" y="-99.2" font-family="Times New Roman,serif" font-size="16.00">«input»</text>
<text text-anchor="start" x="38.5" y="-83.2" font-family="Times New Roman,serif" font-weight="bold" font-size="16.00">SignUpInput</text>
<polygon fill="none" stroke="BLACK" points="25.5,-52 25.5,-76 136.5,-76 136.5,-52 25.5,-52"/>
<text text-anchor="start" x="41.5" y="-60.2" font-family="Times New Roman,serif" font-size="16.00">name: String</text>
<polygon fill="none" stroke="BLACK" points="25.5,-28 25.5,-52 136.5,-52 136.5,-28 25.5,-28"/>
<text text-anchor="start" x="40.5" y="-36.2" font-family="Times New Roman,serif" font-size="16.00">email: String</text>
<polygon fill="none" stroke="BLACK" points="25.5,-4 25.5,-28 136.5,-28 136.5,-4 25.5,-4"/>
<text text-anchor="start" x="28.5" y="-12.2" font-family="Times New Roman,serif" font-size="16.00">password: String</text>
</g>
<!-- SignUpInput&#45;&gt;Mutation -->
<g id="edge6" class="edge"><title>SignUpInput&#45;&gt;Mutation</title>
<path fill="none" stroke="BLACK" d="M144.244,-112.167C149.941,-117.145 155.597,-122.144 161,-127 218.296,-178.494 281.564,-238.339 328.965,-283.794"/>
<polygon fill="BLACK" stroke="BLACK" points="326.795,-286.562 336.433,-290.962 331.643,-281.512 326.795,-286.562"/>
</g>
<!-- SignInInput -->
<g id="node15" class="node"><title>SignInInput</title>
<polygon fill="none" stroke="BLACK" points="25.5,-484 25.5,-522 136.5,-522 136.5,-484 25.5,-484"/>
<text text-anchor="start" x="56.5" y="-507.2" font-family="Times New Roman,serif" font-size="16.00">«input»</text>
<text text-anchor="start" x="41.5" y="-491.2" font-family="Times New Roman,serif" font-weight="bold" font-size="16.00">SignInInput</text>
<polygon fill="none" stroke="BLACK" points="25.5,-460 25.5,-484 136.5,-484 136.5,-460 25.5,-460"/>
<text text-anchor="start" x="40.5" y="-468.2" font-family="Times New Roman,serif" font-size="16.00">email: String</text>
<polygon fill="none" stroke="BLACK" points="25.5,-436 25.5,-460 136.5,-460 136.5,-436 25.5,-436"/>
<text text-anchor="start" x="28.5" y="-444.2" font-family="Times New Roman,serif" font-size="16.00">password: String</text>
</g>
<!-- SignInInput&#45;&gt;Mutation -->
<g id="edge8" class="edge"><title>SignInInput&#45;&gt;Mutation</title>
<path fill="none" stroke="BLACK" d="M144.154,-454.797C168.356,-445.448 197.357,-434.245 227.047,-422.776"/>
<polygon fill="BLACK" stroke="BLACK" points="228.638,-425.914 236.705,-419.045 226.116,-419.384 228.638,-425.914"/>
</g>
<!-- ProductInput -->
<g id="node16" class="node"><title>ProductInput</title>
<polygon fill="none" stroke="BLACK" points="32.5,-372 32.5,-410 129.5,-410 129.5,-372 32.5,-372"/>
<text text-anchor="start" x="56.5" y="-395.2" font-family="Times New Roman,serif" font-size="16.00">«input»</text>
<text text-anchor="start" x="36" y="-379.2" font-family="Times New Roman,serif" font-weight="bold" font-size="16.00">ProductInput</text>
<polygon fill="none" stroke="BLACK" points="32.5,-348 32.5,-372 129.5,-372 129.5,-348 32.5,-348"/>
<text text-anchor="start" x="41.5" y="-356.2" font-family="Times New Roman,serif" font-size="16.00">name: String</text>
<polygon fill="none" stroke="BLACK" points="32.5,-324 32.5,-348 129.5,-348 129.5,-324 32.5,-324"/>
<text text-anchor="start" x="44.5" y="-332.2" font-family="Times New Roman,serif" font-size="16.00">price: Float</text>
<polygon fill="none" stroke="BLACK" points="32.5,-300 32.5,-324 129.5,-324 129.5,-300 32.5,-300"/>
<text text-anchor="start" x="35.5" y="-308.2" font-family="Times New Roman,serif" font-size="16.00">photo: Upload</text>
</g>
<!-- ProductInput&#45;&gt;Mutation -->
<g id="edge10" class="edge"><title>ProductInput&#45;&gt;Mutation</title>
<path fill="none" stroke="BLACK" d="M137.047,-355C155.101,-355 176.31,-355 198.737,-355"/>
<polygon fill="BLACK" stroke="BLACK" points="198.767,-358.5 208.767,-355 198.767,-351.5 198.767,-358.5"/>
</g>
<!-- ProductUpdateInput -->
<g id="node17" class="node"><title>ProductUpdateInput</title>
<polygon fill="none" stroke="BLACK" points="8.5,-236 8.5,-274 153.5,-274 153.5,-236 8.5,-236"/>
<text text-anchor="start" x="56.5" y="-259.2" font-family="Times New Roman,serif" font-size="16.00">«input»</text>
<text text-anchor="start" x="11.5" y="-243.2" font-family="Times New Roman,serif" font-weight="bold" font-size="16.00">ProductUpdateInput</text>
<polygon fill="none" stroke="BLACK" points="8.5,-212 8.5,-236 153.5,-236 153.5,-212 8.5,-212"/>
<text text-anchor="start" x="62.5" y="-220.2" font-family="Times New Roman,serif" font-size="16.00">id: ID</text>
<polygon fill="none" stroke="BLACK" points="8.5,-188 8.5,-212 153.5,-212 153.5,-188 8.5,-188"/>
<text text-anchor="start" x="41.5" y="-196.2" font-family="Times New Roman,serif" font-size="16.00">name: String</text>
<polygon fill="none" stroke="BLACK" points="8.5,-164 8.5,-188 153.5,-188 153.5,-164 8.5,-164"/>
<text text-anchor="start" x="44.5" y="-172.2" font-family="Times New Roman,serif" font-size="16.00">price: Float</text>
<polygon fill="none" stroke="BLACK" points="8.5,-140 8.5,-164 153.5,-164 153.5,-140 8.5,-140"/>
<text text-anchor="start" x="35.5" y="-148.2" font-family="Times New Roman,serif" font-size="16.00">photo: Upload</text>
</g>
<!-- ProductUpdateInput&#45;&gt;Mutation -->
<g id="edge12" class="edge"><title>ProductUpdateInput&#45;&gt;Mutation</title>
<path fill="none" stroke="BLACK" d="M161.261,-243.774C189.399,-256.748 222.014,-271.785 253.99,-286.528"/>
<polygon fill="BLACK" stroke="BLACK" points="252.89,-289.875 263.436,-290.883 255.821,-283.518 252.89,-289.875"/>
</g>
</g>
</svg>
