<?xml version="1.0" encoding="UTF-8" standalone="no"?>
<!DOCTYPE svg PUBLIC "-//W3C//DTD SVG 1.1//EN"
 "http://www.w3.org/Graphics/SVG/1.1/DTD/svg11.dtd">
<!-- Generated by graphviz version 2.38.0 (20140413.2041)
 -->
<!-- Title: erd Pages: 1 -->
<svg width="1207pt" height="792pt"
 viewBox="0.00 0.00 1207.00 792.00" xmlns="http://www.w3.org/2000/svg" xmlns:xlink="http://www.w3.org/1999/xlink">
<g id="graph0" class="graph" transform="scale(1 1) rotate(0) translate(4 788)">
<title>erd</title>
<polygon fill="white" stroke="none" points="-4,4 -4,-788 1203,-788 1203,4 -4,4"/>
<!-- Schema -->
<g id="node1" class="node"><title>Schema</title>
<polygon fill="none" stroke="BLACK" points="8,-620 8,-644 178,-644 178,-620 8,-620"/>
<text text-anchor="start" x="66" y="-629.2" font-family="Times New Roman,serif" font-weight="bold" font-size="16.00">Schema</text>
<polygon fill="none" stroke="BLACK" points="8,-596 8,-620 178,-620 178,-596 8,-596"/>
<text text-anchor="start" x="52" y="-604.2" font-family="Times New Roman,serif" font-size="16.00">query: Query</text>
<polygon fill="none" stroke="BLACK" points="8,-572 8,-596 178,-596 178,-572 8,-572"/>
<text text-anchor="start" x="31.5" y="-580.2" font-family="Times New Roman,serif" font-size="16.00">mutation: Mutation</text>
<polygon fill="none" stroke="BLACK" points="8,-548 8,-572 178,-572 178,-548 8,-548"/>
<text text-anchor="start" x="11" y="-556.2" font-family="Times New Roman,serif" font-size="16.00">subscription: Subscription</text>
</g>
<!-- Query -->
<g id="node2" class="node"><title>Query</title>
<polygon fill="none" stroke="BLACK" points="230.5,-620 230.5,-644 627.5,-644 627.5,-620 230.5,-620"/>
<text text-anchor="start" x="408" y="-629.2" font-family="Times New Roman,serif" font-weight="bold" font-size="16.00">Query</text>
<polygon fill="none" stroke="BLACK" points="230.5,-596 230.5,-620 627.5,-620 627.5,-596 230.5,-596"/>
<text text-anchor="start" x="233.5" y="-604.2" font-family="Times New Roman,serif" font-size="16.00">products(search: String, first: Int, after: ID): ProductCollection</text>
<polygon fill="none" stroke="BLACK" points="230.5,-572 230.5,-596 627.5,-596 627.5,-572 230.5,-572"/>
<text text-anchor="start" x="300.5" y="-580.2" font-family="Times New Roman,serif" font-size="16.00">users(first: Int, after: ID): UserCollection</text>
</g>
<!-- Schema&#45;&gt;Query -->
<g id="edge1" class="edge"><title>Schema:queryport&#45;&gt;Query</title>
<path fill="none" stroke="BLACK" d="M179,-608C189.652,-608 200.562,-608 211.579,-608"/>
<polygon fill="BLACK" stroke="BLACK" points="211.724,-611.5 221.724,-608 211.724,-604.5 211.724,-611.5"/>
</g>
<!-- Mutation -->
<g id="node3" class="node"><title>Mutation</title>
<polygon fill="none" stroke="BLACK" points="242.5,-355 242.5,-379 615.5,-379 615.5,-355 242.5,-355"/>
<text text-anchor="start" x="398" y="-364.2" font-family="Times New Roman,serif" font-weight="bold" font-size="16.00">Mutation</text>
<polygon fill="none" stroke="BLACK" points="242.5,-331 242.5,-355 615.5,-355 615.5,-331 242.5,-331"/>
<text text-anchor="start" x="294" y="-339.2" font-family="Times New Roman,serif" font-size="16.00">signUp(input: SignUpInput!): SignUpEvent</text>
<polygon fill="none" stroke="BLACK" points="242.5,-307 242.5,-331 615.5,-331 615.5,-307 242.5,-307"/>
<text text-anchor="start" x="304" y="-315.2" font-family="Times New Roman,serif" font-size="16.00">signIn(input: SignInInput!): SignInEvent</text>
<polygon fill="none" stroke="BLACK" points="242.5,-283 242.5,-307 615.5,-307 615.5,-283 242.5,-283"/>
<text text-anchor="start" x="270" y="-291.2" font-family="Times New Roman,serif" font-size="16.00">createProduct(input: ProductInput!): ProductEvent</text>
<polygon fill="none" stroke="BLACK" points="242.5,-259 242.5,-283 615.5,-283 615.5,-259 242.5,-259"/>
<text text-anchor="start" x="245.5" y="-267.2" font-family="Times New Roman,serif" font-size="16.00">updateProduct(input: ProductUpdateInput!): ProductEvent</text>
</g>
<!-- Schema&#45;&gt;Mutation -->
<g id="edge2" class="edge"><title>Schema:mutationport&#45;&gt;Mutation</title>
<path fill="none" stroke="BLACK" d="M179,-584C205.525,-584 304.494,-469.571 369.244,-391.101"/>
<polygon fill="BLACK" stroke="BLACK" points="372.136,-393.094 375.79,-383.149 366.732,-388.645 372.136,-393.094"/>
</g>
<!-- Subscription -->
<g id="node4" class="node"><title>Subscription</title>
<polygon fill="none" stroke="BLACK" points="255.5,-708 255.5,-732 601.5,-732 601.5,-708 255.5,-708"/>
<text text-anchor="start" x="387" y="-717.2" font-family="Times New Roman,serif" font-weight="bold" font-size="16.00">Subscription</text>
<polygon fill="none" stroke="BLACK" points="255.5,-684 255.5,-708 601.5,-708 601.5,-684 255.5,-684"/>
<text text-anchor="start" x="258.5" y="-692.2" font-family="Times New Roman,serif" font-size="16.00">productUpdated(where: ProductFilterObject): Product</text>
</g>
<!-- Schema&#45;&gt;Subscription -->
<g id="edge3" class="edge"><title>Schema:subscriptionport&#45;&gt;Subscription</title>
<path fill="none" stroke="BLACK" d="M179,-560C226.157,-560 185.883,-626.678 222,-657 230.352,-664.012 239.529,-670.084 249.226,-675.34"/>
<polygon fill="BLACK" stroke="BLACK" points="247.77,-678.525 258.27,-679.94 250.944,-672.286 247.77,-678.525"/>
</g>
<!-- ProductCollection -->
<g id="node5" class="node"><title>ProductCollection</title>
<polygon fill="none" stroke="BLACK" points="679,-638 679,-662 807,-662 807,-638 679,-638"/>
<text text-anchor="start" x="682" y="-647.2" font-family="Times New Roman,serif" font-weight="bold" font-size="16.00">ProductCollection</text>
<polygon fill="none" stroke="BLACK" points="679,-614 679,-638 807,-638 807,-614 679,-614"/>
<text text-anchor="start" x="684.5" y="-622.2" font-family="Times New Roman,serif" font-size="16.00">payload: [Product]</text>
<polygon fill="none" stroke="BLACK" points="679,-590 679,-614 807,-614 807,-590 679,-590"/>
<text text-anchor="start" x="685.5" y="-598.2" font-family="Times New Roman,serif" font-size="16.00">hasMore: Boolean</text>
</g>
<!-- Query&#45;&gt;ProductCollection -->
<g id="edge4" class="edge"><title>Query:productsport&#45;&gt;ProductCollection</title>
<path fill="none" stroke="BLACK" d="M628.5,-608C638.932,-608 649.838,-608.751 660.589,-609.946"/>
<polygon fill="BLACK" stroke="BLACK" points="660.473,-613.459 670.828,-611.218 661.336,-606.512 660.473,-613.459"/>
</g>
<!-- UserCollection -->
<g id="node6" class="node"><title>UserCollection</title>
<polygon fill="none" stroke="BLACK" points="869,-562 869,-586 990,-586 990,-562 869,-562"/>
<text text-anchor="start" x="880" y="-571.2" font-family="Times New Roman,serif" font-weight="bold" font-size="16.00">UserCollection</text>
<polygon fill="none" stroke="BLACK" points="869,-538 869,-562 990,-562 990,-538 869,-538"/>
<text text-anchor="start" x="881" y="-546.2" font-family="Times New Roman,serif" font-size="16.00">payload: [User]</text>
<polygon fill="none" stroke="BLACK" points="869,-514 869,-538 990,-538 990,-514 869,-514"/>
<text text-anchor="start" x="872" y="-522.2" font-family="Times New Roman,serif" font-size="16.00">hasMore: Boolean</text>
</g>
<!-- Query&#45;&gt;UserCollection -->
<g id="edge5" class="edge"><title>Query:usersport&#45;&gt;UserCollection</title>
<path fill="none" stroke="BLACK" d="M628.5,-584C647.643,-584 652.028,-579.557 671,-577 731.023,-568.911 799.21,-561.845 850.259,-556.972"/>
<polygon fill="BLACK" stroke="BLACK" points="850.607,-560.455 860.233,-556.027 849.947,-553.486 850.607,-560.455"/>
</g>
<!-- SignUpEvent -->
<g id="node7" class="node"><title>SignUpEvent</title>
<polygon fill="none" stroke="BLACK" points="695,-472 695,-496 791,-496 791,-472 695,-472"/>
<text text-anchor="start" x="698.5" y="-481.2" font-family="Times New Roman,serif" font-weight="bold" font-size="16.00">SignUpEvent</text>
<polygon fill="none" stroke="BLACK" points="695,-448 695,-472 791,-472 791,-448 695,-448"/>
<text text-anchor="start" x="700.5" y="-456.2" font-family="Times New Roman,serif" font-size="16.00">payload: Sign</text>
<polygon fill="none" stroke="BLACK" points="695,-424 695,-448 791,-448 791,-424 695,-424"/>
<text text-anchor="start" x="698" y="-432.2" font-family="Times New Roman,serif" font-size="16.00">errors: [Error]</text>
</g>
<!-- Mutation&#45;&gt;SignUpEvent -->
<g id="edge6" class="edge"><title>Mutation:signUpport&#45;&gt;SignUpEvent</title>
<path fill="none" stroke="BLACK" d="M616.5,-343C655.231,-343 642.651,-384.61 671,-411 673.544,-413.368 676.209,-415.709 678.954,-418.009"/>
<polygon fill="BLACK" stroke="BLACK" points="676.877,-420.83 686.864,-424.369 681.264,-415.375 676.877,-420.83"/>
</g>
<!-- SignInEvent -->
<g id="node8" class="node"><title>SignInEvent</title>
<polygon fill="none" stroke="BLACK" points="695,-374 695,-398 791,-398 791,-374 695,-374"/>
<text text-anchor="start" x="701.5" y="-383.2" font-family="Times New Roman,serif" font-weight="bold" font-size="16.00">SignInEvent</text>
<polygon fill="none" stroke="BLACK" points="695,-350 695,-374 791,-374 791,-350 695,-350"/>
<text text-anchor="start" x="700.5" y="-358.2" font-family="Times New Roman,serif" font-size="16.00">payload: Sign</text>
<polygon fill="none" stroke="BLACK" points="695,-326 695,-350 791,-350 791,-326 695,-326"/>
<text text-anchor="start" x="698" y="-334.2" font-family="Times New Roman,serif" font-size="16.00">errors: [Error]</text>
</g>
<!-- Mutation&#45;&gt;SignInEvent -->
<g id="edge8" class="edge"><title>Mutation:signInport&#45;&gt;SignInEvent</title>
<path fill="none" stroke="BLACK" d="M616.5,-319C636.892,-319 658.191,-324.144 677.33,-330.873"/>
<polygon fill="BLACK" stroke="BLACK" points="676.238,-334.201 686.831,-334.403 678.676,-327.639 676.238,-334.201"/>
</g>
<!-- ProductEvent -->
<g id="node9" class="node"><title>ProductEvent</title>
<polygon fill="none" stroke="BLACK" points="687,-276 687,-300 799,-300 799,-276 687,-276"/>
<text text-anchor="start" x="696" y="-285.2" font-family="Times New Roman,serif" font-weight="bold" font-size="16.00">ProductEvent</text>
<polygon fill="none" stroke="BLACK" points="687,-252 687,-276 799,-276 799,-252 687,-252"/>
<text text-anchor="start" x="690" y="-260.2" font-family="Times New Roman,serif" font-size="16.00">payload: Product</text>
<polygon fill="none" stroke="BLACK" points="687,-228 687,-252 799,-252 799,-228 687,-228"/>
<text text-anchor="start" x="698" y="-236.2" font-family="Times New Roman,serif" font-size="16.00">errors: [Error]</text>
</g>
<!-- Mutation&#45;&gt;ProductEvent -->
<g id="edge10" class="edge"><title>Mutation:createProductport&#45;&gt;ProductEvent</title>
<path fill="none" stroke="BLACK" d="M616.5,-295C633.76,-295 651.976,-292.202 669.016,-288.288"/>
<polygon fill="BLACK" stroke="BLACK" points="670.017,-291.646 678.897,-285.867 668.351,-284.847 670.017,-291.646"/>
</g>
<!-- Mutation&#45;&gt;ProductEvent -->
<g id="edge12" class="edge"><title>Mutation:updateProductport&#45;&gt;ProductEvent</title>
<path fill="none" stroke="BLACK" d="M616.5,-271C633.306,-271 651.359,-270.366 668.387,-269.481"/>
<polygon fill="BLACK" stroke="BLACK" points="669.047,-272.949 678.837,-268.9 668.658,-265.96 669.047,-272.949"/>
</g>
<!-- Product -->
<g id="node10" class="node"><title>Product</title>
<polygon fill="none" stroke="BLACK" points="859,-756 859,-780 999,-780 999,-756 859,-756"/>
<text text-anchor="start" x="901.5" y="-765.2" font-family="Times New Roman,serif" font-weight="bold" font-size="16.00">Product</text>
<polygon fill="none" stroke="BLACK" points="859,-732 859,-756 999,-756 999,-732 859,-732"/>
<text text-anchor="start" x="910.5" y="-740.2" font-family="Times New Roman,serif" font-size="16.00">id: ID</text>
<polygon fill="none" stroke="BLACK" points="859,-708 859,-732 999,-732 999,-708 859,-708"/>
<text text-anchor="start" x="889.5" y="-716.2" font-family="Times New Roman,serif" font-size="16.00">name: String</text>
<polygon fill="none" stroke="BLACK" points="859,-684 859,-708 999,-708 999,-684 859,-684"/>
<text text-anchor="start" x="892.5" y="-692.2" font-family="Times New Roman,serif" font-size="16.00">price: Float</text>
<polygon fill="none" stroke="BLACK" points="859,-660 859,-684 999,-684 999,-660 859,-660"/>
<text text-anchor="start" x="871" y="-668.2" font-family="Times New Roman,serif" font-size="16.00">photo: Attachment</text>
<polygon fill="none" stroke="BLACK" points="859,-636 859,-660 999,-660 999,-636 859,-636"/>
<text text-anchor="start" x="864" y="-644.2" font-family="Times New Roman,serif" font-size="16.00">createdAt: DateTime</text>
<polygon fill="none" stroke="BLACK" points="859,-612 859,-636 999,-636 999,-612 859,-612"/>
<text text-anchor="start" x="862" y="-620.2" font-family="Times New Roman,serif" font-size="16.00">updatedAt: DateTime</text>
</g>
<!-- Subscription&#45;&gt;Product -->
<g id="edge14" class="edge"><title>Subscription:productUpdatedport&#45;&gt;Product</title>
<path fill="none" stroke="BLACK" d="M602.5,-696C683.095,-696 774.916,-696 840.439,-696"/>
<polygon fill="BLACK" stroke="BLACK" points="840.724,-699.5 850.724,-696 840.724,-692.5 840.724,-699.5"/>
</g>
<!-- ProductCollection&#45;&gt;Product -->
<g id="edge16" class="edge"><title>ProductCollection:payloadport&#45;&gt;Product</title>
<path fill="none" stroke="BLACK" d="M808,-626C819.379,-626 830.64,-628.378 841.439,-632.256"/>
<polygon fill="BLACK" stroke="BLACK" points="840.219,-635.538 850.802,-636.029 842.835,-629.045 840.219,-635.538"/>
</g>
<!-- User -->
<g id="node11" class="node"><title>User</title>
<polygon fill="none" stroke="BLACK" points="1051,-531 1051,-555 1191,-555 1191,-531 1051,-531"/>
<text text-anchor="start" x="1105.5" y="-540.2" font-family="Times New Roman,serif" font-weight="bold" font-size="16.00">User</text>
<polygon fill="none" stroke="BLACK" points="1051,-507 1051,-531 1191,-531 1191,-507 1051,-507"/>
<text text-anchor="start" x="1102.5" y="-515.2" font-family="Times New Roman,serif" font-size="16.00">id: ID</text>
<polygon fill="none" stroke="BLACK" points="1051,-483 1051,-507 1191,-507 1191,-483 1051,-483"/>
<text text-anchor="start" x="1081.5" y="-491.2" font-family="Times New Roman,serif" font-size="16.00">name: String</text>
<polygon fill="none" stroke="BLACK" points="1051,-459 1051,-483 1191,-483 1191,-459 1051,-459"/>
<text text-anchor="start" x="1080.5" y="-467.2" font-family="Times New Roman,serif" font-size="16.00">email: String</text>
<polygon fill="none" stroke="BLACK" points="1051,-435 1051,-459 1191,-459 1191,-435 1051,-435"/>
<text text-anchor="start" x="1056" y="-443.2" font-family="Times New Roman,serif" font-size="16.00">createdAt: DateTime</text>
<polygon fill="none" stroke="BLACK" points="1051,-411 1051,-435 1191,-435 1191,-411 1051,-411"/>
<text text-anchor="start" x="1054" y="-419.2" font-family="Times New Roman,serif" font-size="16.00">updatedAt: DateTime</text>
</g>
<!-- UserCollection&#45;&gt;User -->
<g id="edge17" class="edge"><title>UserCollection:payloadport&#45;&gt;User</title>
<path fill="none" stroke="BLACK" d="M991,-550C1005.46,-550 1019.9,-546.646 1033.62,-541.438"/>
<polygon fill="BLACK" stroke="BLACK" points="1035.09,-544.617 1042.99,-537.555 1032.41,-538.15 1035.09,-544.617"/>
</g>
<!-- Sign -->
<g id="node12" class="node"><title>Sign</title>
<polygon fill="none" stroke="BLACK" points="886,-464 886,-488 973,-488 973,-464 886,-464"/>
<text text-anchor="start" x="914.5" y="-473.2" font-family="Times New Roman,serif" font-weight="bold" font-size="16.00">Sign</text>
<polygon fill="none" stroke="BLACK" points="886,-440 886,-464 973,-464 973,-440 886,-440"/>
<text text-anchor="start" x="889" y="-448.2" font-family="Times New Roman,serif" font-size="16.00">token: String</text>
<polygon fill="none" stroke="BLACK" points="886,-416 886,-440 973,-440 973,-416 886,-416"/>
<text text-anchor="start" x="897.5" y="-424.2" font-family="Times New Roman,serif" font-size="16.00">user: User</text>
</g>
<!-- SignUpEvent&#45;&gt;Sign -->
<g id="edge18" class="edge"><title>SignUpEvent:payloadport&#45;&gt;Sign</title>
<path fill="none" stroke="BLACK" d="M792,-460C816.621,-460 843.705,-458.677 867.179,-457.107"/>
<polygon fill="BLACK" stroke="BLACK" points="867.611,-460.586 877.343,-456.398 867.124,-453.603 867.611,-460.586"/>
</g>
<!-- Error -->
<g id="node13" class="node"><title>Error</title>
<polygon fill="none" stroke="BLACK" points="877,-366 877,-390 981,-390 981,-366 877,-366"/>
<text text-anchor="start" x="910.5" y="-375.2" font-family="Times New Roman,serif" font-weight="bold" font-size="16.00">Error</text>
<polygon fill="none" stroke="BLACK" points="877,-342 877,-366 981,-366 981,-342 877,-342"/>
<text text-anchor="start" x="893" y="-350.2" font-family="Times New Roman,serif" font-size="16.00">type: String</text>
<polygon fill="none" stroke="BLACK" points="877,-318 877,-342 981,-342 981,-318 877,-318"/>
<text text-anchor="start" x="887.5" y="-326.2" font-family="Times New Roman,serif" font-size="16.00">path: [String]</text>
<polygon fill="none" stroke="BLACK" points="877,-294 877,-318 981,-318 981,-294 877,-294"/>
<text text-anchor="start" x="880" y="-302.2" font-family="Times New Roman,serif" font-size="16.00">message: String</text>
<polygon fill="none" stroke="BLACK" points="877,-270 877,-294 981,-294 981,-270 877,-270"/>
<text text-anchor="start" x="883.5" y="-278.2" font-family="Times New Roman,serif" font-size="16.00">context: JSON</text>
</g>
<!-- SignUpEvent&#45;&gt;Error -->
<g id="edge19" class="edge"><title>SignUpEvent:errorsport&#45;&gt;Error</title>
<path fill="none" stroke="BLACK" d="M792,-436C800.931,-436 831.089,-412.966 860.742,-388.373"/>
<polygon fill="BLACK" stroke="BLACK" points="863.232,-390.854 868.664,-381.758 858.745,-385.481 863.232,-390.854"/>
</g>
<!-- SignInEvent&#45;&gt;Sign -->
<g id="edge20" class="edge"><title>SignInEvent:payloadport&#45;&gt;Sign</title>
<path fill="none" stroke="BLACK" d="M792,-362C823.932,-362 824.414,-385.313 851,-403 856.673,-406.774 862.612,-410.662 868.569,-414.521"/>
<polygon fill="BLACK" stroke="BLACK" points="866.978,-417.659 877.279,-420.135 870.77,-411.775 866.978,-417.659"/>
</g>
<!-- SignInEvent&#45;&gt;Error -->
<g id="edge21" class="edge"><title>SignInEvent:errorsport&#45;&gt;Error</title>
<path fill="none" stroke="BLACK" d="M792,-338C813.745,-338 837.413,-336.968 858.817,-335.646"/>
<polygon fill="BLACK" stroke="BLACK" points="859.047,-339.138 868.8,-334.998 858.594,-332.153 859.047,-339.138"/>
</g>
<!-- ProductEvent&#45;&gt;Product -->
<g id="edge22" class="edge"><title>ProductEvent:payloadport&#45;&gt;Product</title>
<path fill="none" stroke="BLACK" d="M800,-264C872.508,-264 825.602,-510.24 851.729,-598.399"/>
<polygon fill="BLACK" stroke="BLACK" points="848.445,-599.61 855.086,-607.864 855.042,-597.27 848.445,-599.61"/>
</g>
<!-- ProductEvent&#45;&gt;Error -->
<g id="edge23" class="edge"><title>ProductEvent:errorsport&#45;&gt;Error</title>
<path fill="none" stroke="BLACK" d="M800,-240C821.791,-240 842.493,-248.836 860.649,-260.971"/>
<polygon fill="BLACK" stroke="BLACK" points="858.626,-263.827 868.807,-266.759 862.677,-258.118 858.626,-263.827"/>
</g>
<!-- Attachment -->
<g id="node14" class="node"><title>Attachment</title>
<polygon fill="none" stroke="BLACK" points="1078,-684 1078,-708 1164,-708 1164,-684 1078,-684"/>
<text text-anchor="start" x="1081" y="-693.2" font-family="Times New Roman,serif" font-weight="bold" font-size="16.00">Attachment</text>
<polygon fill="none" stroke="BLACK" points="1078,-660 1078,-684 1164,-684 1164,-660 1078,-660"/>
<text text-anchor="start" x="1102.5" y="-668.2" font-family="Times New Roman,serif" font-size="16.00">id: ID</text>
<polygon fill="none" stroke="BLACK" points="1078,-636 1078,-660 1164,-660 1164,-636 1078,-636"/>
<text text-anchor="start" x="1089" y="-644.2" font-family="Times New Roman,serif" font-size="16.00">uri: String</text>
</g>
<!-- Product&#45;&gt;Attachment -->
<g id="edge24" class="edge"><title>Product:photoport&#45;&gt;Attachment</title>
<path fill="none" stroke="BLACK" d="M1000,-672C1019.43,-672 1040.62,-672 1059.72,-672"/>
<polygon fill="BLACK" stroke="BLACK" points="1059.79,-675.5 1069.79,-672 1059.79,-668.5 1059.79,-675.5"/>
</g>
<!-- Sign&#45;&gt;User -->
<g id="edge25" class="edge"><title>Sign:userport&#45;&gt;User</title>
<path fill="none" stroke="BLACK" d="M974,-428C993.811,-428 1014.22,-432.49 1033.27,-438.904"/>
<polygon fill="BLACK" stroke="BLACK" points="1032.2,-442.239 1042.8,-442.307 1034.56,-435.647 1032.2,-442.239"/>
</g>
<!-- SignUpInput -->
<g id="node15" class="node"><title>SignUpInput</title>
<polygon fill="none" stroke="BLACK" points="38,-188 38,-226 149,-226 149,-188 38,-188"/>
<text text-anchor="start" x="69" y="-211.2" font-family="Times New Roman,serif" font-size="16.00">«input»</text>
<text text-anchor="start" x="51" y="-195.2" font-family="Times New Roman,serif" font-weight="bold" font-size="16.00">SignUpInput</text>
<polygon fill="none" stroke="BLACK" points="38,-164 38,-188 149,-188 149,-164 38,-164"/>
<text text-anchor="start" x="54" y="-172.2" font-family="Times New Roman,serif" font-size="16.00">name: String</text>
<polygon fill="none" stroke="BLACK" points="38,-140 38,-164 149,-164 149,-140 38,-140"/>
<text text-anchor="start" x="53" y="-148.2" font-family="Times New Roman,serif" font-size="16.00">email: String</text>
<polygon fill="none" stroke="BLACK" points="38,-116 38,-140 149,-140 149,-116 38,-116"/>
<text text-anchor="start" x="41" y="-124.2" font-family="Times New Roman,serif" font-size="16.00">password: String</text>
</g>
<!-- SignUpInput&#45;&gt;Mutation -->
<g id="edge7" class="edge"><title>SignUpInput&#45;&gt;Mutation</title>
<path fill="none" stroke="BLACK" d="M156.729,-198.838C189.971,-213.59 232.395,-232.417 273.747,-250.768"/>
<polygon fill="BLACK" stroke="BLACK" points="272.547,-254.064 283.107,-254.921 275.386,-247.666 272.547,-254.064"/>
</g>
<!-- SignInInput -->
<g id="node16" class="node"><title>SignInInput</title>
<polygon fill="none" stroke="BLACK" points="38,-52 38,-90 149,-90 149,-52 38,-52"/>
<text text-anchor="start" x="69" y="-75.2" font-family="Times New Roman,serif" font-size="16.00">«input»</text>
<text text-anchor="start" x="54" y="-59.2" font-family="Times New Roman,serif" font-weight="bold" font-size="16.00">SignInInput</text>
<polygon fill="none" stroke="BLACK" points="38,-28 38,-52 149,-52 149,-28 38,-28"/>
<text text-anchor="start" x="53" y="-36.2" font-family="Times New Roman,serif" font-size="16.00">email: String</text>
<polygon fill="none" stroke="BLACK" points="38,-4 38,-28 149,-28 149,-4 38,-4"/>
<text text-anchor="start" x="41" y="-12.2" font-family="Times New Roman,serif" font-size="16.00">password: String</text>
</g>
<!-- SignInInput&#45;&gt;Mutation -->
<g id="edge9" class="edge"><title>SignInInput&#45;&gt;Mutation</title>
<path fill="none" stroke="BLACK" d="M156.873,-83.1477C166.821,-89.4677 176.839,-96.2043 186,-103 245.929,-147.457 308.595,-203.839 355.07,-247.849"/>
<polygon fill="BLACK" stroke="BLACK" points="352.727,-250.451 362.387,-254.803 357.549,-245.377 352.727,-250.451"/>
</g>
<!-- ProductInput -->
<g id="node17" class="node"><title>ProductInput</title>
<polygon fill="none" stroke="BLACK" points="45,-484 45,-522 142,-522 142,-484 45,-484"/>
<text text-anchor="start" x="69" y="-507.2" font-family="Times New Roman,serif" font-size="16.00">«input»</text>
<text text-anchor="start" x="48.5" y="-491.2" font-family="Times New Roman,serif" font-weight="bold" font-size="16.00">ProductInput</text>
<polygon fill="none" stroke="BLACK" points="45,-460 45,-484 142,-484 142,-460 45,-460"/>
<text text-anchor="start" x="54" y="-468.2" font-family="Times New Roman,serif" font-size="16.00">name: String</text>
<polygon fill="none" stroke="BLACK" points="45,-436 45,-460 142,-460 142,-436 45,-436"/>
<text text-anchor="start" x="57" y="-444.2" font-family="Times New Roman,serif" font-size="16.00">price: Float</text>
<polygon fill="none" stroke="BLACK" points="45,-412 45,-436 142,-436 142,-412 45,-412"/>
<text text-anchor="start" x="48" y="-420.2" font-family="Times New Roman,serif" font-size="16.00">photo: Upload</text>
</g>
<!-- ProductInput&#45;&gt;Mutation -->
<g id="edge11" class="edge"><title>ProductInput&#45;&gt;Mutation</title>
<path fill="none" stroke="BLACK" d="M149.82,-442.228C183.924,-427.094 229.357,-406.932 273.58,-387.307"/>
<polygon fill="BLACK" stroke="BLACK" points="275.273,-390.384 282.993,-383.129 272.433,-383.986 275.273,-390.384"/>
</g>
<!-- ProductUpdateInput -->
<g id="node18" class="node"><title>ProductUpdateInput</title>
<polygon fill="none" stroke="BLACK" points="21,-348 21,-386 166,-386 166,-348 21,-348"/>
<text text-anchor="start" x="69" y="-371.2" font-family="Times New Roman,serif" font-size="16.00">«input»</text>
<text text-anchor="start" x="24" y="-355.2" font-family="Times New Roman,serif" font-weight="bold" font-size="16.00">ProductUpdateInput</text>
<polygon fill="none" stroke="BLACK" points="21,-324 21,-348 166,-348 166,-324 21,-324"/>
<text text-anchor="start" x="75" y="-332.2" font-family="Times New Roman,serif" font-size="16.00">id: ID</text>
<polygon fill="none" stroke="BLACK" points="21,-300 21,-324 166,-324 166,-300 21,-300"/>
<text text-anchor="start" x="54" y="-308.2" font-family="Times New Roman,serif" font-size="16.00">name: String</text>
<polygon fill="none" stroke="BLACK" points="21,-276 21,-300 166,-300 166,-276 21,-276"/>
<text text-anchor="start" x="57" y="-284.2" font-family="Times New Roman,serif" font-size="16.00">price: Float</text>
<polygon fill="none" stroke="BLACK" points="21,-252 21,-276 166,-276 166,-252 21,-252"/>
<text text-anchor="start" x="48" y="-260.2" font-family="Times New Roman,serif" font-size="16.00">photo: Upload</text>
</g>
<!-- ProductUpdateInput&#45;&gt;Mutation -->
<g id="edge13" class="edge"><title>ProductUpdateInput&#45;&gt;Mutation</title>
<path fill="none" stroke="BLACK" d="M173.882,-319C189.346,-319 206.193,-319 223.61,-319"/>
<polygon fill="BLACK" stroke="BLACK" points="223.924,-322.5 233.924,-319 223.924,-315.5 223.924,-322.5"/>
</g>
<!-- ProductFilterObject -->
<g id="node19" class="node"><title>ProductFilterObject</title>
<polygon fill="none" stroke="BLACK" points="22,-742 22,-780 164,-780 164,-742 22,-742"/>
<text text-anchor="start" x="68.5" y="-765.2" font-family="Times New Roman,serif" font-size="16.00">«input»</text>
<text text-anchor="start" x="25" y="-749.2" font-family="Times New Roman,serif" font-weight="bold" font-size="16.00">ProductFilterObject</text>
<polygon fill="none" stroke="BLACK" points="22,-718 22,-742 164,-742 164,-718 22,-718"/>
<text text-anchor="start" x="74.5" y="-726.2" font-family="Times New Roman,serif" font-size="16.00">id: ID</text>
<polygon fill="none" stroke="BLACK" points="22,-694 22,-718 164,-718 164,-694 22,-694"/>
<text text-anchor="start" x="53.5" y="-702.2" font-family="Times New Roman,serif" font-size="16.00">name: String</text>
<polygon fill="none" stroke="BLACK" points="22,-670 22,-694 164,-694 164,-670 22,-670"/>
<text text-anchor="start" x="56.5" y="-678.2" font-family="Times New Roman,serif" font-size="16.00">price: Float</text>
</g>
<!-- ProductFilterObject&#45;&gt;Subscription -->
<g id="edge15" class="edge"><title>ProductFilterObject&#45;&gt;Subscription</title>
<path fill="none" stroke="BLACK" d="M172.191,-721.014C192.064,-720.001 214.302,-718.868 237.142,-717.703"/>
<polygon fill="BLACK" stroke="BLACK" points="237.507,-721.189 247.316,-717.185 237.151,-714.199 237.507,-721.189"/>
</g>
</g>
</svg>
