<?xml version="1.0" encoding="UTF-8" standalone="no"?>
<!DOCTYPE svg PUBLIC "-//W3C//DTD SVG 1.1//EN"
 "http://www.w3.org/Graphics/SVG/1.1/DTD/svg11.dtd">
<!-- Generated by graphviz version 2.38.0 (20140413.2041)
 -->
<!-- Title: G Pages: 1 -->
<svg width="2376pt" height="468pt"
 viewBox="0.00 0.00 2376.20 468.07" xmlns="http://www.w3.org/2000/svg" xmlns:xlink="http://www.w3.org/1999/xlink">
<g id="graph0" class="graph" transform="scale(1 1) rotate(0) translate(21.6 446.471)">
<title>G</title>
<polygon fill="#111111" stroke="none" points="-21.6,21.6 -21.6,-446.471 2354.6,-446.471 2354.6,21.6 -21.6,21.6"/>
<!-- app.json -->
<g id="node1" class="node"><title>app.json</title>
<path fill="none" stroke="#cfffac" d="M168.833,-317.871C168.833,-317.871 113.167,-317.871 113.167,-317.871 109.333,-317.871 105.5,-314.038 105.5,-310.205 105.5,-310.205 105.5,-302.538 105.5,-302.538 105.5,-298.705 109.333,-294.871 113.167,-294.871 113.167,-294.871 168.833,-294.871 168.833,-294.871 172.667,-294.871 176.5,-298.705 176.5,-302.538 176.5,-302.538 176.5,-310.205 176.5,-310.205 176.5,-314.038 172.667,-317.871 168.833,-317.871"/>
<text text-anchor="middle" x="141" y="-302.671" font-family="Arial" font-size="14.00" fill="#cfffac">app.json</text>
</g>
<!-- index.js -->
<g id="node2" class="node"><title>index.js</title>
<path fill="none" stroke="#c6c5fe" d="M57.3333,-296.871C57.3333,-296.871 7.66667,-296.871 7.66667,-296.871 3.83333,-296.871 0,-293.038 0,-289.205 0,-289.205 0,-281.538 0,-281.538 0,-277.705 3.83333,-273.871 7.66667,-273.871 7.66667,-273.871 57.3333,-273.871 57.3333,-273.871 61.1667,-273.871 65,-277.705 65,-281.538 65,-281.538 65,-289.205 65,-289.205 65,-293.038 61.1667,-296.871 57.3333,-296.871"/>
<text text-anchor="middle" x="32.5" y="-281.671" font-family="Arial" font-size="14.00" fill="#c6c5fe">index.js</text>
</g>
<!-- index.js&#45;&gt;app.json -->
<g id="edge1" class="edge"><title>index.js&#45;&gt;app.json</title>
<path fill="none" stroke="#757575" d="M65.1652,-291.615C74.6383,-293.483 85.2086,-295.568 95.3512,-297.567"/>
<polygon fill="#757575" stroke="#757575" points="94.8066,-301.027 105.295,-299.528 96.1609,-294.16 94.8066,-301.027"/>
</g>
<!-- src/App.js -->
<g id="node3" class="node"><title>src/App.js</title>
<path fill="none" stroke="#c6c5fe" d="M173.333,-276.871C173.333,-276.871 108.667,-276.871 108.667,-276.871 104.833,-276.871 101,-273.038 101,-269.205 101,-269.205 101,-261.538 101,-261.538 101,-257.705 104.833,-253.871 108.667,-253.871 108.667,-253.871 173.333,-253.871 173.333,-253.871 177.167,-253.871 181,-257.705 181,-261.538 181,-261.538 181,-269.205 181,-269.205 181,-273.038 177.167,-276.871 173.333,-276.871"/>
<text text-anchor="middle" x="141" y="-261.671" font-family="Arial" font-size="14.00" fill="#c6c5fe">src/App.js</text>
</g>
<!-- index.js&#45;&gt;src/App.js -->
<g id="edge2" class="edge"><title>index.js&#45;&gt;src/App.js</title>
<path fill="none" stroke="#757575" d="M65.1652,-279.425C73.1859,-277.919 81.9932,-276.265 90.6614,-274.637"/>
<polygon fill="#757575" stroke="#757575" points="91.5358,-278.034 100.718,-272.748 90.2437,-271.154 91.5358,-278.034"/>
</g>
<!-- src/components/ApolloProvider.js -->
<g id="node4" class="node"><title>src/components/ApolloProvider.js</title>
<path fill="none" stroke="#cfffac" d="M463.833,-397.871C463.833,-397.871 249.167,-397.871 249.167,-397.871 245.333,-397.871 241.5,-394.038 241.5,-390.205 241.5,-390.205 241.5,-382.538 241.5,-382.538 241.5,-378.705 245.333,-374.871 249.167,-374.871 249.167,-374.871 463.833,-374.871 463.833,-374.871 467.667,-374.871 471.5,-378.705 471.5,-382.538 471.5,-382.538 471.5,-390.205 471.5,-390.205 471.5,-394.038 467.667,-397.871 463.833,-397.871"/>
<text text-anchor="middle" x="356.5" y="-382.671" font-family="Arial" font-size="14.00" fill="#cfffac">src/components/ApolloProvider.js</text>
</g>
<!-- src/App.js&#45;&gt;src/components/ApolloProvider.js -->
<g id="edge3" class="edge"><title>src/App.js&#45;&gt;src/components/ApolloProvider.js</title>
<path fill="none" stroke="#757575" d="M170.375,-277.083C174.235,-279.454 177.921,-282.21 181,-285.371 206.798,-311.858 187.664,-337.865 217,-360.371 222.095,-364.281 227.602,-367.661 233.382,-370.581"/>
<polygon fill="#757575" stroke="#757575" points="232.118,-373.851 242.67,-374.8 235.012,-367.478 232.118,-373.851"/>
</g>
<!-- src/screens/AppScreen.js -->
<g id="node5" class="node"><title>src/screens/AppScreen.js</title>
<path fill="none" stroke="#c6c5fe" d="M766.333,-424.871C766.333,-424.871 600.667,-424.871 600.667,-424.871 596.833,-424.871 593,-421.038 593,-417.205 593,-417.205 593,-409.538 593,-409.538 593,-405.705 596.833,-401.871 600.667,-401.871 600.667,-401.871 766.333,-401.871 766.333,-401.871 770.167,-401.871 774,-405.705 774,-409.538 774,-409.538 774,-417.205 774,-417.205 774,-421.038 770.167,-424.871 766.333,-424.871"/>
<text text-anchor="middle" x="683.5" y="-409.671" font-family="Arial" font-size="14.00" fill="#c6c5fe">src/screens/AppScreen.js</text>
</g>
<!-- src/App.js&#45;&gt;src/screens/AppScreen.js -->
<g id="edge4" class="edge"><title>src/App.js&#45;&gt;src/screens/AppScreen.js</title>
<path fill="none" stroke="#757575" d="M168.014,-276.967C172.528,-279.459 177.039,-282.284 181,-285.371 200.127,-300.279 195.656,-314.861 217,-326.371 327.203,-385.8 373.177,-341.062 496,-365.371 502.644,-366.686 575.612,-385.571 628.271,-399.255"/>
<polygon fill="#757575" stroke="#757575" points="627.617,-402.701 638.176,-401.83 629.379,-395.926 627.617,-402.701"/>
</g>
<!-- src/screens/AuthScreen/SignInScreen.js -->
<g id="node6" class="node"><title>src/screens/AuthScreen/SignInScreen.js</title>
<path fill="none" stroke="#c6c5fe" d="M485.333,-276.871C485.333,-276.871 227.667,-276.871 227.667,-276.871 223.833,-276.871 220,-273.038 220,-269.205 220,-269.205 220,-261.538 220,-261.538 220,-257.705 223.833,-253.871 227.667,-253.871 227.667,-253.871 485.333,-253.871 485.333,-253.871 489.167,-253.871 493,-257.705 493,-261.538 493,-261.538 493,-269.205 493,-269.205 493,-273.038 489.167,-276.871 485.333,-276.871"/>
<text text-anchor="middle" x="356.5" y="-261.671" font-family="Arial" font-size="14.00" fill="#c6c5fe">src/screens/AuthScreen/SignInScreen.js</text>
</g>
<!-- src/App.js&#45;&gt;src/screens/AuthScreen/SignInScreen.js -->
<g id="edge5" class="edge"><title>src/App.js&#45;&gt;src/screens/AuthScreen/SignInScreen.js</title>
<path fill="none" stroke="#757575" d="M181.159,-265.371C189.736,-265.371 199.303,-265.371 209.416,-265.371"/>
<polygon fill="#757575" stroke="#757575" points="209.697,-268.872 219.697,-265.371 209.696,-261.872 209.697,-268.872"/>
</g>
<!-- src/screens/AuthScreen/SignUpScreen.js -->
<g id="node7" class="node"><title>src/screens/AuthScreen/SignUpScreen.js</title>
<path fill="none" stroke="#c6c5fe" d="M488.333,-235.871C488.333,-235.871 224.667,-235.871 224.667,-235.871 220.833,-235.871 217,-232.038 217,-228.205 217,-228.205 217,-220.538 217,-220.538 217,-216.705 220.833,-212.871 224.667,-212.871 224.667,-212.871 488.333,-212.871 488.333,-212.871 492.167,-212.871 496,-216.705 496,-220.538 496,-220.538 496,-228.205 496,-228.205 496,-232.038 492.167,-235.871 488.333,-235.871"/>
<text text-anchor="middle" x="356.5" y="-220.671" font-family="Arial" font-size="14.00" fill="#c6c5fe">src/screens/AuthScreen/SignUpScreen.js</text>
</g>
<!-- src/App.js&#45;&gt;src/screens/AuthScreen/SignUpScreen.js -->
<g id="edge6" class="edge"><title>src/App.js&#45;&gt;src/screens/AuthScreen/SignUpScreen.js</title>
<path fill="none" stroke="#757575" d="M179.534,-253.834C191.434,-250.453 204.696,-246.971 217,-244.371 228.91,-241.855 241.463,-239.558 253.952,-237.49"/>
<polygon fill="#757575" stroke="#757575" points="254.625,-240.927 263.941,-235.881 253.511,-234.016 254.625,-240.927"/>
</g>
<!-- src/screens/CreateScreen/index.js -->
<g id="node8" class="node"><title>src/screens/CreateScreen/index.js</title>
<path fill="none" stroke="#c6c5fe" d="M466.333,-117.871C466.333,-117.871 246.667,-117.871 246.667,-117.871 242.833,-117.871 239,-114.038 239,-110.205 239,-110.205 239,-102.538 239,-102.538 239,-98.7048 242.833,-94.8715 246.667,-94.8715 246.667,-94.8715 466.333,-94.8715 466.333,-94.8715 470.167,-94.8715 474,-98.7048 474,-102.538 474,-102.538 474,-110.205 474,-110.205 474,-114.038 470.167,-117.871 466.333,-117.871"/>
<text text-anchor="middle" x="356.5" y="-102.671" font-family="Arial" font-size="14.00" fill="#c6c5fe">src/screens/CreateScreen/index.js</text>
</g>
<!-- src/App.js&#45;&gt;src/screens/CreateScreen/index.js -->
<g id="edge7" class="edge"><title>src/App.js&#45;&gt;src/screens/CreateScreen/index.js</title>
<path fill="none" stroke="#757575" d="M146.771,-253.83C156.599,-231.431 181.221,-181.86 217,-154.371 237.308,-138.769 263.053,-128.016 286.821,-120.71"/>
<polygon fill="#757575" stroke="#757575" points="287.893,-124.044 296.513,-117.884 285.933,-117.324 287.893,-124.044"/>
</g>
<!-- src/screens/EditScreen/index.js -->
<g id="node9" class="node"><title>src/screens/EditScreen/index.js</title>
<path fill="none" stroke="#c6c5fe" d="M457.333,-186.871C457.333,-186.871 255.667,-186.871 255.667,-186.871 251.833,-186.871 248,-183.038 248,-179.205 248,-179.205 248,-171.538 248,-171.538 248,-167.705 251.833,-163.871 255.667,-163.871 255.667,-163.871 457.333,-163.871 457.333,-163.871 461.167,-163.871 465,-167.705 465,-171.538 465,-171.538 465,-179.205 465,-179.205 465,-183.038 461.167,-186.871 457.333,-186.871"/>
<text text-anchor="middle" x="356.5" y="-171.671" font-family="Arial" font-size="14.00" fill="#c6c5fe">src/screens/EditScreen/index.js</text>
</g>
<!-- src/App.js&#45;&gt;src/screens/EditScreen/index.js -->
<g id="edge8" class="edge"><title>src/App.js&#45;&gt;src/screens/EditScreen/index.js</title>
<path fill="none" stroke="#757575" d="M152.455,-253.767C165.933,-239.57 190.774,-215.883 217,-203.371 229.115,-197.592 242.379,-193.003 255.747,-189.361"/>
<polygon fill="#757575" stroke="#757575" points="256.662,-192.74 265.484,-186.873 254.929,-185.958 256.662,-192.74"/>
</g>
<!-- src/screens/ListScreen/index.js -->
<g id="node10" class="node"><title>src/screens/ListScreen/index.js</title>
<path fill="none" stroke="#c6c5fe" d="M456.333,-317.871C456.333,-317.871 256.667,-317.871 256.667,-317.871 252.833,-317.871 249,-314.038 249,-310.205 249,-310.205 249,-302.538 249,-302.538 249,-298.705 252.833,-294.871 256.667,-294.871 256.667,-294.871 456.333,-294.871 456.333,-294.871 460.167,-294.871 464,-298.705 464,-302.538 464,-302.538 464,-310.205 464,-310.205 464,-314.038 460.167,-317.871 456.333,-317.871"/>
<text text-anchor="middle" x="356.5" y="-302.671" font-family="Arial" font-size="14.00" fill="#c6c5fe">src/screens/ListScreen/index.js</text>
</g>
<!-- src/App.js&#45;&gt;src/screens/ListScreen/index.js -->
<g id="edge9" class="edge"><title>src/App.js&#45;&gt;src/screens/ListScreen/index.js</title>
<path fill="none" stroke="#757575" d="M181.119,-276.675C192.617,-279.761 205.259,-282.924 217,-285.371 230.734,-288.235 245.312,-290.874 259.655,-293.245"/>
<polygon fill="#757575" stroke="#757575" points="259.103,-296.701 269.534,-294.843 260.221,-289.791 259.103,-296.701"/>
</g>
<!-- src/services/index.js -->
<g id="node16" class="node"><title>src/services/index.js</title>
<path fill="none" stroke="#c6c5fe" d="M1487.83,-407.871C1487.83,-407.871 1358.17,-407.871 1358.17,-407.871 1354.33,-407.871 1350.5,-404.038 1350.5,-400.205 1350.5,-400.205 1350.5,-392.538 1350.5,-392.538 1350.5,-388.705 1354.33,-384.871 1358.17,-384.871 1358.17,-384.871 1487.83,-384.871 1487.83,-384.871 1491.67,-384.871 1495.5,-388.705 1495.5,-392.538 1495.5,-392.538 1495.5,-400.205 1495.5,-400.205 1495.5,-404.038 1491.67,-407.871 1487.83,-407.871"/>
<text text-anchor="middle" x="1423" y="-392.671" font-family="Arial" font-size="14.00" fill="#c6c5fe">src/services/index.js</text>
</g>
<!-- src/screens/AppScreen.js&#45;&gt;src/services/index.js -->
<g id="edge16" class="edge"><title>src/screens/AppScreen.js&#45;&gt;src/services/index.js</title>
<path fill="none" stroke="#757575" d="M774.085,-413.79C878.526,-413.983 1056.32,-413.397 1209,-408.371 1252.25,-406.948 1300.38,-404.324 1339.94,-401.893"/>
<polygon fill="#757575" stroke="#757575" points="1340.3,-405.377 1350.06,-401.263 1339.87,-398.39 1340.3,-405.377"/>
</g>
<!-- src/screens/AuthScreen/components/index.js -->
<g id="node17" class="node"><title>src/screens/AuthScreen/components/index.js</title>
<path fill="none" stroke="#c6c5fe" d="M827.333,-276.871C827.333,-276.871 539.667,-276.871 539.667,-276.871 535.833,-276.871 532,-273.038 532,-269.205 532,-269.205 532,-261.538 532,-261.538 532,-257.705 535.833,-253.871 539.667,-253.871 539.667,-253.871 827.333,-253.871 827.333,-253.871 831.167,-253.871 835,-257.705 835,-261.538 835,-261.538 835,-269.205 835,-269.205 835,-273.038 831.167,-276.871 827.333,-276.871"/>
<text text-anchor="middle" x="683.5" y="-261.671" font-family="Arial" font-size="14.00" fill="#c6c5fe">src/screens/AuthScreen/components/index.js</text>
</g>
<!-- src/screens/AuthScreen/SignInScreen.js&#45;&gt;src/screens/AuthScreen/components/index.js -->
<g id="edge17" class="edge"><title>src/screens/AuthScreen/SignInScreen.js&#45;&gt;src/screens/AuthScreen/components/index.js</title>
<path fill="none" stroke="#757575" d="M493.446,-265.371C502.771,-265.371 512.216,-265.371 521.653,-265.371"/>
<polygon fill="#757575" stroke="#757575" points="521.885,-268.872 531.885,-265.371 521.885,-261.872 521.885,-268.872"/>
</g>
<!-- src/core/forms/index.js -->
<g id="node14" class="node"><title>src/core/forms/index.js</title>
<path fill="none" stroke="#c6c5fe" d="M1821.83,-188.871C1821.83,-188.871 1676.17,-188.871 1676.17,-188.871 1672.33,-188.871 1668.5,-185.038 1668.5,-181.205 1668.5,-181.205 1668.5,-173.538 1668.5,-173.538 1668.5,-169.705 1672.33,-165.871 1676.17,-165.871 1676.17,-165.871 1821.83,-165.871 1821.83,-165.871 1825.67,-165.871 1829.5,-169.705 1829.5,-173.538 1829.5,-173.538 1829.5,-181.205 1829.5,-181.205 1829.5,-185.038 1825.67,-188.871 1821.83,-188.871"/>
<text text-anchor="middle" x="1749" y="-173.671" font-family="Arial" font-size="14.00" fill="#c6c5fe">src/core/forms/index.js</text>
</g>
<!-- src/screens/AuthScreen/SignUpScreen.js&#45;&gt;src/core/forms/index.js -->
<g id="edge18" class="edge"><title>src/screens/AuthScreen/SignUpScreen.js&#45;&gt;src/core/forms/index.js</title>
<path fill="none" stroke="#757575" d="M496.23,-219.682C780.361,-210.078 1421.6,-188.404 1658.15,-180.409"/>
<polygon fill="#757575" stroke="#757575" points="1658.55,-183.897 1668.43,-180.061 1658.31,-176.901 1658.55,-183.897"/>
</g>
<!-- src/screens/AuthScreen/SignUpScreen.js&#45;&gt;src/screens/AuthScreen/components/index.js -->
<g id="edge19" class="edge"><title>src/screens/AuthScreen/SignUpScreen.js&#45;&gt;src/screens/AuthScreen/components/index.js</title>
<path fill="none" stroke="#757575" d="M448.896,-235.901C490.089,-241.098 538.877,-247.253 581.185,-252.59"/>
<polygon fill="#757575" stroke="#757575" points="580.868,-256.078 591.228,-253.857 581.745,-249.133 580.868,-256.078"/>
</g>
<!-- src/screens/CreateScreen/CreateScreen.js -->
<g id="node20" class="node"><title>src/screens/CreateScreen/CreateScreen.js</title>
<path fill="none" stroke="#c6c5fe" d="M820.833,-88.8715C820.833,-88.8715 546.167,-88.8715 546.167,-88.8715 542.333,-88.8715 538.5,-85.0381 538.5,-81.2048 538.5,-81.2048 538.5,-73.5381 538.5,-73.5381 538.5,-69.7048 542.333,-65.8715 546.167,-65.8715 546.167,-65.8715 820.833,-65.8715 820.833,-65.8715 824.667,-65.8715 828.5,-69.7048 828.5,-73.5381 828.5,-73.5381 828.5,-81.2048 828.5,-81.2048 828.5,-85.0381 824.667,-88.8715 820.833,-88.8715"/>
<text text-anchor="middle" x="683.5" y="-73.6715" font-family="Arial" font-size="14.00" fill="#c6c5fe">src/screens/CreateScreen/CreateScreen.js</text>
</g>
<!-- src/screens/CreateScreen/index.js&#45;&gt;src/screens/CreateScreen/CreateScreen.js -->
<g id="edge30" class="edge"><title>src/screens/CreateScreen/index.js&#45;&gt;src/screens/CreateScreen/CreateScreen.js</title>
<path fill="none" stroke="#757575" d="M474.373,-95.9428C496.725,-93.9483 520.33,-91.842 543.301,-89.7923"/>
<polygon fill="#757575" stroke="#757575" points="543.801,-93.2617 553.451,-88.8866 543.179,-86.2894 543.801,-93.2617"/>
</g>
<!-- src/screens/EditScreen/EditScreen.js -->
<g id="node23" class="node"><title>src/screens/EditScreen/EditScreen.js</title>
<path fill="none" stroke="#c6c5fe" d="M1159.33,-168.871C1159.33,-168.871 920.667,-168.871 920.667,-168.871 916.833,-168.871 913,-165.038 913,-161.205 913,-161.205 913,-153.538 913,-153.538 913,-149.705 916.833,-145.871 920.667,-145.871 920.667,-145.871 1159.33,-145.871 1159.33,-145.871 1163.17,-145.871 1167,-149.705 1167,-153.538 1167,-153.538 1167,-161.205 1167,-161.205 1167,-165.038 1163.17,-168.871 1159.33,-168.871"/>
<text text-anchor="middle" x="1040" y="-153.671" font-family="Arial" font-size="14.00" fill="#c6c5fe">src/screens/EditScreen/EditScreen.js</text>
</g>
<!-- src/screens/EditScreen/index.js&#45;&gt;src/screens/EditScreen/EditScreen.js -->
<g id="edge34" class="edge"><title>src/screens/EditScreen/index.js&#45;&gt;src/screens/EditScreen/EditScreen.js</title>
<path fill="none" stroke="#757575" d="M465.11,-172.529C583.432,-169.404 773.807,-164.376 902.531,-160.976"/>
<polygon fill="#757575" stroke="#757575" points="902.947,-164.466 912.851,-160.703 902.762,-157.469 902.947,-164.466"/>
</g>
<!-- src/screens/ListScreen/ListScreen.js -->
<g id="node25" class="node"><title>src/screens/ListScreen/ListScreen.js</title>
<path fill="none" stroke="#c6c5fe" d="M800.333,-365.871C800.333,-365.871 566.667,-365.871 566.667,-365.871 562.833,-365.871 559,-362.038 559,-358.205 559,-358.205 559,-350.538 559,-350.538 559,-346.705 562.833,-342.871 566.667,-342.871 566.667,-342.871 800.333,-342.871 800.333,-342.871 804.167,-342.871 808,-346.705 808,-350.538 808,-350.538 808,-358.205 808,-358.205 808,-362.038 804.167,-365.871 800.333,-365.871"/>
<text text-anchor="middle" x="683.5" y="-350.671" font-family="Arial" font-size="14.00" fill="#c6c5fe">src/screens/ListScreen/ListScreen.js</text>
</g>
<!-- src/screens/ListScreen/index.js&#45;&gt;src/screens/ListScreen/ListScreen.js -->
<g id="edge38" class="edge"><title>src/screens/ListScreen/index.js&#45;&gt;src/screens/ListScreen/ListScreen.js</title>
<path fill="none" stroke="#757575" d="M435.759,-317.93C483.555,-324.989 544.791,-334.033 594.3,-341.345"/>
<polygon fill="#757575" stroke="#757575" points="593.953,-344.832 604.357,-342.83 594.976,-337.907 593.953,-344.832"/>
</g>
<!-- src/core/forms/Field.js -->
<g id="node11" class="node"><title>src/core/forms/Field.js</title>
<path fill="none" stroke="#c6c5fe" d="M2087.83,-209.871C2087.83,-209.871 1945.17,-209.871 1945.17,-209.871 1941.33,-209.871 1937.5,-206.038 1937.5,-202.205 1937.5,-202.205 1937.5,-194.538 1937.5,-194.538 1937.5,-190.705 1941.33,-186.871 1945.17,-186.871 1945.17,-186.871 2087.83,-186.871 2087.83,-186.871 2091.67,-186.871 2095.5,-190.705 2095.5,-194.538 2095.5,-194.538 2095.5,-202.205 2095.5,-202.205 2095.5,-206.038 2091.67,-209.871 2087.83,-209.871"/>
<text text-anchor="middle" x="2016.5" y="-194.671" font-family="Arial" font-size="14.00" fill="#c6c5fe">src/core/forms/Field.js</text>
</g>
<!-- src/core/forms/Form.js -->
<g id="node12" class="node"><title>src/core/forms/Form.js</title>
<path fill="none" stroke="#cfffac" d="M2325.33,-209.871C2325.33,-209.871 2179.67,-209.871 2179.67,-209.871 2175.83,-209.871 2172,-206.038 2172,-202.205 2172,-202.205 2172,-194.538 2172,-194.538 2172,-190.705 2175.83,-186.871 2179.67,-186.871 2179.67,-186.871 2325.33,-186.871 2325.33,-186.871 2329.17,-186.871 2333,-190.705 2333,-194.538 2333,-194.538 2333,-202.205 2333,-202.205 2333,-206.038 2329.17,-209.871 2325.33,-209.871"/>
<text text-anchor="middle" x="2252.5" y="-194.671" font-family="Arial" font-size="14.00" fill="#cfffac">src/core/forms/Form.js</text>
</g>
<!-- src/core/forms/Field.js&#45;&gt;src/core/forms/Form.js -->
<g id="edge10" class="edge"><title>src/core/forms/Field.js&#45;&gt;src/core/forms/Form.js</title>
<path fill="none" stroke="#757575" d="M2095.74,-198.371C2116.85,-198.371 2139.85,-198.371 2161.54,-198.371"/>
<polygon fill="#757575" stroke="#757575" points="2161.73,-201.872 2171.73,-198.371 2161.73,-194.872 2161.73,-201.872"/>
</g>
<!-- src/core/forms/ImagePickerField.js -->
<g id="node13" class="node"><title>src/core/forms/ImagePickerField.js</title>
<path fill="none" stroke="#c6c5fe" d="M2128.33,-168.871C2128.33,-168.871 1904.67,-168.871 1904.67,-168.871 1900.83,-168.871 1897,-165.038 1897,-161.205 1897,-161.205 1897,-153.538 1897,-153.538 1897,-149.705 1900.83,-145.871 1904.67,-145.871 1904.67,-145.871 2128.33,-145.871 2128.33,-145.871 2132.17,-145.871 2136,-149.705 2136,-153.538 2136,-153.538 2136,-161.205 2136,-161.205 2136,-165.038 2132.17,-168.871 2128.33,-168.871"/>
<text text-anchor="middle" x="2016.5" y="-153.671" font-family="Arial" font-size="14.00" fill="#c6c5fe">src/core/forms/ImagePickerField.js</text>
</g>
<!-- src/core/forms/ImagePickerField.js&#45;&gt;src/core/forms/Form.js -->
<g id="edge11" class="edge"><title>src/core/forms/ImagePickerField.js&#45;&gt;src/core/forms/Form.js</title>
<path fill="none" stroke="#757575" d="M2086.77,-168.91C2102.93,-171.645 2120.07,-174.58 2136,-177.371 2149.81,-179.792 2164.54,-182.429 2178.7,-184.99"/>
<polygon fill="#757575" stroke="#757575" points="2178.42,-188.497 2188.89,-186.838 2179.67,-181.609 2178.42,-188.497"/>
</g>
<!-- src/core/forms/index.js&#45;&gt;src/core/forms/Field.js -->
<g id="edge12" class="edge"><title>src/core/forms/index.js&#45;&gt;src/core/forms/Field.js</title>
<path fill="none" stroke="#757575" d="M1829.66,-183.672C1860.39,-186.103 1895.68,-188.894 1927.18,-191.386"/>
<polygon fill="#757575" stroke="#757575" points="1927.02,-194.884 1937.27,-192.184 1927.58,-187.906 1927.02,-194.884"/>
</g>
<!-- src/core/forms/index.js&#45;&gt;src/core/forms/Form.js -->
<g id="edge13" class="edge"><title>src/core/forms/index.js&#45;&gt;src/core/forms/Form.js</title>
<path fill="none" stroke="#757575" d="M1781.59,-188.881C1811.01,-198.948 1856.31,-212.804 1897,-218.371 2002.24,-232.773 2030.17,-227.467 2136,-218.371 2152.37,-216.965 2169.9,-214.456 2186.24,-211.68"/>
<polygon fill="#757575" stroke="#757575" points="2186.99,-215.101 2196.23,-209.924 2185.78,-208.207 2186.99,-215.101"/>
</g>
<!-- src/core/forms/index.js&#45;&gt;src/core/forms/ImagePickerField.js -->
<g id="edge14" class="edge"><title>src/core/forms/index.js&#45;&gt;src/core/forms/ImagePickerField.js</title>
<path fill="none" stroke="#757575" d="M1829.66,-171.371C1847.61,-170.019 1867.11,-168.55 1886.5,-167.089"/>
<polygon fill="#757575" stroke="#757575" points="1886.92,-170.568 1896.63,-166.326 1886.39,-163.587 1886.92,-170.568"/>
</g>
<!-- src/core/forms/toFormErrors.js -->
<g id="node15" class="node"><title>src/core/forms/toFormErrors.js</title>
<path fill="none" stroke="#cfffac" d="M2114.83,-127.871C2114.83,-127.871 1918.17,-127.871 1918.17,-127.871 1914.33,-127.871 1910.5,-124.038 1910.5,-120.205 1910.5,-120.205 1910.5,-112.538 1910.5,-112.538 1910.5,-108.705 1914.33,-104.871 1918.17,-104.871 1918.17,-104.871 2114.83,-104.871 2114.83,-104.871 2118.67,-104.871 2122.5,-108.705 2122.5,-112.538 2122.5,-112.538 2122.5,-120.205 2122.5,-120.205 2122.5,-124.038 2118.67,-127.871 2114.83,-127.871"/>
<text text-anchor="middle" x="2016.5" y="-112.671" font-family="Arial" font-size="14.00" fill="#cfffac">src/core/forms/toFormErrors.js</text>
</g>
<!-- src/core/forms/index.js&#45;&gt;src/core/forms/toFormErrors.js -->
<g id="edge15" class="edge"><title>src/core/forms/index.js&#45;&gt;src/core/forms/toFormErrors.js</title>
<path fill="none" stroke="#757575" d="M1787.19,-165.835C1816.74,-156.949 1859.25,-144.798 1897,-136.371 1907.6,-134.005 1918.79,-131.774 1929.89,-129.721"/>
<polygon fill="#757575" stroke="#757575" points="1930.83,-133.11 1940.04,-127.887 1929.58,-126.221 1930.83,-133.11"/>
</g>
<!-- src/services/withAuthentication.js -->
<g id="node28" class="node"><title>src/services/withAuthentication.js</title>
<path fill="none" stroke="#cfffac" d="M1853.33,-407.871C1853.33,-407.871 1644.67,-407.871 1644.67,-407.871 1640.83,-407.871 1637,-404.038 1637,-400.205 1637,-400.205 1637,-392.538 1637,-392.538 1637,-388.705 1640.83,-384.871 1644.67,-384.871 1644.67,-384.871 1853.33,-384.871 1853.33,-384.871 1857.17,-384.871 1861,-388.705 1861,-392.538 1861,-392.538 1861,-400.205 1861,-400.205 1861,-404.038 1857.17,-407.871 1853.33,-407.871"/>
<text text-anchor="middle" x="1749" y="-392.671" font-family="Arial" font-size="14.00" fill="#cfffac">src/services/withAuthentication.js</text>
</g>
<!-- src/services/index.js&#45;&gt;src/services/withAuthentication.js -->
<g id="edge39" class="edge"><title>src/services/index.js&#45;&gt;src/services/withAuthentication.js</title>
<path fill="none" stroke="#757575" d="M1495.5,-396.371C1533.97,-396.371 1582.46,-396.371 1626.64,-396.371"/>
<polygon fill="#757575" stroke="#757575" points="1626.88,-399.872 1636.88,-396.371 1626.88,-392.872 1626.88,-399.872"/>
</g>
<!-- src/screens/AuthScreen/components/index.js&#45;&gt;src/core/forms/index.js -->
<g id="edge23" class="edge"><title>src/screens/AuthScreen/components/index.js&#45;&gt;src/core/forms/index.js</title>
<path fill="none" stroke="#757575" d="M835.303,-264.25C1017.58,-261.11 1333.2,-249.95 1601,-211.371 1633.1,-206.748 1668.53,-198.645 1696.56,-191.509"/>
<polygon fill="#757575" stroke="#757575" points="1697.73,-194.823 1706.53,-188.932 1695.98,-188.045 1697.73,-194.823"/>
</g>
<!-- src/screens/AuthScreen/components/SignButton.js -->
<g id="node18" class="node"><title>src/screens/AuthScreen/components/SignButton.js</title>
<path fill="none" stroke="#c6c5fe" d="M1201.33,-324.871C1201.33,-324.871 878.667,-324.871 878.667,-324.871 874.833,-324.871 871,-321.038 871,-317.205 871,-317.205 871,-309.538 871,-309.538 871,-305.705 874.833,-301.871 878.667,-301.871 878.667,-301.871 1201.33,-301.871 1201.33,-301.871 1205.17,-301.871 1209,-305.705 1209,-309.538 1209,-309.538 1209,-317.205 1209,-317.205 1209,-321.038 1205.17,-324.871 1201.33,-324.871"/>
<text text-anchor="middle" x="1040" y="-309.671" font-family="Arial" font-size="14.00" fill="#c6c5fe">src/screens/AuthScreen/components/SignButton.js</text>
</g>
<!-- src/screens/AuthScreen/components/index.js&#45;&gt;src/screens/AuthScreen/components/SignButton.js -->
<g id="edge24" class="edge"><title>src/screens/AuthScreen/components/index.js&#45;&gt;src/screens/AuthScreen/components/SignButton.js</title>
<path fill="none" stroke="#757575" d="M769.863,-276.93C822.324,-284.033 889.628,-293.146 943.807,-300.482"/>
<polygon fill="#757575" stroke="#757575" points="943.385,-303.957 953.764,-301.83 944.324,-297.02 943.385,-303.957"/>
</g>
<!-- src/screens/AuthScreen/components/SignForm.js -->
<g id="node19" class="node"><title>src/screens/AuthScreen/components/SignForm.js</title>
<path fill="none" stroke="#c6c5fe" d="M1581.33,-286.871C1581.33,-286.871 1264.67,-286.871 1264.67,-286.871 1260.83,-286.871 1257,-283.038 1257,-279.205 1257,-279.205 1257,-271.538 1257,-271.538 1257,-267.705 1260.83,-263.871 1264.67,-263.871 1264.67,-263.871 1581.33,-263.871 1581.33,-263.871 1585.17,-263.871 1589,-267.705 1589,-271.538 1589,-271.538 1589,-279.205 1589,-279.205 1589,-283.038 1585.17,-286.871 1581.33,-286.871"/>
<text text-anchor="middle" x="1423" y="-271.671" font-family="Arial" font-size="14.00" fill="#c6c5fe">src/screens/AuthScreen/components/SignForm.js</text>
</g>
<!-- src/screens/AuthScreen/components/index.js&#45;&gt;src/screens/AuthScreen/components/SignForm.js -->
<g id="edge25" class="edge"><title>src/screens/AuthScreen/components/index.js&#45;&gt;src/screens/AuthScreen/components/SignForm.js</title>
<path fill="none" stroke="#757575" d="M835.078,-267.413C954.441,-269.032 1121.43,-271.296 1246.78,-272.996"/>
<polygon fill="#757575" stroke="#757575" points="1246.82,-276.496 1256.87,-273.132 1246.92,-269.497 1246.82,-276.496"/>
</g>
<!-- src/screens/AuthScreen/components/SignButton.js&#45;&gt;src/core/forms/index.js -->
<g id="edge20" class="edge"><title>src/screens/AuthScreen/components/SignButton.js&#45;&gt;src/core/forms/index.js</title>
<path fill="none" stroke="#757575" d="M1209.18,-319.578C1347.55,-322.551 1531.72,-320.996 1601,-295.371 1656.35,-274.898 1706.67,-224.71 1731.58,-196.834"/>
<polygon fill="#757575" stroke="#757575" points="1734.52,-198.787 1738.47,-188.956 1729.25,-194.178 1734.52,-198.787"/>
</g>
<!-- src/screens/AuthScreen/components/SignButton.js&#45;&gt;src/services/index.js -->
<g id="edge21" class="edge"><title>src/screens/AuthScreen/components/SignButton.js&#45;&gt;src/services/index.js</title>
<path fill="none" stroke="#757575" d="M1190.36,-325.01C1196.8,-327.419 1203.04,-330.19 1209,-333.371 1230.69,-344.949 1223.31,-363.798 1245,-375.371 1273.82,-390.75 1308.98,-397.016 1340.34,-399.07"/>
<polygon fill="#757575" stroke="#757575" points="1340.2,-402.568 1350.37,-399.595 1340.57,-395.577 1340.2,-402.568"/>
</g>
<!-- src/screens/AuthScreen/components/SignForm.js&#45;&gt;src/core/forms/index.js -->
<g id="edge22" class="edge"><title>src/screens/AuthScreen/components/SignForm.js&#45;&gt;src/core/forms/index.js</title>
<path fill="none" stroke="#757575" d="M1538.47,-263.859C1559.53,-260.252 1581.12,-255.534 1601,-249.371 1644.84,-235.779 1691.88,-210.676 1720.63,-193.999"/>
<polygon fill="#757575" stroke="#757575" points="1722.44,-196.991 1729.29,-188.906 1718.9,-190.957 1722.44,-196.991"/>
</g>
<!-- src/screens/CreateScreen/CreateScreen.js&#45;&gt;src/core/forms/index.js -->
<g id="edge26" class="edge"><title>src/screens/CreateScreen/CreateScreen.js&#45;&gt;src/core/forms/index.js</title>
<path fill="none" stroke="#757575" d="M727.319,-65.8689C861.314,-32.0406 1282.65,57.8 1601,-56.3715 1657.64,-76.6834 1708.05,-129.288 1732.46,-157.991"/>
<polygon fill="#757575" stroke="#757575" points="1729.82,-160.291 1738.91,-165.738 1735.2,-155.813 1729.82,-160.291"/>
</g>
<!-- src/screens/CreateScreen/components/index.js -->
<g id="node21" class="node"><title>src/screens/CreateScreen/components/index.js</title>
<path fill="none" stroke="#c6c5fe" d="M1190.83,-88.8715C1190.83,-88.8715 889.167,-88.8715 889.167,-88.8715 885.333,-88.8715 881.5,-85.0381 881.5,-81.2048 881.5,-81.2048 881.5,-73.5381 881.5,-73.5381 881.5,-69.7048 885.333,-65.8715 889.167,-65.8715 889.167,-65.8715 1190.83,-65.8715 1190.83,-65.8715 1194.67,-65.8715 1198.5,-69.7048 1198.5,-73.5381 1198.5,-73.5381 1198.5,-81.2048 1198.5,-81.2048 1198.5,-85.0381 1194.67,-88.8715 1190.83,-88.8715"/>
<text text-anchor="middle" x="1040" y="-73.6715" font-family="Arial" font-size="14.00" fill="#c6c5fe">src/screens/CreateScreen/components/index.js</text>
</g>
<!-- src/screens/CreateScreen/CreateScreen.js&#45;&gt;src/screens/CreateScreen/components/index.js -->
<g id="edge27" class="edge"><title>src/screens/CreateScreen/CreateScreen.js&#45;&gt;src/screens/CreateScreen/components/index.js</title>
<path fill="none" stroke="#757575" d="M828.689,-77.3715C842.648,-77.3715 856.892,-77.3715 871.056,-77.3715"/>
<polygon fill="#757575" stroke="#757575" points="871.35,-80.8716 881.35,-77.3715 871.35,-73.8716 871.35,-80.8716"/>
</g>
<!-- src/screens/CreateScreen/components/SaveButton.js -->
<g id="node22" class="node"><title>src/screens/CreateScreen/components/SaveButton.js</title>
<path fill="none" stroke="#c6c5fe" d="M1593.33,-88.8715C1593.33,-88.8715 1252.67,-88.8715 1252.67,-88.8715 1248.83,-88.8715 1245,-85.0381 1245,-81.2048 1245,-81.2048 1245,-73.5381 1245,-73.5381 1245,-69.7048 1248.83,-65.8715 1252.67,-65.8715 1252.67,-65.8715 1593.33,-65.8715 1593.33,-65.8715 1597.17,-65.8715 1601,-69.7048 1601,-73.5381 1601,-73.5381 1601,-81.2048 1601,-81.2048 1601,-85.0381 1597.17,-88.8715 1593.33,-88.8715"/>
<text text-anchor="middle" x="1423" y="-73.6715" font-family="Arial" font-size="14.00" fill="#c6c5fe">src/screens/CreateScreen/components/SaveButton.js</text>
</g>
<!-- src/screens/CreateScreen/components/index.js&#45;&gt;src/screens/CreateScreen/components/SaveButton.js -->
<g id="edge29" class="edge"><title>src/screens/CreateScreen/components/index.js&#45;&gt;src/screens/CreateScreen/components/SaveButton.js</title>
<path fill="none" stroke="#757575" d="M1198.72,-77.3715C1210.63,-77.3715 1222.72,-77.3715 1234.8,-77.3715"/>
<polygon fill="#757575" stroke="#757575" points="1234.93,-80.8716 1244.93,-77.3715 1234.93,-73.8716 1234.93,-80.8716"/>
</g>
<!-- src/screens/CreateScreen/components/SaveButton.js&#45;&gt;src/core/forms/index.js -->
<g id="edge28" class="edge"><title>src/screens/CreateScreen/components/SaveButton.js&#45;&gt;src/core/forms/index.js</title>
<path fill="none" stroke="#757575" d="M1539.94,-88.952C1560.54,-92.5454 1581.6,-97.2409 1601,-103.371 1645.25,-117.356 1692.52,-143.383 1721.17,-160.543"/>
<polygon fill="#757575" stroke="#757575" points="1719.43,-163.578 1729.79,-165.776 1723.06,-157.594 1719.43,-163.578"/>
</g>
<!-- src/screens/EditScreen/EditScreen.js&#45;&gt;src/core/forms/index.js -->
<g id="edge31" class="edge"><title>src/screens/EditScreen/EditScreen.js&#45;&gt;src/core/forms/index.js</title>
<path fill="none" stroke="#757575" d="M1120.25,-145.818C1229.14,-131.894 1430.87,-113.09 1601,-136.371 1637.4,-141.352 1677.49,-152.965 1706.6,-162.564"/>
<polygon fill="#757575" stroke="#757575" points="1705.82,-165.994 1716.41,-165.862 1708.05,-159.359 1705.82,-165.994"/>
</g>
<!-- src/screens/EditScreen/components/SaveButton.js -->
<g id="node24" class="node"><title>src/screens/EditScreen/components/SaveButton.js</title>
<path fill="none" stroke="#c6c5fe" d="M1584.33,-168.871C1584.33,-168.871 1261.67,-168.871 1261.67,-168.871 1257.83,-168.871 1254,-165.038 1254,-161.205 1254,-161.205 1254,-153.538 1254,-153.538 1254,-149.705 1257.83,-145.871 1261.67,-145.871 1261.67,-145.871 1584.33,-145.871 1584.33,-145.871 1588.17,-145.871 1592,-149.705 1592,-153.538 1592,-153.538 1592,-161.205 1592,-161.205 1592,-165.038 1588.17,-168.871 1584.33,-168.871"/>
<text text-anchor="middle" x="1423" y="-153.671" font-family="Arial" font-size="14.00" fill="#c6c5fe">src/screens/EditScreen/components/SaveButton.js</text>
</g>
<!-- src/screens/EditScreen/EditScreen.js&#45;&gt;src/screens/EditScreen/components/SaveButton.js -->
<g id="edge32" class="edge"><title>src/screens/EditScreen/EditScreen.js&#45;&gt;src/screens/EditScreen/components/SaveButton.js</title>
<path fill="none" stroke="#757575" d="M1167.07,-157.371C1191.56,-157.371 1217.65,-157.371 1243.45,-157.371"/>
<polygon fill="#757575" stroke="#757575" points="1243.71,-160.872 1253.71,-157.371 1243.71,-153.872 1243.71,-160.872"/>
</g>
<!-- src/screens/EditScreen/components/SaveButton.js&#45;&gt;src/core/forms/index.js -->
<g id="edge33" class="edge"><title>src/screens/EditScreen/components/SaveButton.js&#45;&gt;src/core/forms/index.js</title>
<path fill="none" stroke="#757575" d="M1592.17,-167.752C1614.84,-169.152 1637.35,-170.541 1657.92,-171.811"/>
<polygon fill="#757575" stroke="#757575" points="1657.98,-175.321 1668.17,-172.444 1658.41,-168.334 1657.98,-175.321"/>
</g>
<!-- src/screens/ListScreen/ListScreen.js&#45;&gt;src/services/index.js -->
<g id="edge36" class="edge"><title>src/screens/ListScreen/ListScreen.js&#45;&gt;src/services/index.js</title>
<path fill="none" stroke="#757575" d="M780.225,-365.879C809.338,-369.044 841.446,-372.199 871,-374.371 1037.26,-386.592 1232.27,-392.366 1340,-394.81"/>
<polygon fill="#757575" stroke="#757575" points="1340.07,-398.312 1350.15,-395.036 1340.23,-391.314 1340.07,-398.312"/>
</g>
<!-- src/screens/ListScreen/components/index.js -->
<g id="node26" class="node"><title>src/screens/ListScreen/components/index.js</title>
<path fill="none" stroke="#c6c5fe" d="M1180.83,-365.871C1180.83,-365.871 899.167,-365.871 899.167,-365.871 895.333,-365.871 891.5,-362.038 891.5,-358.205 891.5,-358.205 891.5,-350.538 891.5,-350.538 891.5,-346.705 895.333,-342.871 899.167,-342.871 899.167,-342.871 1180.83,-342.871 1180.83,-342.871 1184.67,-342.871 1188.5,-346.705 1188.5,-350.538 1188.5,-350.538 1188.5,-358.205 1188.5,-358.205 1188.5,-362.038 1184.67,-365.871 1180.83,-365.871"/>
<text text-anchor="middle" x="1040" y="-350.671" font-family="Arial" font-size="14.00" fill="#c6c5fe">src/screens/ListScreen/components/index.js</text>
</g>
<!-- src/screens/ListScreen/ListScreen.js&#45;&gt;src/screens/ListScreen/components/index.js -->
<g id="edge35" class="edge"><title>src/screens/ListScreen/ListScreen.js&#45;&gt;src/screens/ListScreen/components/index.js</title>
<path fill="none" stroke="#757575" d="M808.487,-354.371C832.002,-354.371 856.896,-354.371 881.29,-354.371"/>
<polygon fill="#757575" stroke="#757575" points="881.339,-357.872 891.339,-354.371 881.339,-350.872 881.339,-357.872"/>
</g>
<!-- src/screens/ListScreen/components/ProductItem.js -->
<g id="node27" class="node"><title>src/screens/ListScreen/components/ProductItem.js</title>
<path fill="none" stroke="#cfffac" d="M1585.83,-366.871C1585.83,-366.871 1260.17,-366.871 1260.17,-366.871 1256.33,-366.871 1252.5,-363.038 1252.5,-359.205 1252.5,-359.205 1252.5,-351.538 1252.5,-351.538 1252.5,-347.705 1256.33,-343.871 1260.17,-343.871 1260.17,-343.871 1585.83,-343.871 1585.83,-343.871 1589.67,-343.871 1593.5,-347.705 1593.5,-351.538 1593.5,-351.538 1593.5,-359.205 1593.5,-359.205 1593.5,-363.038 1589.67,-366.871 1585.83,-366.871"/>
<text text-anchor="middle" x="1423" y="-351.671" font-family="Arial" font-size="14.00" fill="#cfffac">src/screens/ListScreen/components/ProductItem.js</text>
</g>
<!-- src/screens/ListScreen/components/index.js&#45;&gt;src/screens/ListScreen/components/ProductItem.js -->
<g id="edge37" class="edge"><title>src/screens/ListScreen/components/index.js&#45;&gt;src/screens/ListScreen/components/ProductItem.js</title>
<path fill="none" stroke="#757575" d="M1188.58,-354.759C1206.24,-354.805 1224.41,-354.853 1242.46,-354.9"/>
<polygon fill="#757575" stroke="#757575" points="1242.46,-358.4 1252.47,-354.926 1242.48,-351.4 1242.46,-358.4"/>
</g>
</g>
</svg>
