<?xml version="1.0" encoding="UTF-8" standalone="no"?>
<!DOCTYPE svg PUBLIC "-//W3C//DTD SVG 1.1//EN"
 "http://www.w3.org/Graphics/SVG/1.1/DTD/svg11.dtd">
<!-- Generated by graphviz version 2.38.0 (20140413.2041)
 -->
<!-- Title: G Pages: 1 -->
<svg width="2376pt" height="449pt"
 viewBox="0.00 0.00 2376.20 449.07" xmlns="http://www.w3.org/2000/svg" xmlns:xlink="http://www.w3.org/1999/xlink">
<g id="graph0" class="graph" transform="scale(1 1) rotate(0) translate(21.6 427.471)">
<title>G</title>
<polygon fill="#111111" stroke="none" points="-21.6,21.6 -21.6,-427.471 2354.6,-427.471 2354.6,21.6 -21.6,21.6"/>
<!-- app.json -->
<g id="node1" class="node"><title>app.json</title>
<path fill="none" stroke="#cfffac" d="M168.833,-305.871C168.833,-305.871 113.167,-305.871 113.167,-305.871 109.333,-305.871 105.5,-302.038 105.5,-298.205 105.5,-298.205 105.5,-290.538 105.5,-290.538 105.5,-286.705 109.333,-282.871 113.167,-282.871 113.167,-282.871 168.833,-282.871 168.833,-282.871 172.667,-282.871 176.5,-286.705 176.5,-290.538 176.5,-290.538 176.5,-298.205 176.5,-298.205 176.5,-302.038 172.667,-305.871 168.833,-305.871"/>
<text text-anchor="middle" x="141" y="-290.671" font-family="Arial" font-size="14.00" fill="#cfffac">app.json</text>
</g>
<!-- index.js -->
<g id="node2" class="node"><title>index.js</title>
<path fill="none" stroke="#c6c5fe" d="M57.3333,-284.871C57.3333,-284.871 7.66667,-284.871 7.66667,-284.871 3.83333,-284.871 0,-281.038 0,-277.205 0,-277.205 0,-269.538 0,-269.538 0,-265.705 3.83333,-261.871 7.66667,-261.871 7.66667,-261.871 57.3333,-261.871 57.3333,-261.871 61.1667,-261.871 65,-265.705 65,-269.538 65,-269.538 65,-277.205 65,-277.205 65,-281.038 61.1667,-284.871 57.3333,-284.871"/>
<text text-anchor="middle" x="32.5" y="-269.671" font-family="Arial" font-size="14.00" fill="#c6c5fe">index.js</text>
</g>
<!-- index.js&#45;&gt;app.json -->
<g id="edge1" class="edge"><title>index.js&#45;&gt;app.json</title>
<path fill="none" stroke="#757575" d="M65.1652,-279.615C74.6383,-281.483 85.2086,-283.568 95.3512,-285.567"/>
<polygon fill="#757575" stroke="#757575" points="94.8066,-289.027 105.295,-287.528 96.1609,-282.16 94.8066,-289.027"/>
</g>
<!-- src/App.js -->
<g id="node3" class="node"><title>src/App.js</title>
<path fill="none" stroke="#c6c5fe" d="M173.333,-264.871C173.333,-264.871 108.667,-264.871 108.667,-264.871 104.833,-264.871 101,-261.038 101,-257.205 101,-257.205 101,-249.538 101,-249.538 101,-245.705 104.833,-241.871 108.667,-241.871 108.667,-241.871 173.333,-241.871 173.333,-241.871 177.167,-241.871 181,-245.705 181,-249.538 181,-249.538 181,-257.205 181,-257.205 181,-261.038 177.167,-264.871 173.333,-264.871"/>
<text text-anchor="middle" x="141" y="-249.671" font-family="Arial" font-size="14.00" fill="#c6c5fe">src/App.js</text>
</g>
<!-- index.js&#45;&gt;src/App.js -->
<g id="edge2" class="edge"><title>index.js&#45;&gt;src/App.js</title>
<path fill="none" stroke="#757575" d="M65.1652,-267.425C73.1859,-265.919 81.9932,-264.265 90.6614,-262.637"/>
<polygon fill="#757575" stroke="#757575" points="91.5358,-266.034 100.718,-260.748 90.2437,-259.154 91.5358,-266.034"/>
</g>
<!-- src/components/ApolloProvider.js -->
<g id="node4" class="node"><title>src/components/ApolloProvider.js</title>
<path fill="none" stroke="#cfffac" d="M463.833,-382.871C463.833,-382.871 249.167,-382.871 249.167,-382.871 245.333,-382.871 241.5,-379.038 241.5,-375.205 241.5,-375.205 241.5,-367.538 241.5,-367.538 241.5,-363.705 245.333,-359.871 249.167,-359.871 249.167,-359.871 463.833,-359.871 463.833,-359.871 467.667,-359.871 471.5,-363.705 471.5,-367.538 471.5,-367.538 471.5,-375.205 471.5,-375.205 471.5,-379.038 467.667,-382.871 463.833,-382.871"/>
<text text-anchor="middle" x="356.5" y="-367.671" font-family="Arial" font-size="14.00" fill="#cfffac">src/components/ApolloProvider.js</text>
</g>
<!-- src/App.js&#45;&gt;src/components/ApolloProvider.js -->
<g id="edge3" class="edge"><title>src/App.js&#45;&gt;src/components/ApolloProvider.js</title>
<path fill="none" stroke="#757575" d="M169.929,-264.884C173.94,-267.304 177.788,-270.127 181,-273.371 206.169,-298.798 188.44,-323.824 217,-345.371 222.191,-349.288 227.797,-352.671 233.675,-355.59"/>
<polygon fill="#757575" stroke="#757575" points="232.559,-358.925 243.117,-359.804 235.412,-352.532 232.559,-358.925"/>
</g>
<!-- src/screens/AppScreen.js -->
<g id="node5" class="node"><title>src/screens/AppScreen.js</title>
<path fill="none" stroke="#c6c5fe" d="M766.333,-323.871C766.333,-323.871 600.667,-323.871 600.667,-323.871 596.833,-323.871 593,-320.038 593,-316.205 593,-316.205 593,-308.538 593,-308.538 593,-304.705 596.833,-300.871 600.667,-300.871 600.667,-300.871 766.333,-300.871 766.333,-300.871 770.167,-300.871 774,-304.705 774,-308.538 774,-308.538 774,-316.205 774,-316.205 774,-320.038 770.167,-323.871 766.333,-323.871"/>
<text text-anchor="middle" x="683.5" y="-308.671" font-family="Arial" font-size="14.00" fill="#c6c5fe">src/screens/AppScreen.js</text>
</g>
<!-- src/App.js&#45;&gt;src/screens/AppScreen.js -->
<g id="edge4" class="edge"><title>src/App.js&#45;&gt;src/screens/AppScreen.js</title>
<path fill="none" stroke="#757575" d="M180.25,-264.969C191.949,-268.137 204.918,-271.271 217,-273.371 341.889,-295.079 487.806,-304.818 582.516,-309.11"/>
<polygon fill="#757575" stroke="#757575" points="582.516,-312.614 592.661,-309.558 582.825,-305.621 582.516,-312.614"/>
</g>
<!-- src/screens/AuthScreen/SignInScreen.js -->
<g id="node6" class="node"><title>src/screens/AuthScreen/SignInScreen.js</title>
<path fill="none" stroke="#c6c5fe" d="M485.333,-264.871C485.333,-264.871 227.667,-264.871 227.667,-264.871 223.833,-264.871 220,-261.038 220,-257.205 220,-257.205 220,-249.538 220,-249.538 220,-245.705 223.833,-241.871 227.667,-241.871 227.667,-241.871 485.333,-241.871 485.333,-241.871 489.167,-241.871 493,-245.705 493,-249.538 493,-249.538 493,-257.205 493,-257.205 493,-261.038 489.167,-264.871 485.333,-264.871"/>
<text text-anchor="middle" x="356.5" y="-249.671" font-family="Arial" font-size="14.00" fill="#c6c5fe">src/screens/AuthScreen/SignInScreen.js</text>
</g>
<!-- src/App.js&#45;&gt;src/screens/AuthScreen/SignInScreen.js -->
<g id="edge5" class="edge"><title>src/App.js&#45;&gt;src/screens/AuthScreen/SignInScreen.js</title>
<path fill="none" stroke="#757575" d="M181.159,-253.371C189.736,-253.371 199.303,-253.371 209.416,-253.371"/>
<polygon fill="#757575" stroke="#757575" points="209.697,-256.872 219.697,-253.371 209.696,-249.872 209.697,-256.872"/>
</g>
<!-- src/screens/AuthScreen/SignUpScreen.js -->
<g id="node7" class="node"><title>src/screens/AuthScreen/SignUpScreen.js</title>
<path fill="none" stroke="#c6c5fe" d="M488.333,-223.871C488.333,-223.871 224.667,-223.871 224.667,-223.871 220.833,-223.871 217,-220.038 217,-216.205 217,-216.205 217,-208.538 217,-208.538 217,-204.705 220.833,-200.871 224.667,-200.871 224.667,-200.871 488.333,-200.871 488.333,-200.871 492.167,-200.871 496,-204.705 496,-208.538 496,-208.538 496,-216.205 496,-216.205 496,-220.038 492.167,-223.871 488.333,-223.871"/>
<text text-anchor="middle" x="356.5" y="-208.671" font-family="Arial" font-size="14.00" fill="#c6c5fe">src/screens/AuthScreen/SignUpScreen.js</text>
</g>
<!-- src/App.js&#45;&gt;src/screens/AuthScreen/SignUpScreen.js -->
<g id="edge6" class="edge"><title>src/App.js&#45;&gt;src/screens/AuthScreen/SignUpScreen.js</title>
<path fill="none" stroke="#757575" d="M179.534,-241.834C191.434,-238.453 204.696,-234.971 217,-232.371 228.91,-229.855 241.463,-227.558 253.952,-225.49"/>
<polygon fill="#757575" stroke="#757575" points="254.625,-228.927 263.941,-223.881 253.511,-222.016 254.625,-228.927"/>
</g>
<!-- src/screens/CreateScreen/index.js -->
<g id="node8" class="node"><title>src/screens/CreateScreen/index.js</title>
<path fill="none" stroke="#c6c5fe" d="M466.333,-113.871C466.333,-113.871 246.667,-113.871 246.667,-113.871 242.833,-113.871 239,-110.038 239,-106.205 239,-106.205 239,-98.5381 239,-98.5381 239,-94.7048 242.833,-90.8715 246.667,-90.8715 246.667,-90.8715 466.333,-90.8715 466.333,-90.8715 470.167,-90.8715 474,-94.7048 474,-98.5381 474,-98.5381 474,-106.205 474,-106.205 474,-110.038 470.167,-113.871 466.333,-113.871"/>
<text text-anchor="middle" x="356.5" y="-98.6715" font-family="Arial" font-size="14.00" fill="#c6c5fe">src/screens/CreateScreen/index.js</text>
</g>
<!-- src/App.js&#45;&gt;src/screens/CreateScreen/index.js -->
<g id="edge7" class="edge"><title>src/App.js&#45;&gt;src/screens/CreateScreen/index.js</title>
<path fill="none" stroke="#757575" d="M146.934,-241.7C156.881,-219.574 181.463,-171.414 217,-145.371 234.875,-132.272 256.831,-123.097 277.949,-116.697"/>
<polygon fill="#757575" stroke="#757575" points="278.921,-120.059 287.575,-113.947 276.998,-113.328 278.921,-120.059"/>
</g>
<!-- src/screens/EditScreen/index.js -->
<g id="node9" class="node"><title>src/screens/EditScreen/index.js</title>
<path fill="none" stroke="#c6c5fe" d="M457.333,-177.871C457.333,-177.871 255.667,-177.871 255.667,-177.871 251.833,-177.871 248,-174.038 248,-170.205 248,-170.205 248,-162.538 248,-162.538 248,-158.705 251.833,-154.871 255.667,-154.871 255.667,-154.871 457.333,-154.871 457.333,-154.871 461.167,-154.871 465,-158.705 465,-162.538 465,-162.538 465,-170.205 465,-170.205 465,-174.038 461.167,-177.871 457.333,-177.871"/>
<text text-anchor="middle" x="356.5" y="-162.671" font-family="Arial" font-size="14.00" fill="#c6c5fe">src/screens/EditScreen/index.js</text>
</g>
<!-- src/App.js&#45;&gt;src/screens/EditScreen/index.js -->
<g id="edge8" class="edge"><title>src/App.js&#45;&gt;src/screens/EditScreen/index.js</title>
<path fill="none" stroke="#757575" d="M152.413,-241.679C165.848,-227.39 190.645,-203.608 217,-191.371 226.237,-187.083 236.137,-183.528 246.24,-180.582"/>
<polygon fill="#757575" stroke="#757575" points="247.24,-183.937 255.974,-177.939 245.406,-177.181 247.24,-183.937"/>
</g>
<!-- src/screens/ListScreen/index.js -->
<g id="node10" class="node"><title>src/screens/ListScreen/index.js</title>
<path fill="none" stroke="#c6c5fe" d="M783.333,-401.871C783.333,-401.871 583.667,-401.871 583.667,-401.871 579.833,-401.871 576,-398.038 576,-394.205 576,-394.205 576,-386.538 576,-386.538 576,-382.705 579.833,-378.871 583.667,-378.871 583.667,-378.871 783.333,-378.871 783.333,-378.871 787.167,-378.871 791,-382.705 791,-386.538 791,-386.538 791,-394.205 791,-394.205 791,-398.038 787.167,-401.871 783.333,-401.871"/>
<text text-anchor="middle" x="683.5" y="-386.671" font-family="Arial" font-size="14.00" fill="#c6c5fe">src/screens/ListScreen/index.js</text>
</g>
<!-- src/App.js&#45;&gt;src/screens/ListScreen/index.js -->
<g id="edge9" class="edge"><title>src/App.js&#45;&gt;src/screens/ListScreen/index.js</title>
<path fill="none" stroke="#757575" d="M166.811,-265.05C171.628,-267.607 176.557,-270.433 181,-273.371 198.372,-284.86 198.076,-294.674 217,-303.371 331.257,-355.885 372.494,-326.736 496,-350.371 538.067,-358.422 585.233,-368.548 621.607,-376.598"/>
<polygon fill="#757575" stroke="#757575" points="621.047,-380.058 631.568,-378.809 622.564,-373.225 621.047,-380.058"/>
</g>
<!-- src/services/index.js -->
<g id="node16" class="node"><title>src/services/index.js</title>
<path fill="none" stroke="#c6c5fe" d="M1487.83,-365.871C1487.83,-365.871 1358.17,-365.871 1358.17,-365.871 1354.33,-365.871 1350.5,-362.038 1350.5,-358.205 1350.5,-358.205 1350.5,-350.538 1350.5,-350.538 1350.5,-346.705 1354.33,-342.871 1358.17,-342.871 1358.17,-342.871 1487.83,-342.871 1487.83,-342.871 1491.67,-342.871 1495.5,-346.705 1495.5,-350.538 1495.5,-350.538 1495.5,-358.205 1495.5,-358.205 1495.5,-362.038 1491.67,-365.871 1487.83,-365.871"/>
<text text-anchor="middle" x="1423" y="-350.671" font-family="Arial" font-size="14.00" fill="#c6c5fe">src/services/index.js</text>
</g>
<!-- src/screens/AppScreen.js&#45;&gt;src/services/index.js -->
<g id="edge16" class="edge"><title>src/screens/AppScreen.js&#45;&gt;src/services/index.js</title>
<path fill="none" stroke="#757575" d="M769.775,-323.905C801.501,-327.807 837.843,-331.818 871,-334.371 1037.19,-347.169 1232.23,-351.81 1339.98,-353.47"/>
<polygon fill="#757575" stroke="#757575" points="1340.08,-356.972 1350.13,-353.621 1340.18,-349.972 1340.08,-356.972"/>
</g>
<!-- src/screens/AuthScreen/components/index.js -->
<g id="node17" class="node"><title>src/screens/AuthScreen/components/index.js</title>
<path fill="none" stroke="#c6c5fe" d="M827.333,-264.871C827.333,-264.871 539.667,-264.871 539.667,-264.871 535.833,-264.871 532,-261.038 532,-257.205 532,-257.205 532,-249.538 532,-249.538 532,-245.705 535.833,-241.871 539.667,-241.871 539.667,-241.871 827.333,-241.871 827.333,-241.871 831.167,-241.871 835,-245.705 835,-249.538 835,-249.538 835,-257.205 835,-257.205 835,-261.038 831.167,-264.871 827.333,-264.871"/>
<text text-anchor="middle" x="683.5" y="-249.671" font-family="Arial" font-size="14.00" fill="#c6c5fe">src/screens/AuthScreen/components/index.js</text>
</g>
<!-- src/screens/AuthScreen/SignInScreen.js&#45;&gt;src/screens/AuthScreen/components/index.js -->
<g id="edge17" class="edge"><title>src/screens/AuthScreen/SignInScreen.js&#45;&gt;src/screens/AuthScreen/components/index.js</title>
<path fill="none" stroke="#757575" d="M493.446,-253.371C502.771,-253.371 512.216,-253.371 521.653,-253.371"/>
<polygon fill="#757575" stroke="#757575" points="521.885,-256.872 531.885,-253.371 521.885,-249.872 521.885,-256.872"/>
</g>
<!-- src/core/forms/index.js -->
<g id="node14" class="node"><title>src/core/forms/index.js</title>
<path fill="none" stroke="#c6c5fe" d="M1821.83,-188.871C1821.83,-188.871 1676.17,-188.871 1676.17,-188.871 1672.33,-188.871 1668.5,-185.038 1668.5,-181.205 1668.5,-181.205 1668.5,-173.538 1668.5,-173.538 1668.5,-169.705 1672.33,-165.871 1676.17,-165.871 1676.17,-165.871 1821.83,-165.871 1821.83,-165.871 1825.67,-165.871 1829.5,-169.705 1829.5,-173.538 1829.5,-173.538 1829.5,-181.205 1829.5,-181.205 1829.5,-185.038 1825.67,-188.871 1821.83,-188.871"/>
<text text-anchor="middle" x="1749" y="-173.671" font-family="Arial" font-size="14.00" fill="#c6c5fe">src/core/forms/index.js</text>
</g>
<!-- src/screens/AuthScreen/SignUpScreen.js&#45;&gt;src/core/forms/index.js -->
<g id="edge18" class="edge"><title>src/screens/AuthScreen/SignUpScreen.js&#45;&gt;src/core/forms/index.js</title>
<path fill="none" stroke="#757575" d="M496.447,-209.467C726.273,-204.562 1200.05,-194.027 1601,-182.371 1619.5,-181.834 1639.31,-181.2 1658.2,-180.567"/>
<polygon fill="#757575" stroke="#757575" points="1658.4,-184.062 1668.28,-180.227 1658.17,-177.066 1658.4,-184.062"/>
</g>
<!-- src/screens/AuthScreen/SignUpScreen.js&#45;&gt;src/screens/AuthScreen/components/index.js -->
<g id="edge19" class="edge"><title>src/screens/AuthScreen/SignUpScreen.js&#45;&gt;src/screens/AuthScreen/components/index.js</title>
<path fill="none" stroke="#757575" d="M448.896,-223.901C490.089,-229.098 538.877,-235.253 581.185,-240.59"/>
<polygon fill="#757575" stroke="#757575" points="580.868,-244.078 591.228,-241.857 581.745,-237.133 580.868,-244.078"/>
</g>
<!-- src/screens/CreateScreen/CreateScreen.js -->
<g id="node20" class="node"><title>src/screens/CreateScreen/CreateScreen.js</title>
<path fill="none" stroke="#c6c5fe" d="M820.833,-88.8715C820.833,-88.8715 546.167,-88.8715 546.167,-88.8715 542.333,-88.8715 538.5,-85.0381 538.5,-81.2048 538.5,-81.2048 538.5,-73.5381 538.5,-73.5381 538.5,-69.7048 542.333,-65.8715 546.167,-65.8715 546.167,-65.8715 820.833,-65.8715 820.833,-65.8715 824.667,-65.8715 828.5,-69.7048 828.5,-73.5381 828.5,-73.5381 828.5,-81.2048 828.5,-81.2048 828.5,-85.0381 824.667,-88.8715 820.833,-88.8715"/>
<text text-anchor="middle" x="683.5" y="-73.6715" font-family="Arial" font-size="14.00" fill="#c6c5fe">src/screens/CreateScreen/CreateScreen.js</text>
</g>
<!-- src/screens/CreateScreen/index.js&#45;&gt;src/screens/CreateScreen/CreateScreen.js -->
<g id="edge30" class="edge"><title>src/screens/CreateScreen/index.js&#45;&gt;src/screens/CreateScreen/CreateScreen.js</title>
<path fill="none" stroke="#757575" d="M474.373,-93.3812C491.878,-92.0347 510.151,-90.6291 528.286,-89.2341"/>
<polygon fill="#757575" stroke="#757575" points="528.638,-92.7174 538.341,-88.4606 528.102,-85.738 528.638,-92.7174"/>
</g>
<!-- src/screens/EditScreen/EditScreen.js -->
<g id="node23" class="node"><title>src/screens/EditScreen/EditScreen.js</title>
<path fill="none" stroke="#c6c5fe" d="M1159.33,-167.871C1159.33,-167.871 920.667,-167.871 920.667,-167.871 916.833,-167.871 913,-164.038 913,-160.205 913,-160.205 913,-152.538 913,-152.538 913,-148.705 916.833,-144.871 920.667,-144.871 920.667,-144.871 1159.33,-144.871 1159.33,-144.871 1163.17,-144.871 1167,-148.705 1167,-152.538 1167,-152.538 1167,-160.205 1167,-160.205 1167,-164.038 1163.17,-167.871 1159.33,-167.871"/>
<text text-anchor="middle" x="1040" y="-152.671" font-family="Arial" font-size="14.00" fill="#c6c5fe">src/screens/EditScreen/EditScreen.js</text>
</g>
<!-- src/screens/EditScreen/index.js&#45;&gt;src/screens/EditScreen/EditScreen.js -->
<g id="edge34" class="edge"><title>src/screens/EditScreen/index.js&#45;&gt;src/screens/EditScreen/EditScreen.js</title>
<path fill="none" stroke="#757575" d="M465.11,-164.792C583.432,-163.056 773.807,-160.263 902.531,-158.374"/>
<polygon fill="#757575" stroke="#757575" points="902.903,-161.869 912.851,-158.223 902.801,-154.87 902.903,-161.869"/>
</g>
<!-- src/screens/ListScreen/ListScreen.js -->
<g id="node25" class="node"><title>src/screens/ListScreen/ListScreen.js</title>
<path fill="none" stroke="#c6c5fe" d="M1156.83,-405.871C1156.83,-405.871 923.167,-405.871 923.167,-405.871 919.333,-405.871 915.5,-402.038 915.5,-398.205 915.5,-398.205 915.5,-390.538 915.5,-390.538 915.5,-386.705 919.333,-382.871 923.167,-382.871 923.167,-382.871 1156.83,-382.871 1156.83,-382.871 1160.67,-382.871 1164.5,-386.705 1164.5,-390.538 1164.5,-390.538 1164.5,-398.205 1164.5,-398.205 1164.5,-402.038 1160.67,-405.871 1156.83,-405.871"/>
<text text-anchor="middle" x="1040" y="-390.671" font-family="Arial" font-size="14.00" fill="#c6c5fe">src/screens/ListScreen/ListScreen.js</text>
</g>
<!-- src/screens/ListScreen/index.js&#45;&gt;src/screens/ListScreen/ListScreen.js -->
<g id="edge36" class="edge"><title>src/screens/ListScreen/index.js&#45;&gt;src/screens/ListScreen/ListScreen.js</title>
<path fill="none" stroke="#757575" d="M791.342,-391.577C827.18,-391.981 867.604,-392.438 905.239,-392.862"/>
<polygon fill="#757575" stroke="#757575" points="905.218,-396.362 915.257,-392.975 905.297,-389.362 905.218,-396.362"/>
</g>
<!-- src/core/forms/Field.js -->
<g id="node11" class="node"><title>src/core/forms/Field.js</title>
<path fill="none" stroke="#c6c5fe" d="M2087.83,-208.871C2087.83,-208.871 1945.17,-208.871 1945.17,-208.871 1941.33,-208.871 1937.5,-205.038 1937.5,-201.205 1937.5,-201.205 1937.5,-193.538 1937.5,-193.538 1937.5,-189.705 1941.33,-185.871 1945.17,-185.871 1945.17,-185.871 2087.83,-185.871 2087.83,-185.871 2091.67,-185.871 2095.5,-189.705 2095.5,-193.538 2095.5,-193.538 2095.5,-201.205 2095.5,-201.205 2095.5,-205.038 2091.67,-208.871 2087.83,-208.871"/>
<text text-anchor="middle" x="2016.5" y="-193.671" font-family="Arial" font-size="14.00" fill="#c6c5fe">src/core/forms/Field.js</text>
</g>
<!-- src/core/forms/Form.js -->
<g id="node12" class="node"><title>src/core/forms/Form.js</title>
<path fill="none" stroke="#cfffac" d="M2325.33,-208.871C2325.33,-208.871 2179.67,-208.871 2179.67,-208.871 2175.83,-208.871 2172,-205.038 2172,-201.205 2172,-201.205 2172,-193.538 2172,-193.538 2172,-189.705 2175.83,-185.871 2179.67,-185.871 2179.67,-185.871 2325.33,-185.871 2325.33,-185.871 2329.17,-185.871 2333,-189.705 2333,-193.538 2333,-193.538 2333,-201.205 2333,-201.205 2333,-205.038 2329.17,-208.871 2325.33,-208.871"/>
<text text-anchor="middle" x="2252.5" y="-193.671" font-family="Arial" font-size="14.00" fill="#cfffac">src/core/forms/Form.js</text>
</g>
<!-- src/core/forms/Field.js&#45;&gt;src/core/forms/Form.js -->
<g id="edge10" class="edge"><title>src/core/forms/Field.js&#45;&gt;src/core/forms/Form.js</title>
<path fill="none" stroke="#757575" d="M2095.74,-197.371C2116.85,-197.371 2139.85,-197.371 2161.54,-197.371"/>
<polygon fill="#757575" stroke="#757575" points="2161.73,-200.872 2171.73,-197.371 2161.73,-193.872 2161.73,-200.872"/>
</g>
<!-- src/core/forms/ImagePickerField.js -->
<g id="node13" class="node"><title>src/core/forms/ImagePickerField.js</title>
<path fill="none" stroke="#c6c5fe" d="M2128.33,-249.871C2128.33,-249.871 1904.67,-249.871 1904.67,-249.871 1900.83,-249.871 1897,-246.038 1897,-242.205 1897,-242.205 1897,-234.538 1897,-234.538 1897,-230.705 1900.83,-226.871 1904.67,-226.871 1904.67,-226.871 2128.33,-226.871 2128.33,-226.871 2132.17,-226.871 2136,-230.705 2136,-234.538 2136,-234.538 2136,-242.205 2136,-242.205 2136,-246.038 2132.17,-249.871 2128.33,-249.871"/>
<text text-anchor="middle" x="2016.5" y="-234.671" font-family="Arial" font-size="14.00" fill="#c6c5fe">src/core/forms/ImagePickerField.js</text>
</g>
<!-- src/core/forms/ImagePickerField.js&#45;&gt;src/core/forms/Form.js -->
<g id="edge11" class="edge"><title>src/core/forms/ImagePickerField.js&#45;&gt;src/core/forms/Form.js</title>
<path fill="none" stroke="#757575" d="M2083.3,-226.842C2112.09,-221.798 2146.02,-215.853 2175.84,-210.628"/>
<polygon fill="#757575" stroke="#757575" points="2176.54,-214.059 2185.78,-208.886 2175.33,-207.164 2176.54,-214.059"/>
</g>
<!-- src/core/forms/index.js&#45;&gt;src/core/forms/Field.js -->
<g id="edge12" class="edge"><title>src/core/forms/index.js&#45;&gt;src/core/forms/Field.js</title>
<path fill="none" stroke="#757575" d="M1829.66,-183.372C1860.39,-185.687 1895.68,-188.345 1927.18,-190.719"/>
<polygon fill="#757575" stroke="#757575" points="1927.03,-194.217 1937.27,-191.478 1927.56,-187.237 1927.03,-194.217"/>
</g>
<!-- src/core/forms/index.js&#45;&gt;src/core/forms/Form.js -->
<g id="edge13" class="edge"><title>src/core/forms/index.js&#45;&gt;src/core/forms/Form.js</title>
<path fill="none" stroke="#757575" d="M1829.66,-172.88C1907.84,-169.48 2030.38,-166.848 2136,-176.371 2153.48,-177.947 2172.26,-180.839 2189.5,-183.982"/>
<polygon fill="#757575" stroke="#757575" points="2188.98,-187.445 2199.45,-185.855 2190.27,-180.566 2188.98,-187.445"/>
</g>
<!-- src/core/forms/index.js&#45;&gt;src/core/forms/ImagePickerField.js -->
<g id="edge14" class="edge"><title>src/core/forms/index.js&#45;&gt;src/core/forms/ImagePickerField.js</title>
<path fill="none" stroke="#757575" d="M1788.76,-188.946C1818.26,-197.506 1859.97,-209.069 1897,-217.371 1909.07,-220.076 1921.88,-222.653 1934.47,-225.016"/>
<polygon fill="#757575" stroke="#757575" points="1934.02,-228.492 1944.48,-226.863 1935.28,-221.608 1934.02,-228.492"/>
</g>
<!-- src/core/forms/toFormErrors.js -->
<g id="node15" class="node"><title>src/core/forms/toFormErrors.js</title>
<path fill="none" stroke="#cfffac" d="M2114.83,-128.871C2114.83,-128.871 1918.17,-128.871 1918.17,-128.871 1914.33,-128.871 1910.5,-125.038 1910.5,-121.205 1910.5,-121.205 1910.5,-113.538 1910.5,-113.538 1910.5,-109.705 1914.33,-105.871 1918.17,-105.871 1918.17,-105.871 2114.83,-105.871 2114.83,-105.871 2118.67,-105.871 2122.5,-109.705 2122.5,-113.538 2122.5,-113.538 2122.5,-121.205 2122.5,-121.205 2122.5,-125.038 2118.67,-128.871 2114.83,-128.871"/>
<text text-anchor="middle" x="2016.5" y="-113.671" font-family="Arial" font-size="14.00" fill="#cfffac">src/core/forms/toFormErrors.js</text>
</g>
<!-- src/core/forms/index.js&#45;&gt;src/core/forms/toFormErrors.js -->
<g id="edge15" class="edge"><title>src/core/forms/index.js&#45;&gt;src/core/forms/toFormErrors.js</title>
<path fill="none" stroke="#757575" d="M1799.3,-165.821C1827.83,-159.176 1864.42,-150.713 1897,-143.371 1915.03,-139.309 1934.62,-134.976 1952.59,-131.036"/>
<polygon fill="#757575" stroke="#757575" points="1953.36,-134.45 1962.38,-128.892 1951.86,-127.612 1953.36,-134.45"/>
</g>
<!-- src/services/withAuthentication.js -->
<g id="node26" class="node"><title>src/services/withAuthentication.js</title>
<path fill="none" stroke="#cfffac" d="M1853.33,-365.871C1853.33,-365.871 1644.67,-365.871 1644.67,-365.871 1640.83,-365.871 1637,-362.038 1637,-358.205 1637,-358.205 1637,-350.538 1637,-350.538 1637,-346.705 1640.83,-342.871 1644.67,-342.871 1644.67,-342.871 1853.33,-342.871 1853.33,-342.871 1857.17,-342.871 1861,-346.705 1861,-350.538 1861,-350.538 1861,-358.205 1861,-358.205 1861,-362.038 1857.17,-365.871 1853.33,-365.871"/>
<text text-anchor="middle" x="1749" y="-350.671" font-family="Arial" font-size="14.00" fill="#cfffac">src/services/withAuthentication.js</text>
</g>
<!-- src/services/index.js&#45;&gt;src/services/withAuthentication.js -->
<g id="edge37" class="edge"><title>src/services/index.js&#45;&gt;src/services/withAuthentication.js</title>
<path fill="none" stroke="#757575" d="M1495.5,-354.371C1533.97,-354.371 1582.46,-354.371 1626.64,-354.371"/>
<polygon fill="#757575" stroke="#757575" points="1626.88,-357.872 1636.88,-354.371 1626.88,-350.872 1626.88,-357.872"/>
</g>
<!-- src/screens/AuthScreen/components/index.js&#45;&gt;src/core/forms/index.js -->
<g id="edge23" class="edge"><title>src/screens/AuthScreen/components/index.js&#45;&gt;src/core/forms/index.js</title>
<path fill="none" stroke="#757575" d="M835.261,-262.998C1057.23,-275.62 1460.82,-292.225 1601,-256.371 1647.86,-244.387 1696.11,-214.441 1724.02,-195.053"/>
<polygon fill="#757575" stroke="#757575" points="1726.19,-197.8 1732.33,-189.166 1722.15,-192.087 1726.19,-197.8"/>
</g>
<!-- src/screens/AuthScreen/components/SignButton.js -->
<g id="node18" class="node"><title>src/screens/AuthScreen/components/SignButton.js</title>
<path fill="none" stroke="#c6c5fe" d="M1201.33,-325.871C1201.33,-325.871 878.667,-325.871 878.667,-325.871 874.833,-325.871 871,-322.038 871,-318.205 871,-318.205 871,-310.538 871,-310.538 871,-306.705 874.833,-302.871 878.667,-302.871 878.667,-302.871 1201.33,-302.871 1201.33,-302.871 1205.17,-302.871 1209,-306.705 1209,-310.538 1209,-310.538 1209,-318.205 1209,-318.205 1209,-322.038 1205.17,-325.871 1201.33,-325.871"/>
<text text-anchor="middle" x="1040" y="-310.671" font-family="Arial" font-size="14.00" fill="#c6c5fe">src/screens/AuthScreen/components/SignButton.js</text>
</g>
<!-- src/screens/AuthScreen/components/index.js&#45;&gt;src/screens/AuthScreen/components/SignButton.js -->
<g id="edge24" class="edge"><title>src/screens/AuthScreen/components/index.js&#45;&gt;src/screens/AuthScreen/components/SignButton.js</title>
<path fill="none" stroke="#757575" d="M743.211,-264.887C779.893,-271.959 828.138,-281.035 871,-288.371 896.939,-292.811 925.189,-297.313 950.994,-301.294"/>
<polygon fill="#757575" stroke="#757575" points="950.714,-304.792 961.129,-302.85 951.777,-297.873 950.714,-304.792"/>
</g>
<!-- src/screens/AuthScreen/components/SignForm.js -->
<g id="node19" class="node"><title>src/screens/AuthScreen/components/SignForm.js</title>
<path fill="none" stroke="#c6c5fe" d="M1581.33,-247.871C1581.33,-247.871 1264.67,-247.871 1264.67,-247.871 1260.83,-247.871 1257,-244.038 1257,-240.205 1257,-240.205 1257,-232.538 1257,-232.538 1257,-228.705 1260.83,-224.871 1264.67,-224.871 1264.67,-224.871 1581.33,-224.871 1581.33,-224.871 1585.17,-224.871 1589,-228.705 1589,-232.538 1589,-232.538 1589,-240.205 1589,-240.205 1589,-244.038 1585.17,-247.871 1581.33,-247.871"/>
<text text-anchor="middle" x="1423" y="-232.671" font-family="Arial" font-size="14.00" fill="#c6c5fe">src/screens/AuthScreen/components/SignForm.js</text>
</g>
<!-- src/screens/AuthScreen/components/index.js&#45;&gt;src/screens/AuthScreen/components/SignForm.js -->
<g id="edge25" class="edge"><title>src/screens/AuthScreen/components/index.js&#45;&gt;src/screens/AuthScreen/components/SignForm.js</title>
<path fill="none" stroke="#757575" d="M835.078,-249.9C954.441,-247.149 1121.43,-243.3 1246.78,-240.41"/>
<polygon fill="#757575" stroke="#757575" points="1246.95,-243.907 1256.87,-240.178 1246.79,-236.909 1246.95,-243.907"/>
</g>
<!-- src/screens/AuthScreen/components/SignButton.js&#45;&gt;src/core/forms/index.js -->
<g id="edge20" class="edge"><title>src/screens/AuthScreen/components/SignButton.js&#45;&gt;src/core/forms/index.js</title>
<path fill="none" stroke="#757575" d="M1209.11,-318.235C1347.42,-319.38 1531.56,-315.648 1601,-290.371 1655,-270.714 1705.18,-223.517 1730.6,-196.752"/>
<polygon fill="#757575" stroke="#757575" points="1733.42,-198.859 1737.67,-189.155 1728.29,-194.09 1733.42,-198.859"/>
</g>
<!-- src/screens/AuthScreen/components/SignButton.js&#45;&gt;src/services/index.js -->
<g id="edge21" class="edge"><title>src/screens/AuthScreen/components/SignButton.js&#45;&gt;src/services/index.js</title>
<path fill="none" stroke="#757575" d="M1150.69,-325.887C1211.12,-332.232 1284.87,-339.974 1340.21,-345.785"/>
<polygon fill="#757575" stroke="#757575" points="1340.02,-349.283 1350.33,-346.847 1340.75,-342.322 1340.02,-349.283"/>
</g>
<!-- src/screens/AuthScreen/components/SignForm.js&#45;&gt;src/core/forms/index.js -->
<g id="edge22" class="edge"><title>src/screens/AuthScreen/components/SignForm.js&#45;&gt;src/core/forms/index.js</title>
<path fill="none" stroke="#757575" d="M1511.54,-224.838C1540.13,-220.718 1571.99,-215.751 1601,-210.371 1630.76,-204.853 1663.65,-197.581 1690.76,-191.268"/>
<polygon fill="#757575" stroke="#757575" points="1691.91,-194.593 1700.85,-188.901 1690.32,-187.778 1691.91,-194.593"/>
</g>
<!-- src/screens/CreateScreen/CreateScreen.js&#45;&gt;src/core/forms/index.js -->
<g id="edge26" class="edge"><title>src/screens/CreateScreen/CreateScreen.js&#45;&gt;src/core/forms/index.js</title>
<path fill="none" stroke="#757575" d="M727.319,-65.8689C861.314,-32.0406 1282.65,57.8 1601,-56.3715 1657.64,-76.6834 1708.05,-129.288 1732.46,-157.991"/>
<polygon fill="#757575" stroke="#757575" points="1729.82,-160.291 1738.91,-165.738 1735.2,-155.813 1729.82,-160.291"/>
</g>
<!-- src/screens/CreateScreen/components/index.js -->
<g id="node21" class="node"><title>src/screens/CreateScreen/components/index.js</title>
<path fill="none" stroke="#c6c5fe" d="M1190.83,-88.8715C1190.83,-88.8715 889.167,-88.8715 889.167,-88.8715 885.333,-88.8715 881.5,-85.0381 881.5,-81.2048 881.5,-81.2048 881.5,-73.5381 881.5,-73.5381 881.5,-69.7048 885.333,-65.8715 889.167,-65.8715 889.167,-65.8715 1190.83,-65.8715 1190.83,-65.8715 1194.67,-65.8715 1198.5,-69.7048 1198.5,-73.5381 1198.5,-73.5381 1198.5,-81.2048 1198.5,-81.2048 1198.5,-85.0381 1194.67,-88.8715 1190.83,-88.8715"/>
<text text-anchor="middle" x="1040" y="-73.6715" font-family="Arial" font-size="14.00" fill="#c6c5fe">src/screens/CreateScreen/components/index.js</text>
</g>
<!-- src/screens/CreateScreen/CreateScreen.js&#45;&gt;src/screens/CreateScreen/components/index.js -->
<g id="edge27" class="edge"><title>src/screens/CreateScreen/CreateScreen.js&#45;&gt;src/screens/CreateScreen/components/index.js</title>
<path fill="none" stroke="#757575" d="M828.689,-77.3715C842.648,-77.3715 856.892,-77.3715 871.056,-77.3715"/>
<polygon fill="#757575" stroke="#757575" points="871.35,-80.8716 881.35,-77.3715 871.35,-73.8716 871.35,-80.8716"/>
</g>
<!-- src/screens/CreateScreen/components/SaveButton.js -->
<g id="node22" class="node"><title>src/screens/CreateScreen/components/SaveButton.js</title>
<path fill="none" stroke="#c6c5fe" d="M1593.33,-88.8715C1593.33,-88.8715 1252.67,-88.8715 1252.67,-88.8715 1248.83,-88.8715 1245,-85.0381 1245,-81.2048 1245,-81.2048 1245,-73.5381 1245,-73.5381 1245,-69.7048 1248.83,-65.8715 1252.67,-65.8715 1252.67,-65.8715 1593.33,-65.8715 1593.33,-65.8715 1597.17,-65.8715 1601,-69.7048 1601,-73.5381 1601,-73.5381 1601,-81.2048 1601,-81.2048 1601,-85.0381 1597.17,-88.8715 1593.33,-88.8715"/>
<text text-anchor="middle" x="1423" y="-73.6715" font-family="Arial" font-size="14.00" fill="#c6c5fe">src/screens/CreateScreen/components/SaveButton.js</text>
</g>
<!-- src/screens/CreateScreen/components/index.js&#45;&gt;src/screens/CreateScreen/components/SaveButton.js -->
<g id="edge29" class="edge"><title>src/screens/CreateScreen/components/index.js&#45;&gt;src/screens/CreateScreen/components/SaveButton.js</title>
<path fill="none" stroke="#757575" d="M1198.72,-77.3715C1210.63,-77.3715 1222.72,-77.3715 1234.8,-77.3715"/>
<polygon fill="#757575" stroke="#757575" points="1234.93,-80.8716 1244.93,-77.3715 1234.93,-73.8716 1234.93,-80.8716"/>
</g>
<!-- src/screens/CreateScreen/components/SaveButton.js&#45;&gt;src/core/forms/index.js -->
<g id="edge28" class="edge"><title>src/screens/CreateScreen/components/SaveButton.js&#45;&gt;src/core/forms/index.js</title>
<path fill="none" stroke="#757575" d="M1567.96,-88.8785C1579.25,-91.2216 1590.38,-94.0235 1601,-97.3715 1647.01,-111.879 1695.17,-141.219 1723.34,-160.049"/>
<polygon fill="#757575" stroke="#757575" points="1721.52,-163.041 1731.76,-165.762 1725.45,-157.25 1721.52,-163.041"/>
</g>
<!-- src/screens/EditScreen/EditScreen.js&#45;&gt;src/core/forms/index.js -->
<g id="edge31" class="edge"><title>src/screens/EditScreen/EditScreen.js&#45;&gt;src/core/forms/index.js</title>
<path fill="none" stroke="#757575" d="M1167.4,-160.126C1308.6,-164.32 1533.63,-171.004 1658.01,-174.698"/>
<polygon fill="#757575" stroke="#757575" points="1658.15,-178.204 1668.25,-175.003 1658.36,-171.207 1658.15,-178.204"/>
</g>
<!-- src/screens/EditScreen/components/SaveButton.js -->
<g id="node24" class="node"><title>src/screens/EditScreen/components/SaveButton.js</title>
<path fill="none" stroke="#c6c5fe" d="M1584.33,-129.871C1584.33,-129.871 1261.67,-129.871 1261.67,-129.871 1257.83,-129.871 1254,-126.038 1254,-122.205 1254,-122.205 1254,-114.538 1254,-114.538 1254,-110.705 1257.83,-106.871 1261.67,-106.871 1261.67,-106.871 1584.33,-106.871 1584.33,-106.871 1588.17,-106.871 1592,-110.705 1592,-114.538 1592,-114.538 1592,-122.205 1592,-122.205 1592,-126.038 1588.17,-129.871 1584.33,-129.871"/>
<text text-anchor="middle" x="1423" y="-114.671" font-family="Arial" font-size="14.00" fill="#c6c5fe">src/screens/EditScreen/components/SaveButton.js</text>
</g>
<!-- src/screens/EditScreen/EditScreen.js&#45;&gt;src/screens/EditScreen/components/SaveButton.js -->
<g id="edge32" class="edge"><title>src/screens/EditScreen/EditScreen.js&#45;&gt;src/screens/EditScreen/components/SaveButton.js</title>
<path fill="none" stroke="#757575" d="M1156.35,-144.867C1200.53,-140.46 1251.14,-135.412 1296.25,-130.913"/>
<polygon fill="#757575" stroke="#757575" points="1296.79,-134.378 1306.39,-129.902 1296.09,-127.412 1296.79,-134.378"/>
</g>
<!-- src/screens/EditScreen/components/SaveButton.js&#45;&gt;src/core/forms/index.js -->
<g id="edge33" class="edge"><title>src/screens/EditScreen/components/SaveButton.js&#45;&gt;src/core/forms/index.js</title>
<path fill="none" stroke="#757575" d="M1511.54,-129.904C1540.13,-134.025 1571.99,-138.992 1601,-144.371 1630.76,-149.89 1663.65,-157.162 1690.76,-163.475"/>
<polygon fill="#757575" stroke="#757575" points="1690.32,-166.965 1700.85,-165.842 1691.91,-160.15 1690.32,-166.965"/>
</g>
<!-- src/screens/ListScreen/ListScreen.js&#45;&gt;src/services/index.js -->
<g id="edge35" class="edge"><title>src/screens/ListScreen/ListScreen.js&#45;&gt;src/services/index.js</title>
<path fill="none" stroke="#757575" d="M1150.69,-382.855C1211.12,-376.511 1284.87,-368.769 1340.21,-362.958"/>
<polygon fill="#757575" stroke="#757575" points="1340.75,-366.421 1350.33,-361.896 1340.02,-359.46 1340.75,-366.421"/>
</g>
</g>
</svg>
