<?xml version="1.0" encoding="UTF-8" standalone="no"?>
<!DOCTYPE svg PUBLIC "-//W3C//DTD SVG 1.1//EN"
 "http://www.w3.org/Graphics/SVG/1.1/DTD/svg11.dtd">
<!-- Generated by graphviz version 2.38.0 (20140413.2041)
 -->
<!-- Title: G Pages: 1 -->
<svg width="1730pt" height="336pt"
 viewBox="0.00 0.00 1730.20 335.70" xmlns="http://www.w3.org/2000/svg" xmlns:xlink="http://www.w3.org/1999/xlink">
<g id="graph0" class="graph" transform="scale(1 1) rotate(0) translate(21.6 314.1)">
<title>G</title>
<polygon fill="#111111" stroke="none" points="-21.6,21.6 -21.6,-314.1 1708.6,-314.1 1708.6,21.6 -21.6,21.6"/>
<!-- config.js -->
<g id="node1" class="node"><title>config.js</title>
<path fill="none" stroke="#cfffac" d="M1360.83,-185C1360.83,-185 1306.17,-185 1306.17,-185 1302.33,-185 1298.5,-181.167 1298.5,-177.333 1298.5,-177.333 1298.5,-169.667 1298.5,-169.667 1298.5,-165.833 1302.33,-162 1306.17,-162 1306.17,-162 1360.83,-162 1360.83,-162 1364.67,-162 1368.5,-165.833 1368.5,-169.667 1368.5,-169.667 1368.5,-177.333 1368.5,-177.333 1368.5,-181.167 1364.67,-185 1360.83,-185"/>
<text text-anchor="middle" x="1333.5" y="-169.8" font-family="Arial" font-size="14.00" fill="#cfffac">config.js</text>
</g>
<!-- index.js -->
<g id="node2" class="node"><title>index.js</title>
<path fill="none" stroke="#c6c5fe" d="M57.3333,-266C57.3333,-266 7.66667,-266 7.66667,-266 3.83333,-266 0,-262.167 0,-258.333 0,-258.333 0,-250.667 0,-250.667 0,-246.833 3.83333,-243 7.66667,-243 7.66667,-243 57.3333,-243 57.3333,-243 61.1667,-243 65,-246.833 65,-250.667 65,-250.667 65,-258.333 65,-258.333 65,-262.167 61.1667,-266 57.3333,-266"/>
<text text-anchor="middle" x="32.5" y="-250.8" font-family="Arial" font-size="14.00" fill="#c6c5fe">index.js</text>
</g>
<!-- index.js&#45;&gt;config.js -->
<g id="edge1" class="edge"><title>index.js&#45;&gt;config.js</title>
<path fill="none" stroke="#757575" d="M65.3119,-261.792C76.5437,-264.182 89.2912,-266.686 101,-268.5 203.658,-284.402 229.618,-292.5 333.5,-292.5 333.5,-292.5 333.5,-292.5 896.5,-292.5 1051.25,-292.5 1226.34,-221.871 1298.58,-189.438"/>
<polygon fill="#757575" stroke="#757575" points="1300.42,-192.447 1308.07,-185.127 1297.52,-186.073 1300.42,-192.447"/>
</g>
<!-- src/core/Storage.js -->
<g id="node3" class="node"><title>src/core/Storage.js</title>
<path fill="none" stroke="#c6c5fe" d="M956.333,-226C956.333,-226 834.667,-226 834.667,-226 830.833,-226 827,-222.167 827,-218.333 827,-218.333 827,-210.667 827,-210.667 827,-206.833 830.833,-203 834.667,-203 834.667,-203 956.333,-203 956.333,-203 960.167,-203 964,-206.833 964,-210.667 964,-210.667 964,-218.333 964,-218.333 964,-222.167 960.167,-226 956.333,-226"/>
<text text-anchor="middle" x="895.5" y="-210.8" font-family="Arial" font-size="14.00" fill="#c6c5fe">src/core/Storage.js</text>
</g>
<!-- index.js&#45;&gt;src/core/Storage.js -->
<g id="edge2" class="edge"><title>index.js&#45;&gt;src/core/Storage.js</title>
<path fill="none" stroke="#757575" d="M65.2779,-254.66C164.274,-254.931 475.879,-254.053 733,-234.5 760.353,-232.42 790.189,-229.041 816.69,-225.647"/>
<polygon fill="#757575" stroke="#757575" points="817.207,-229.109 826.672,-224.348 816.304,-222.168 817.207,-229.109"/>
</g>
<!-- src/schema.js -->
<g id="node4" class="node"><title>src/schema.js</title>
<path fill="none" stroke="#c6c5fe" d="M197.333,-185C197.333,-185 108.667,-185 108.667,-185 104.833,-185 101,-181.167 101,-177.333 101,-177.333 101,-169.667 101,-169.667 101,-165.833 104.833,-162 108.667,-162 108.667,-162 197.333,-162 197.333,-162 201.167,-162 205,-165.833 205,-169.667 205,-169.667 205,-177.333 205,-177.333 205,-181.167 201.167,-185 197.333,-185"/>
<text text-anchor="middle" x="153" y="-169.8" font-family="Arial" font-size="14.00" fill="#c6c5fe">src/schema.js</text>
</g>
<!-- index.js&#45;&gt;src/schema.js -->
<g id="edge3" class="edge"><title>index.js&#45;&gt;src/schema.js</title>
<path fill="none" stroke="#757575" d="M50.4782,-242.895C70.4531,-229.241 103.803,-206.445 126.797,-190.727"/>
<polygon fill="#757575" stroke="#757575" points="128.773,-193.616 135.053,-185.084 124.823,-187.837 128.773,-193.616"/>
</g>
<!-- src/database.js -->
<g id="node5" class="node"><title>src/database.js</title>
<path fill="none" stroke="#c6c5fe" d="M1166.83,-185C1166.83,-185 1069.17,-185 1069.17,-185 1065.33,-185 1061.5,-181.167 1061.5,-177.333 1061.5,-177.333 1061.5,-169.667 1061.5,-169.667 1061.5,-165.833 1065.33,-162 1069.17,-162 1069.17,-162 1166.83,-162 1166.83,-162 1170.67,-162 1174.5,-165.833 1174.5,-169.667 1174.5,-169.667 1174.5,-177.333 1174.5,-177.333 1174.5,-181.167 1170.67,-185 1166.83,-185"/>
<text text-anchor="middle" x="1118" y="-169.8" font-family="Arial" font-size="14.00" fill="#c6c5fe">src/database.js</text>
</g>
<!-- src/core/Storage.js&#45;&gt;src/database.js -->
<g id="edge4" class="edge"><title>src/core/Storage.js&#45;&gt;src/database.js</title>
<path fill="none" stroke="#757575" d="M964.003,-203.736C982.807,-200.593 1003.22,-197.046 1022,-193.5 1032.29,-191.556 1043.18,-189.378 1053.78,-187.193"/>
<polygon fill="#757575" stroke="#757575" points="1054.74,-190.568 1063.82,-185.104 1053.32,-183.715 1054.74,-190.568"/>
</g>
<!-- src/interfaces/Definitions.js -->
<g id="node11" class="node"><title>src/interfaces/Definitions.js</title>
<path fill="none" stroke="#cfffac" d="M420.333,-103C420.333,-103 248.667,-103 248.667,-103 244.833,-103 241,-99.1667 241,-95.3333 241,-95.3333 241,-87.6667 241,-87.6667 241,-83.8333 244.833,-80 248.667,-80 248.667,-80 420.333,-80 420.333,-80 424.167,-80 428,-83.8333 428,-87.6667 428,-87.6667 428,-95.3333 428,-95.3333 428,-99.1667 424.167,-103 420.333,-103"/>
<text text-anchor="middle" x="334.5" y="-87.8" font-family="Arial" font-size="14.00" fill="#cfffac">src/interfaces/Definitions.js</text>
</g>
<!-- src/schema.js&#45;&gt;src/interfaces/Definitions.js -->
<g id="edge25" class="edge"><title>src/schema.js&#45;&gt;src/interfaces/Definitions.js</title>
<path fill="none" stroke="#757575" d="M166.81,-161.773C182.918,-147.675 211.99,-124.318 241,-111.5 245.462,-109.529 250.132,-107.746 254.904,-106.134"/>
<polygon fill="#757575" stroke="#757575" points="256.292,-109.368 264.804,-103.06 254.216,-102.682 256.292,-109.368"/>
</g>
<!-- src/modules/Definitions.js -->
<g id="node12" class="node"><title>src/modules/Definitions.js</title>
<path fill="none" stroke="#c6c5fe" d="M416.333,-144C416.333,-144 252.667,-144 252.667,-144 248.833,-144 245,-140.167 245,-136.333 245,-136.333 245,-128.667 245,-128.667 245,-124.833 248.833,-121 252.667,-121 252.667,-121 416.333,-121 416.333,-121 420.167,-121 424,-124.833 424,-128.667 424,-128.667 424,-136.333 424,-136.333 424,-140.167 420.167,-144 416.333,-144"/>
<text text-anchor="middle" x="334.5" y="-128.8" font-family="Arial" font-size="14.00" fill="#c6c5fe">src/modules/Definitions.js</text>
</g>
<!-- src/schema.js&#45;&gt;src/modules/Definitions.js -->
<g id="edge26" class="edge"><title>src/schema.js&#45;&gt;src/modules/Definitions.js</title>
<path fill="none" stroke="#757575" d="M200.909,-161.96C213.881,-158.828 227.974,-155.48 241,-152.5 250.153,-150.406 259.829,-148.25 269.339,-146.165"/>
<polygon fill="#757575" stroke="#757575" points="270.135,-149.573 279.16,-144.022 268.643,-142.734 270.135,-149.573"/>
</g>
<!-- src/scalars/Definitions.js -->
<g id="node19" class="node"><title>src/scalars/Definitions.js</title>
<path fill="none" stroke="#cfffac" d="M411.833,-226C411.833,-226 257.167,-226 257.167,-226 253.333,-226 249.5,-222.167 249.5,-218.333 249.5,-218.333 249.5,-210.667 249.5,-210.667 249.5,-206.833 253.333,-203 257.167,-203 257.167,-203 411.833,-203 411.833,-203 415.667,-203 419.5,-206.833 419.5,-210.667 419.5,-210.667 419.5,-218.333 419.5,-218.333 419.5,-222.167 415.667,-226 411.833,-226"/>
<text text-anchor="middle" x="334.5" y="-210.8" font-family="Arial" font-size="14.00" fill="#cfffac">src/scalars/Definitions.js</text>
</g>
<!-- src/schema.js&#45;&gt;src/scalars/Definitions.js -->
<g id="edge27" class="edge"><title>src/schema.js&#45;&gt;src/scalars/Definitions.js</title>
<path fill="none" stroke="#757575" d="M204.141,-185.051C216.21,-187.825 229.064,-190.773 241,-193.5 251.219,-195.835 262.076,-198.307 272.621,-200.703"/>
<polygon fill="#757575" stroke="#757575" points="272.077,-204.169 282.604,-202.971 273.628,-197.343 272.077,-204.169"/>
</g>
<!-- src/types/Definitions.js -->
<g id="node20" class="node"><title>src/types/Definitions.js</title>
<path fill="none" stroke="#cfffac" d="M406.333,-185C406.333,-185 262.667,-185 262.667,-185 258.833,-185 255,-181.167 255,-177.333 255,-177.333 255,-169.667 255,-169.667 255,-165.833 258.833,-162 262.667,-162 262.667,-162 406.333,-162 406.333,-162 410.167,-162 414,-165.833 414,-169.667 414,-169.667 414,-177.333 414,-177.333 414,-181.167 410.167,-185 406.333,-185"/>
<text text-anchor="middle" x="334.5" y="-169.8" font-family="Arial" font-size="14.00" fill="#cfffac">src/types/Definitions.js</text>
</g>
<!-- src/schema.js&#45;&gt;src/types/Definitions.js -->
<g id="edge28" class="edge"><title>src/schema.js&#45;&gt;src/types/Definitions.js</title>
<path fill="none" stroke="#757575" d="M205.437,-173.5C217.738,-173.5 231.221,-173.5 244.675,-173.5"/>
<polygon fill="#757575" stroke="#757575" points="244.939,-177 254.939,-173.5 244.939,-170 244.939,-177"/>
</g>
<!-- src/database.js&#45;&gt;config.js -->
<g id="edge9" class="edge"><title>src/database.js&#45;&gt;config.js</title>
<path fill="none" stroke="#757575" d="M1174.54,-173.5C1209.88,-173.5 1255.03,-173.5 1288.01,-173.5"/>
<polygon fill="#757575" stroke="#757575" points="1288.26,-177 1298.26,-173.5 1288.26,-170 1288.26,-177"/>
</g>
<!-- src/core/applyInterceptor.js -->
<g id="node6" class="node"><title>src/core/applyInterceptor.js</title>
<path fill="none" stroke="#cfffac" d="M1420.33,-105C1420.33,-105 1246.67,-105 1246.67,-105 1242.83,-105 1239,-101.167 1239,-97.3333 1239,-97.3333 1239,-89.6667 1239,-89.6667 1239,-85.8333 1242.83,-82 1246.67,-82 1246.67,-82 1420.33,-82 1420.33,-82 1424.17,-82 1428,-85.8333 1428,-89.6667 1428,-89.6667 1428,-97.3333 1428,-97.3333 1428,-101.167 1424.17,-105 1420.33,-105"/>
<text text-anchor="middle" x="1333.5" y="-89.8" font-family="Arial" font-size="14.00" fill="#cfffac">src/core/applyInterceptor.js</text>
</g>
<!-- src/core/index.js -->
<g id="node7" class="node"><title>src/core/index.js</title>
<path fill="none" stroke="#c6c5fe" d="M1170.33,-64C1170.33,-64 1065.67,-64 1065.67,-64 1061.83,-64 1058,-60.1667 1058,-56.3333 1058,-56.3333 1058,-48.6667 1058,-48.6667 1058,-44.8333 1061.83,-41 1065.67,-41 1065.67,-41 1170.33,-41 1170.33,-41 1174.17,-41 1178,-44.8333 1178,-48.6667 1178,-48.6667 1178,-56.3333 1178,-56.3333 1178,-60.1667 1174.17,-64 1170.33,-64"/>
<text text-anchor="middle" x="1118" y="-48.8" font-family="Arial" font-size="14.00" fill="#c6c5fe">src/core/index.js</text>
</g>
<!-- src/core/index.js&#45;&gt;src/core/applyInterceptor.js -->
<g id="edge5" class="edge"><title>src/core/index.js&#45;&gt;src/core/applyInterceptor.js</title>
<path fill="none" stroke="#757575" d="M1172.2,-64.0139C1185.81,-66.8731 1200.43,-69.8702 1214,-72.5 1227.37,-75.0913 1241.61,-77.7243 1255.42,-80.21"/>
<polygon fill="#757575" stroke="#757575" points="1254.91,-83.6754 1265.37,-81.9911 1256.15,-76.7847 1254.91,-83.6754"/>
</g>
<!-- src/core/validateFromJoiSchema.js -->
<g id="node8" class="node"><title>src/core/validateFromJoiSchema.js</title>
<path fill="none" stroke="#cfffac" d="M1445.33,-64C1445.33,-64 1221.67,-64 1221.67,-64 1217.83,-64 1214,-60.1667 1214,-56.3333 1214,-56.3333 1214,-48.6667 1214,-48.6667 1214,-44.8333 1217.83,-41 1221.67,-41 1221.67,-41 1445.33,-41 1445.33,-41 1449.17,-41 1453,-44.8333 1453,-48.6667 1453,-48.6667 1453,-56.3333 1453,-56.3333 1453,-60.1667 1449.17,-64 1445.33,-64"/>
<text text-anchor="middle" x="1333.5" y="-48.8" font-family="Arial" font-size="14.00" fill="#cfffac">src/core/validateFromJoiSchema.js</text>
</g>
<!-- src/core/index.js&#45;&gt;src/core/validateFromJoiSchema.js -->
<g id="edge6" class="edge"><title>src/core/index.js&#45;&gt;src/core/validateFromJoiSchema.js</title>
<path fill="none" stroke="#757575" d="M1178.19,-52.5C1186.35,-52.5 1194.97,-52.5 1203.81,-52.5"/>
<polygon fill="#757575" stroke="#757575" points="1203.86,-56.0001 1213.86,-52.5 1203.86,-49.0001 1203.86,-56.0001"/>
</g>
<!-- src/core/validations/index.js -->
<g id="node9" class="node"><title>src/core/validations/index.js</title>
<path fill="none" stroke="#c6c5fe" d="M1420.83,-23C1420.83,-23 1246.17,-23 1246.17,-23 1242.33,-23 1238.5,-19.1667 1238.5,-15.3333 1238.5,-15.3333 1238.5,-7.66667 1238.5,-7.66667 1238.5,-3.83333 1242.33,-0 1246.17,-0 1246.17,-0 1420.83,-0 1420.83,-0 1424.67,-0 1428.5,-3.83333 1428.5,-7.66667 1428.5,-7.66667 1428.5,-15.3333 1428.5,-15.3333 1428.5,-19.1667 1424.67,-23 1420.83,-23"/>
<text text-anchor="middle" x="1333.5" y="-7.8" font-family="Arial" font-size="14.00" fill="#c6c5fe">src/core/validations/index.js</text>
</g>
<!-- src/core/index.js&#45;&gt;src/core/validations/index.js -->
<g id="edge7" class="edge"><title>src/core/index.js&#45;&gt;src/core/validations/index.js</title>
<path fill="none" stroke="#757575" d="M1169.19,-40.9101C1183.62,-37.7115 1199.41,-34.3419 1214,-31.5 1225.76,-29.2094 1238.21,-26.9402 1250.44,-24.7979"/>
<polygon fill="#757575" stroke="#757575" points="1251.39,-28.1856 1260.64,-23.0306 1250.19,-21.2883 1251.39,-28.1856"/>
</g>
<!-- src/core/validations/unique.js -->
<g id="node10" class="node"><title>src/core/validations/unique.js</title>
<path fill="none" stroke="#cfffac" d="M1679.33,-23C1679.33,-23 1496.67,-23 1496.67,-23 1492.83,-23 1489,-19.1667 1489,-15.3333 1489,-15.3333 1489,-7.66667 1489,-7.66667 1489,-3.83333 1492.83,-0 1496.67,-0 1496.67,-0 1679.33,-0 1679.33,-0 1683.17,-0 1687,-3.83333 1687,-7.66667 1687,-7.66667 1687,-15.3333 1687,-15.3333 1687,-19.1667 1683.17,-23 1679.33,-23"/>
<text text-anchor="middle" x="1588" y="-7.8" font-family="Arial" font-size="14.00" fill="#cfffac">src/core/validations/unique.js</text>
</g>
<!-- src/core/validations/index.js&#45;&gt;src/core/validations/unique.js -->
<g id="edge8" class="edge"><title>src/core/validations/index.js&#45;&gt;src/core/validations/unique.js</title>
<path fill="none" stroke="#757575" d="M1428.52,-11.5C1444.78,-11.5 1461.8,-11.5 1478.4,-11.5"/>
<polygon fill="#757575" stroke="#757575" points="1478.68,-15.0001 1488.68,-11.5 1478.68,-8.0001 1478.68,-15.0001"/>
</g>
<!-- src/modules/Definitions.js&#45;&gt;src/core/index.js -->
<g id="edge10" class="edge"><title>src/modules/Definitions.js&#45;&gt;src/core/index.js</title>
<path fill="none" stroke="#757575" d="M407.451,-120.941C414.644,-118.395 421.632,-115.289 428,-111.5 448.84,-99.1002 442.144,-81.0053 464,-70.5 663.636,25.4572 938.736,-14.5242 1057.96,-38.8751"/>
<polygon fill="#757575" stroke="#757575" points="1057.47,-42.3497 1067.98,-40.9607 1058.9,-35.4966 1057.47,-42.3497"/>
</g>
<!-- src/modules/attachment/Definitions.js -->
<g id="node13" class="node"><title>src/modules/attachment/Definitions.js</title>
<path fill="none" stroke="#cfffac" d="M716.833,-226C716.833,-226 480.167,-226 480.167,-226 476.333,-226 472.5,-222.167 472.5,-218.333 472.5,-218.333 472.5,-210.667 472.5,-210.667 472.5,-206.833 476.333,-203 480.167,-203 480.167,-203 716.833,-203 716.833,-203 720.667,-203 724.5,-206.833 724.5,-210.667 724.5,-210.667 724.5,-218.333 724.5,-218.333 724.5,-222.167 720.667,-226 716.833,-226"/>
<text text-anchor="middle" x="598.5" y="-210.8" font-family="Arial" font-size="14.00" fill="#cfffac">src/modules/attachment/Definitions.js</text>
</g>
<!-- src/modules/Definitions.js&#45;&gt;src/modules/attachment/Definitions.js -->
<g id="edge11" class="edge"><title>src/modules/Definitions.js&#45;&gt;src/modules/attachment/Definitions.js</title>
<path fill="none" stroke="#757575" d="M409.832,-144.073C416.182,-146.39 422.335,-149.169 428,-152.5 448.903,-164.792 442.755,-181.807 464,-193.5 467.815,-195.6 471.779,-197.506 475.85,-199.235"/>
<polygon fill="#757575" stroke="#757575" points="474.934,-202.632 485.524,-202.955 477.447,-196.099 474.934,-202.632"/>
</g>
<!-- src/modules/authentication/Definitions.js -->
<g id="node14" class="node"><title>src/modules/authentication/Definitions.js</title>
<path fill="none" stroke="#c6c5fe" d="M725.333,-103C725.333,-103 471.667,-103 471.667,-103 467.833,-103 464,-99.1667 464,-95.3333 464,-95.3333 464,-87.6667 464,-87.6667 464,-83.8333 467.833,-80 471.667,-80 471.667,-80 725.333,-80 725.333,-80 729.167,-80 733,-83.8333 733,-87.6667 733,-87.6667 733,-95.3333 733,-95.3333 733,-99.1667 729.167,-103 725.333,-103"/>
<text text-anchor="middle" x="598.5" y="-87.8" font-family="Arial" font-size="14.00" fill="#c6c5fe">src/modules/authentication/Definitions.js</text>
</g>
<!-- src/modules/Definitions.js&#45;&gt;src/modules/authentication/Definitions.js -->
<g id="edge12" class="edge"><title>src/modules/Definitions.js&#45;&gt;src/modules/authentication/Definitions.js</title>
<path fill="none" stroke="#757575" d="M404.83,-120.997C423.99,-117.865 444.794,-114.508 464,-111.5 478.72,-109.195 494.362,-106.801 509.56,-104.505"/>
<polygon fill="#757575" stroke="#757575" points="510.102,-107.963 519.469,-103.012 509.059,-101.041 510.102,-107.963"/>
</g>
<!-- src/modules/product/Definitions.js -->
<g id="node15" class="node"><title>src/modules/product/Definitions.js</title>
<path fill="none" stroke="#c6c5fe" d="M706.333,-185C706.333,-185 490.667,-185 490.667,-185 486.833,-185 483,-181.167 483,-177.333 483,-177.333 483,-169.667 483,-169.667 483,-165.833 486.833,-162 490.667,-162 490.667,-162 706.333,-162 706.333,-162 710.167,-162 714,-165.833 714,-169.667 714,-169.667 714,-177.333 714,-177.333 714,-181.167 710.167,-185 706.333,-185"/>
<text text-anchor="middle" x="598.5" y="-169.8" font-family="Arial" font-size="14.00" fill="#c6c5fe">src/modules/product/Definitions.js</text>
</g>
<!-- src/modules/Definitions.js&#45;&gt;src/modules/product/Definitions.js -->
<g id="edge13" class="edge"><title>src/modules/Definitions.js&#45;&gt;src/modules/product/Definitions.js</title>
<path fill="none" stroke="#757575" d="M409.179,-144.03C441.687,-149.117 480.061,-155.122 513.659,-160.38"/>
<polygon fill="#757575" stroke="#757575" points="513.5,-163.897 523.921,-161.986 514.582,-156.982 513.5,-163.897"/>
</g>
<!-- src/modules/user/Definitions.js -->
<g id="node16" class="node"><title>src/modules/user/Definitions.js</title>
<path fill="none" stroke="#c6c5fe" d="M696.333,-144C696.333,-144 500.667,-144 500.667,-144 496.833,-144 493,-140.167 493,-136.333 493,-136.333 493,-128.667 493,-128.667 493,-124.833 496.833,-121 500.667,-121 500.667,-121 696.333,-121 696.333,-121 700.167,-121 704,-124.833 704,-128.667 704,-128.667 704,-136.333 704,-136.333 704,-140.167 700.167,-144 696.333,-144"/>
<text text-anchor="middle" x="598.5" y="-128.8" font-family="Arial" font-size="14.00" fill="#c6c5fe">src/modules/user/Definitions.js</text>
</g>
<!-- src/modules/Definitions.js&#45;&gt;src/modules/user/Definitions.js -->
<g id="edge14" class="edge"><title>src/modules/Definitions.js&#45;&gt;src/modules/user/Definitions.js</title>
<path fill="none" stroke="#757575" d="M424.201,-132.5C442.911,-132.5 462.91,-132.5 482.431,-132.5"/>
<polygon fill="#757575" stroke="#757575" points="482.586,-136 492.586,-132.5 482.586,-129 482.586,-136"/>
</g>
<!-- src/modules/authentication/Definitions.js&#45;&gt;config.js -->
<g id="edge15" class="edge"><title>src/modules/authentication/Definitions.js&#45;&gt;config.js</title>
<path fill="none" stroke="#757575" d="M733.134,-92.7154C816.468,-94.7369 925.791,-99.685 1022,-111.5 1117.93,-123.281 1228.56,-148.126 1288.44,-162.533"/>
<polygon fill="#757575" stroke="#757575" points="1287.77,-165.971 1298.31,-164.924 1289.42,-159.168 1287.77,-165.971"/>
</g>
<!-- src/modules/authentication/Definitions.js&#45;&gt;src/core/index.js -->
<g id="edge16" class="edge"><title>src/modules/authentication/Definitions.js&#45;&gt;src/core/index.js</title>
<path fill="none" stroke="#757575" d="M733.197,-81.2212C745.303,-80.298 757.375,-79.38 769,-78.5 865.735,-71.1767 977.607,-62.8426 1047.83,-57.6273"/>
<polygon fill="#757575" stroke="#757575" points="1048.17,-61.1118 1057.89,-56.8809 1047.65,-54.131 1048.17,-61.1118"/>
</g>
<!-- src/modules/user/UserModel.js -->
<g id="node17" class="node"><title>src/modules/user/UserModel.js</title>
<path fill="none" stroke="#c6c5fe" d="M994.333,-144C994.333,-144 796.667,-144 796.667,-144 792.833,-144 789,-140.167 789,-136.333 789,-136.333 789,-128.667 789,-128.667 789,-124.833 792.833,-121 796.667,-121 796.667,-121 994.333,-121 994.333,-121 998.167,-121 1002,-124.833 1002,-128.667 1002,-128.667 1002,-136.333 1002,-136.333 1002,-140.167 998.167,-144 994.333,-144"/>
<text text-anchor="middle" x="895.5" y="-128.8" font-family="Arial" font-size="14.00" fill="#c6c5fe">src/modules/user/UserModel.js</text>
</g>
<!-- src/modules/authentication/Definitions.js&#45;&gt;src/modules/user/UserModel.js -->
<g id="edge17" class="edge"><title>src/modules/authentication/Definitions.js&#45;&gt;src/modules/user/UserModel.js</title>
<path fill="none" stroke="#757575" d="M682.459,-103.03C719.535,-108.183 763.387,-114.278 801.564,-119.583"/>
<polygon fill="#757575" stroke="#757575" points="801.266,-123.076 811.653,-120.986 802.23,-116.142 801.266,-123.076"/>
</g>
<!-- src/modules/product/Definitions.js&#45;&gt;src/core/Storage.js -->
<g id="edge18" class="edge"><title>src/modules/product/Definitions.js&#45;&gt;src/core/Storage.js</title>
<path fill="none" stroke="#757575" d="M682.459,-185.03C724.494,-190.872 775.241,-197.925 816.55,-203.666"/>
<polygon fill="#757575" stroke="#757575" points="816.178,-207.148 826.565,-205.058 817.142,-200.215 816.178,-207.148"/>
</g>
<!-- src/modules/product/ProductModel.js -->
<g id="node18" class="node"><title>src/modules/product/ProductModel.js</title>
<path fill="none" stroke="#c6c5fe" d="M1014.33,-185C1014.33,-185 776.667,-185 776.667,-185 772.833,-185 769,-181.167 769,-177.333 769,-177.333 769,-169.667 769,-169.667 769,-165.833 772.833,-162 776.667,-162 776.667,-162 1014.33,-162 1014.33,-162 1018.17,-162 1022,-165.833 1022,-169.667 1022,-169.667 1022,-177.333 1022,-177.333 1022,-181.167 1018.17,-185 1014.33,-185"/>
<text text-anchor="middle" x="895.5" y="-169.8" font-family="Arial" font-size="14.00" fill="#c6c5fe">src/modules/product/ProductModel.js</text>
</g>
<!-- src/modules/product/Definitions.js&#45;&gt;src/modules/product/ProductModel.js -->
<g id="edge19" class="edge"><title>src/modules/product/Definitions.js&#45;&gt;src/modules/product/ProductModel.js</title>
<path fill="none" stroke="#757575" d="M714.399,-173.5C728.858,-173.5 743.757,-173.5 758.502,-173.5"/>
<polygon fill="#757575" stroke="#757575" points="758.678,-177 768.678,-173.5 758.678,-170 758.678,-177"/>
</g>
<!-- src/modules/user/Definitions.js&#45;&gt;src/modules/user/UserModel.js -->
<g id="edge22" class="edge"><title>src/modules/user/Definitions.js&#45;&gt;src/modules/user/UserModel.js</title>
<path fill="none" stroke="#757575" d="M704.337,-132.5C728.353,-132.5 754.021,-132.5 778.477,-132.5"/>
<polygon fill="#757575" stroke="#757575" points="778.509,-136 788.509,-132.5 778.509,-129 778.509,-136"/>
</g>
<!-- src/modules/user/UserModel.js&#45;&gt;src/database.js -->
<g id="edge24" class="edge"><title>src/modules/user/UserModel.js&#45;&gt;src/database.js</title>
<path fill="none" stroke="#757575" d="M973.616,-144.048C989.639,-146.655 1006.39,-149.534 1022,-152.5 1033.42,-154.671 1045.57,-157.192 1057.23,-159.719"/>
<polygon fill="#757575" stroke="#757575" points="1056.8,-163.208 1067.32,-161.933 1058.3,-156.371 1056.8,-163.208"/>
</g>
<!-- src/modules/user/UserModel.js&#45;&gt;src/core/index.js -->
<g id="edge23" class="edge"><title>src/modules/user/UserModel.js&#45;&gt;src/core/index.js</title>
<path fill="none" stroke="#757575" d="M928.563,-120.867C967.458,-106.756 1033.1,-82.9395 1075.74,-67.4711"/>
<polygon fill="#757575" stroke="#757575" points="1077.05,-70.7177 1085.26,-64.0169 1074.66,-64.1374 1077.05,-70.7177"/>
</g>
<!-- src/modules/product/ProductModel.js&#45;&gt;src/database.js -->
<g id="edge21" class="edge"><title>src/modules/product/ProductModel.js&#45;&gt;src/database.js</title>
<path fill="none" stroke="#757575" d="M1022.21,-173.5C1032.12,-173.5 1041.85,-173.5 1051.09,-173.5"/>
<polygon fill="#757575" stroke="#757575" points="1051.3,-177 1061.3,-173.5 1051.3,-170 1051.3,-177"/>
</g>
<!-- src/modules/product/ProductModel.js&#45;&gt;src/core/index.js -->
<g id="edge20" class="edge"><title>src/modules/product/ProductModel.js&#45;&gt;src/core/index.js</title>
<path fill="none" stroke="#757575" d="M999.693,-161.897C1007.45,-159.329 1014.98,-156.232 1022,-152.5 1057.84,-133.455 1087.87,-95.7905 1104.07,-72.5124"/>
<polygon fill="#757575" stroke="#757575" points="1107.07,-74.3246 1109.77,-64.0799 1101.27,-70.4039 1107.07,-74.3246"/>
</g>
</g>
</svg>
