<?xml version="1.0" encoding="UTF-8" standalone="no"?>
<!DOCTYPE svg PUBLIC "-//W3C//DTD SVG 1.1//EN"
 "http://www.w3.org/Graphics/SVG/1.1/DTD/svg11.dtd">
<!-- Generated by graphviz version 2.38.0 (20140413.2041)
 -->
<!-- Title: G Pages: 1 -->
<svg width="1838pt" height="336pt"
 viewBox="0.00 0.00 1838.20 335.70" xmlns="http://www.w3.org/2000/svg" xmlns:xlink="http://www.w3.org/1999/xlink">
<g id="graph0" class="graph" transform="scale(1 1) rotate(0) translate(21.6 314.1)">
<title>G</title>
<polygon fill="#111111" stroke="none" points="-21.6,21.6 -21.6,-314.1 1816.6,-314.1 1816.6,21.6 -21.6,21.6"/>
<!-- config.js -->
<g id="node1" class="node"><title>config.js</title>
<path fill="none" stroke="#cfffac" d="M1468.83,-185C1468.83,-185 1414.17,-185 1414.17,-185 1410.33,-185 1406.5,-181.167 1406.5,-177.333 1406.5,-177.333 1406.5,-169.667 1406.5,-169.667 1406.5,-165.833 1410.33,-162 1414.17,-162 1414.17,-162 1468.83,-162 1468.83,-162 1472.67,-162 1476.5,-165.833 1476.5,-169.667 1476.5,-169.667 1476.5,-177.333 1476.5,-177.333 1476.5,-181.167 1472.67,-185 1468.83,-185"/>
<text text-anchor="middle" x="1441.5" y="-169.8" font-family="Arial" font-size="14.00" fill="#cfffac">config.js</text>
</g>
<!-- index.js -->
<g id="node2" class="node"><title>index.js</title>
<path fill="none" stroke="#c6c5fe" d="M111.333,-266C111.333,-266 61.6667,-266 61.6667,-266 57.8333,-266 54,-262.167 54,-258.333 54,-258.333 54,-250.667 54,-250.667 54,-246.833 57.8333,-243 61.6667,-243 61.6667,-243 111.333,-243 111.333,-243 115.167,-243 119,-246.833 119,-250.667 119,-250.667 119,-258.333 119,-258.333 119,-262.167 115.167,-266 111.333,-266"/>
<text text-anchor="middle" x="86.5" y="-250.8" font-family="Arial" font-size="14.00" fill="#c6c5fe">index.js</text>
</g>
<!-- index.js&#45;&gt;config.js -->
<g id="edge1" class="edge"><title>index.js&#45;&gt;config.js</title>
<path fill="none" stroke="#757575" d="M119.11,-260.189C180.851,-270.79 321.895,-292.5 441.5,-292.5 441.5,-292.5 441.5,-292.5 1004.5,-292.5 1159.25,-292.5 1334.34,-221.871 1406.58,-189.438"/>
<polygon fill="#757575" stroke="#757575" points="1408.42,-192.447 1416.07,-185.127 1405.52,-186.073 1408.42,-192.447"/>
</g>
<!-- src/core/Storage.js -->
<g id="node3" class="node"><title>src/core/Storage.js</title>
<path fill="none" stroke="#c6c5fe" d="M1064.33,-226C1064.33,-226 942.667,-226 942.667,-226 938.833,-226 935,-222.167 935,-218.333 935,-218.333 935,-210.667 935,-210.667 935,-206.833 938.833,-203 942.667,-203 942.667,-203 1064.33,-203 1064.33,-203 1068.17,-203 1072,-206.833 1072,-210.667 1072,-210.667 1072,-218.333 1072,-218.333 1072,-222.167 1068.17,-226 1064.33,-226"/>
<text text-anchor="middle" x="1003.5" y="-210.8" font-family="Arial" font-size="14.00" fill="#c6c5fe">src/core/Storage.js</text>
</g>
<!-- index.js&#45;&gt;src/core/Storage.js -->
<g id="edge2" class="edge"><title>index.js&#45;&gt;src/core/Storage.js</title>
<path fill="none" stroke="#757575" d="M119.14,-254.753C222.828,-255.35 561.74,-255.449 841,-234.5 868.355,-232.448 898.192,-229.075 924.693,-225.679"/>
<polygon fill="#757575" stroke="#757575" points="925.21,-229.142 934.674,-224.379 924.306,-222.2 925.21,-229.142"/>
</g>
<!-- src/schema.js -->
<g id="node4" class="node"><title>src/schema.js</title>
<path fill="none" stroke="#c6c5fe" d="M305.333,-185C305.333,-185 216.667,-185 216.667,-185 212.833,-185 209,-181.167 209,-177.333 209,-177.333 209,-169.667 209,-169.667 209,-165.833 212.833,-162 216.667,-162 216.667,-162 305.333,-162 305.333,-162 309.167,-162 313,-165.833 313,-169.667 313,-169.667 313,-177.333 313,-177.333 313,-181.167 309.167,-185 305.333,-185"/>
<text text-anchor="middle" x="261" y="-169.8" font-family="Arial" font-size="14.00" fill="#c6c5fe">src/schema.js</text>
</g>
<!-- index.js&#45;&gt;src/schema.js -->
<g id="edge3" class="edge"><title>index.js&#45;&gt;src/schema.js</title>
<path fill="none" stroke="#757575" d="M112.215,-242.895C142.061,-228.88 192.42,-205.233 225.934,-189.496"/>
<polygon fill="#757575" stroke="#757575" points="227.767,-192.502 235.331,-185.084 224.791,-186.166 227.767,-192.502"/>
</g>
<!-- src/database.js -->
<g id="node6" class="node"><title>src/database.js</title>
<path fill="none" stroke="#c6c5fe" d="M1274.83,-185C1274.83,-185 1177.17,-185 1177.17,-185 1173.33,-185 1169.5,-181.167 1169.5,-177.333 1169.5,-177.333 1169.5,-169.667 1169.5,-169.667 1169.5,-165.833 1173.33,-162 1177.17,-162 1177.17,-162 1274.83,-162 1274.83,-162 1278.67,-162 1282.5,-165.833 1282.5,-169.667 1282.5,-169.667 1282.5,-177.333 1282.5,-177.333 1282.5,-181.167 1278.67,-185 1274.83,-185"/>
<text text-anchor="middle" x="1226" y="-169.8" font-family="Arial" font-size="14.00" fill="#c6c5fe">src/database.js</text>
</g>
<!-- src/core/Storage.js&#45;&gt;src/database.js -->
<g id="edge5" class="edge"><title>src/core/Storage.js&#45;&gt;src/database.js</title>
<path fill="none" stroke="#757575" d="M1072,-203.736C1090.81,-200.593 1111.22,-197.046 1130,-193.5 1140.29,-191.556 1151.18,-189.378 1161.78,-187.193"/>
<polygon fill="#757575" stroke="#757575" points="1162.74,-190.568 1171.82,-185.104 1161.32,-183.715 1162.74,-190.568"/>
</g>
<!-- src/interfaces/Definitions.js -->
<g id="node12" class="node"><title>src/interfaces/Definitions.js</title>
<path fill="none" stroke="#cfffac" d="M528.333,-103C528.333,-103 356.667,-103 356.667,-103 352.833,-103 349,-99.1667 349,-95.3333 349,-95.3333 349,-87.6667 349,-87.6667 349,-83.8333 352.833,-80 356.667,-80 356.667,-80 528.333,-80 528.333,-80 532.167,-80 536,-83.8333 536,-87.6667 536,-87.6667 536,-95.3333 536,-95.3333 536,-99.1667 532.167,-103 528.333,-103"/>
<text text-anchor="middle" x="442.5" y="-87.8" font-family="Arial" font-size="14.00" fill="#cfffac">src/interfaces/Definitions.js</text>
</g>
<!-- src/schema.js&#45;&gt;src/interfaces/Definitions.js -->
<g id="edge26" class="edge"><title>src/schema.js&#45;&gt;src/interfaces/Definitions.js</title>
<path fill="none" stroke="#757575" d="M274.81,-161.773C290.918,-147.675 319.99,-124.318 349,-111.5 353.462,-109.529 358.132,-107.746 362.904,-106.134"/>
<polygon fill="#757575" stroke="#757575" points="364.292,-109.368 372.804,-103.06 362.216,-102.682 364.292,-109.368"/>
</g>
<!-- src/modules/Definitions.js -->
<g id="node13" class="node"><title>src/modules/Definitions.js</title>
<path fill="none" stroke="#c6c5fe" d="M524.333,-144C524.333,-144 360.667,-144 360.667,-144 356.833,-144 353,-140.167 353,-136.333 353,-136.333 353,-128.667 353,-128.667 353,-124.833 356.833,-121 360.667,-121 360.667,-121 524.333,-121 524.333,-121 528.167,-121 532,-124.833 532,-128.667 532,-128.667 532,-136.333 532,-136.333 532,-140.167 528.167,-144 524.333,-144"/>
<text text-anchor="middle" x="442.5" y="-128.8" font-family="Arial" font-size="14.00" fill="#c6c5fe">src/modules/Definitions.js</text>
</g>
<!-- src/schema.js&#45;&gt;src/modules/Definitions.js -->
<g id="edge27" class="edge"><title>src/schema.js&#45;&gt;src/modules/Definitions.js</title>
<path fill="none" stroke="#757575" d="M308.909,-161.96C321.881,-158.828 335.974,-155.48 349,-152.5 358.153,-150.406 367.829,-148.25 377.339,-146.165"/>
<polygon fill="#757575" stroke="#757575" points="378.135,-149.573 387.16,-144.022 376.643,-142.734 378.135,-149.573"/>
</g>
<!-- src/scalars/Definitions.js -->
<g id="node20" class="node"><title>src/scalars/Definitions.js</title>
<path fill="none" stroke="#cfffac" d="M519.833,-226C519.833,-226 365.167,-226 365.167,-226 361.333,-226 357.5,-222.167 357.5,-218.333 357.5,-218.333 357.5,-210.667 357.5,-210.667 357.5,-206.833 361.333,-203 365.167,-203 365.167,-203 519.833,-203 519.833,-203 523.667,-203 527.5,-206.833 527.5,-210.667 527.5,-210.667 527.5,-218.333 527.5,-218.333 527.5,-222.167 523.667,-226 519.833,-226"/>
<text text-anchor="middle" x="442.5" y="-210.8" font-family="Arial" font-size="14.00" fill="#cfffac">src/scalars/Definitions.js</text>
</g>
<!-- src/schema.js&#45;&gt;src/scalars/Definitions.js -->
<g id="edge28" class="edge"><title>src/schema.js&#45;&gt;src/scalars/Definitions.js</title>
<path fill="none" stroke="#757575" d="M312.141,-185.051C324.21,-187.825 337.064,-190.773 349,-193.5 359.219,-195.835 370.076,-198.307 380.621,-200.703"/>
<polygon fill="#757575" stroke="#757575" points="380.077,-204.169 390.604,-202.971 381.628,-197.343 380.077,-204.169"/>
</g>
<!-- src/types/Definitions.js -->
<g id="node21" class="node"><title>src/types/Definitions.js</title>
<path fill="none" stroke="#cfffac" d="M514.333,-185C514.333,-185 370.667,-185 370.667,-185 366.833,-185 363,-181.167 363,-177.333 363,-177.333 363,-169.667 363,-169.667 363,-165.833 366.833,-162 370.667,-162 370.667,-162 514.333,-162 514.333,-162 518.167,-162 522,-165.833 522,-169.667 522,-169.667 522,-177.333 522,-177.333 522,-181.167 518.167,-185 514.333,-185"/>
<text text-anchor="middle" x="442.5" y="-169.8" font-family="Arial" font-size="14.00" fill="#cfffac">src/types/Definitions.js</text>
</g>
<!-- src/schema.js&#45;&gt;src/types/Definitions.js -->
<g id="edge29" class="edge"><title>src/schema.js&#45;&gt;src/types/Definitions.js</title>
<path fill="none" stroke="#757575" d="M313.437,-173.5C325.738,-173.5 339.221,-173.5 352.675,-173.5"/>
<polygon fill="#757575" stroke="#757575" points="352.939,-177 362.939,-173.5 352.939,-170 352.939,-177"/>
</g>
<!-- scripts/updateSchema.js -->
<g id="node5" class="node"><title>scripts/updateSchema.js</title>
<path fill="none" stroke="#c6c5fe" d="M165.333,-185C165.333,-185 7.66667,-185 7.66667,-185 3.83333,-185 0,-181.167 0,-177.333 0,-177.333 0,-169.667 0,-169.667 0,-165.833 3.83333,-162 7.66667,-162 7.66667,-162 165.333,-162 165.333,-162 169.167,-162 173,-165.833 173,-169.667 173,-169.667 173,-177.333 173,-177.333 173,-181.167 169.167,-185 165.333,-185"/>
<text text-anchor="middle" x="86.5" y="-169.8" font-family="Arial" font-size="14.00" fill="#c6c5fe">scripts/updateSchema.js</text>
</g>
<!-- scripts/updateSchema.js&#45;&gt;src/schema.js -->
<g id="edge4" class="edge"><title>scripts/updateSchema.js&#45;&gt;src/schema.js</title>
<path fill="none" stroke="#757575" d="M173.245,-173.5C181.806,-173.5 190.374,-173.5 198.611,-173.5"/>
<polygon fill="#757575" stroke="#757575" points="198.843,-177 208.843,-173.5 198.842,-170 198.843,-177"/>
</g>
<!-- src/database.js&#45;&gt;config.js -->
<g id="edge10" class="edge"><title>src/database.js&#45;&gt;config.js</title>
<path fill="none" stroke="#757575" d="M1282.54,-173.5C1317.88,-173.5 1363.03,-173.5 1396.01,-173.5"/>
<polygon fill="#757575" stroke="#757575" points="1396.26,-177 1406.26,-173.5 1396.26,-170 1396.26,-177"/>
</g>
<!-- src/core/applyInterceptor.js -->
<g id="node7" class="node"><title>src/core/applyInterceptor.js</title>
<path fill="none" stroke="#cfffac" d="M1528.33,-105C1528.33,-105 1354.67,-105 1354.67,-105 1350.83,-105 1347,-101.167 1347,-97.3333 1347,-97.3333 1347,-89.6667 1347,-89.6667 1347,-85.8333 1350.83,-82 1354.67,-82 1354.67,-82 1528.33,-82 1528.33,-82 1532.17,-82 1536,-85.8333 1536,-89.6667 1536,-89.6667 1536,-97.3333 1536,-97.3333 1536,-101.167 1532.17,-105 1528.33,-105"/>
<text text-anchor="middle" x="1441.5" y="-89.8" font-family="Arial" font-size="14.00" fill="#cfffac">src/core/applyInterceptor.js</text>
</g>
<!-- src/core/index.js -->
<g id="node8" class="node"><title>src/core/index.js</title>
<path fill="none" stroke="#c6c5fe" d="M1278.33,-64C1278.33,-64 1173.67,-64 1173.67,-64 1169.83,-64 1166,-60.1667 1166,-56.3333 1166,-56.3333 1166,-48.6667 1166,-48.6667 1166,-44.8333 1169.83,-41 1173.67,-41 1173.67,-41 1278.33,-41 1278.33,-41 1282.17,-41 1286,-44.8333 1286,-48.6667 1286,-48.6667 1286,-56.3333 1286,-56.3333 1286,-60.1667 1282.17,-64 1278.33,-64"/>
<text text-anchor="middle" x="1226" y="-48.8" font-family="Arial" font-size="14.00" fill="#c6c5fe">src/core/index.js</text>
</g>
<!-- src/core/index.js&#45;&gt;src/core/applyInterceptor.js -->
<g id="edge6" class="edge"><title>src/core/index.js&#45;&gt;src/core/applyInterceptor.js</title>
<path fill="none" stroke="#757575" d="M1280.2,-64.0139C1293.81,-66.8731 1308.43,-69.8702 1322,-72.5 1335.37,-75.0913 1349.61,-77.7243 1363.42,-80.21"/>
<polygon fill="#757575" stroke="#757575" points="1362.91,-83.6754 1373.37,-81.9911 1364.15,-76.7847 1362.91,-83.6754"/>
</g>
<!-- src/core/validateFromJoiSchema.js -->
<g id="node9" class="node"><title>src/core/validateFromJoiSchema.js</title>
<path fill="none" stroke="#cfffac" d="M1553.33,-64C1553.33,-64 1329.67,-64 1329.67,-64 1325.83,-64 1322,-60.1667 1322,-56.3333 1322,-56.3333 1322,-48.6667 1322,-48.6667 1322,-44.8333 1325.83,-41 1329.67,-41 1329.67,-41 1553.33,-41 1553.33,-41 1557.17,-41 1561,-44.8333 1561,-48.6667 1561,-48.6667 1561,-56.3333 1561,-56.3333 1561,-60.1667 1557.17,-64 1553.33,-64"/>
<text text-anchor="middle" x="1441.5" y="-48.8" font-family="Arial" font-size="14.00" fill="#cfffac">src/core/validateFromJoiSchema.js</text>
</g>
<!-- src/core/index.js&#45;&gt;src/core/validateFromJoiSchema.js -->
<g id="edge7" class="edge"><title>src/core/index.js&#45;&gt;src/core/validateFromJoiSchema.js</title>
<path fill="none" stroke="#757575" d="M1286.19,-52.5C1294.35,-52.5 1302.97,-52.5 1311.81,-52.5"/>
<polygon fill="#757575" stroke="#757575" points="1311.86,-56.0001 1321.86,-52.5 1311.86,-49.0001 1311.86,-56.0001"/>
</g>
<!-- src/core/validations/index.js -->
<g id="node10" class="node"><title>src/core/validations/index.js</title>
<path fill="none" stroke="#c6c5fe" d="M1528.83,-23C1528.83,-23 1354.17,-23 1354.17,-23 1350.33,-23 1346.5,-19.1667 1346.5,-15.3333 1346.5,-15.3333 1346.5,-7.66667 1346.5,-7.66667 1346.5,-3.83333 1350.33,-0 1354.17,-0 1354.17,-0 1528.83,-0 1528.83,-0 1532.67,-0 1536.5,-3.83333 1536.5,-7.66667 1536.5,-7.66667 1536.5,-15.3333 1536.5,-15.3333 1536.5,-19.1667 1532.67,-23 1528.83,-23"/>
<text text-anchor="middle" x="1441.5" y="-7.8" font-family="Arial" font-size="14.00" fill="#c6c5fe">src/core/validations/index.js</text>
</g>
<!-- src/core/index.js&#45;&gt;src/core/validations/index.js -->
<g id="edge8" class="edge"><title>src/core/index.js&#45;&gt;src/core/validations/index.js</title>
<path fill="none" stroke="#757575" d="M1277.19,-40.9101C1291.62,-37.7115 1307.41,-34.3419 1322,-31.5 1333.76,-29.2094 1346.21,-26.9402 1358.44,-24.7979"/>
<polygon fill="#757575" stroke="#757575" points="1359.39,-28.1856 1368.64,-23.0306 1358.19,-21.2883 1359.39,-28.1856"/>
</g>
<!-- src/core/validations/unique.js -->
<g id="node11" class="node"><title>src/core/validations/unique.js</title>
<path fill="none" stroke="#cfffac" d="M1787.33,-23C1787.33,-23 1604.67,-23 1604.67,-23 1600.83,-23 1597,-19.1667 1597,-15.3333 1597,-15.3333 1597,-7.66667 1597,-7.66667 1597,-3.83333 1600.83,-0 1604.67,-0 1604.67,-0 1787.33,-0 1787.33,-0 1791.17,-0 1795,-3.83333 1795,-7.66667 1795,-7.66667 1795,-15.3333 1795,-15.3333 1795,-19.1667 1791.17,-23 1787.33,-23"/>
<text text-anchor="middle" x="1696" y="-7.8" font-family="Arial" font-size="14.00" fill="#cfffac">src/core/validations/unique.js</text>
</g>
<!-- src/core/validations/index.js&#45;&gt;src/core/validations/unique.js -->
<g id="edge9" class="edge"><title>src/core/validations/index.js&#45;&gt;src/core/validations/unique.js</title>
<path fill="none" stroke="#757575" d="M1536.52,-11.5C1552.78,-11.5 1569.8,-11.5 1586.4,-11.5"/>
<polygon fill="#757575" stroke="#757575" points="1586.68,-15.0001 1596.68,-11.5 1586.68,-8.0001 1586.68,-15.0001"/>
</g>
<!-- src/modules/Definitions.js&#45;&gt;src/core/index.js -->
<g id="edge11" class="edge"><title>src/modules/Definitions.js&#45;&gt;src/core/index.js</title>
<path fill="none" stroke="#757575" d="M515.451,-120.941C522.644,-118.395 529.632,-115.289 536,-111.5 556.84,-99.1002 550.144,-81.0053 572,-70.5 771.636,25.4572 1046.74,-14.5242 1165.96,-38.8751"/>
<polygon fill="#757575" stroke="#757575" points="1165.47,-42.3497 1175.98,-40.9607 1166.9,-35.4966 1165.47,-42.3497"/>
</g>
<!-- src/modules/attachment/Definitions.js -->
<g id="node14" class="node"><title>src/modules/attachment/Definitions.js</title>
<path fill="none" stroke="#cfffac" d="M824.833,-226C824.833,-226 588.167,-226 588.167,-226 584.333,-226 580.5,-222.167 580.5,-218.333 580.5,-218.333 580.5,-210.667 580.5,-210.667 580.5,-206.833 584.333,-203 588.167,-203 588.167,-203 824.833,-203 824.833,-203 828.667,-203 832.5,-206.833 832.5,-210.667 832.5,-210.667 832.5,-218.333 832.5,-218.333 832.5,-222.167 828.667,-226 824.833,-226"/>
<text text-anchor="middle" x="706.5" y="-210.8" font-family="Arial" font-size="14.00" fill="#cfffac">src/modules/attachment/Definitions.js</text>
</g>
<!-- src/modules/Definitions.js&#45;&gt;src/modules/attachment/Definitions.js -->
<g id="edge12" class="edge"><title>src/modules/Definitions.js&#45;&gt;src/modules/attachment/Definitions.js</title>
<path fill="none" stroke="#757575" d="M517.832,-144.073C524.182,-146.39 530.335,-149.169 536,-152.5 556.903,-164.792 550.755,-181.807 572,-193.5 575.815,-195.6 579.779,-197.506 583.85,-199.235"/>
<polygon fill="#757575" stroke="#757575" points="582.934,-202.632 593.524,-202.955 585.447,-196.099 582.934,-202.632"/>
</g>
<!-- src/modules/authentication/Definitions.js -->
<g id="node15" class="node"><title>src/modules/authentication/Definitions.js</title>
<path fill="none" stroke="#c6c5fe" d="M833.333,-103C833.333,-103 579.667,-103 579.667,-103 575.833,-103 572,-99.1667 572,-95.3333 572,-95.3333 572,-87.6667 572,-87.6667 572,-83.8333 575.833,-80 579.667,-80 579.667,-80 833.333,-80 833.333,-80 837.167,-80 841,-83.8333 841,-87.6667 841,-87.6667 841,-95.3333 841,-95.3333 841,-99.1667 837.167,-103 833.333,-103"/>
<text text-anchor="middle" x="706.5" y="-87.8" font-family="Arial" font-size="14.00" fill="#c6c5fe">src/modules/authentication/Definitions.js</text>
</g>
<!-- src/modules/Definitions.js&#45;&gt;src/modules/authentication/Definitions.js -->
<g id="edge13" class="edge"><title>src/modules/Definitions.js&#45;&gt;src/modules/authentication/Definitions.js</title>
<path fill="none" stroke="#757575" d="M512.83,-120.997C531.99,-117.865 552.794,-114.508 572,-111.5 586.72,-109.195 602.362,-106.801 617.56,-104.505"/>
<polygon fill="#757575" stroke="#757575" points="618.102,-107.963 627.469,-103.012 617.059,-101.041 618.102,-107.963"/>
</g>
<!-- src/modules/product/Definitions.js -->
<g id="node16" class="node"><title>src/modules/product/Definitions.js</title>
<path fill="none" stroke="#c6c5fe" d="M814.333,-185C814.333,-185 598.667,-185 598.667,-185 594.833,-185 591,-181.167 591,-177.333 591,-177.333 591,-169.667 591,-169.667 591,-165.833 594.833,-162 598.667,-162 598.667,-162 814.333,-162 814.333,-162 818.167,-162 822,-165.833 822,-169.667 822,-169.667 822,-177.333 822,-177.333 822,-181.167 818.167,-185 814.333,-185"/>
<text text-anchor="middle" x="706.5" y="-169.8" font-family="Arial" font-size="14.00" fill="#c6c5fe">src/modules/product/Definitions.js</text>
</g>
<!-- src/modules/Definitions.js&#45;&gt;src/modules/product/Definitions.js -->
<g id="edge14" class="edge"><title>src/modules/Definitions.js&#45;&gt;src/modules/product/Definitions.js</title>
<path fill="none" stroke="#757575" d="M517.179,-144.03C549.687,-149.117 588.061,-155.122 621.659,-160.38"/>
<polygon fill="#757575" stroke="#757575" points="621.5,-163.897 631.921,-161.986 622.582,-156.982 621.5,-163.897"/>
</g>
<!-- src/modules/user/Definitions.js -->
<g id="node17" class="node"><title>src/modules/user/Definitions.js</title>
<path fill="none" stroke="#c6c5fe" d="M804.333,-144C804.333,-144 608.667,-144 608.667,-144 604.833,-144 601,-140.167 601,-136.333 601,-136.333 601,-128.667 601,-128.667 601,-124.833 604.833,-121 608.667,-121 608.667,-121 804.333,-121 804.333,-121 808.167,-121 812,-124.833 812,-128.667 812,-128.667 812,-136.333 812,-136.333 812,-140.167 808.167,-144 804.333,-144"/>
<text text-anchor="middle" x="706.5" y="-128.8" font-family="Arial" font-size="14.00" fill="#c6c5fe">src/modules/user/Definitions.js</text>
</g>
<!-- src/modules/Definitions.js&#45;&gt;src/modules/user/Definitions.js -->
<g id="edge15" class="edge"><title>src/modules/Definitions.js&#45;&gt;src/modules/user/Definitions.js</title>
<path fill="none" stroke="#757575" d="M532.201,-132.5C550.911,-132.5 570.91,-132.5 590.431,-132.5"/>
<polygon fill="#757575" stroke="#757575" points="590.586,-136 600.586,-132.5 590.586,-129 590.586,-136"/>
</g>
<!-- src/modules/authentication/Definitions.js&#45;&gt;config.js -->
<g id="edge16" class="edge"><title>src/modules/authentication/Definitions.js&#45;&gt;config.js</title>
<path fill="none" stroke="#757575" d="M841.134,-92.7154C924.468,-94.7369 1033.79,-99.685 1130,-111.5 1225.93,-123.281 1336.56,-148.126 1396.44,-162.533"/>
<polygon fill="#757575" stroke="#757575" points="1395.77,-165.971 1406.31,-164.924 1397.42,-159.168 1395.77,-165.971"/>
</g>
<!-- src/modules/authentication/Definitions.js&#45;&gt;src/core/index.js -->
<g id="edge17" class="edge"><title>src/modules/authentication/Definitions.js&#45;&gt;src/core/index.js</title>
<path fill="none" stroke="#757575" d="M841.197,-81.2212C853.303,-80.298 865.375,-79.38 877,-78.5 973.735,-71.1767 1085.61,-62.8426 1155.83,-57.6273"/>
<polygon fill="#757575" stroke="#757575" points="1156.17,-61.1118 1165.89,-56.8809 1155.65,-54.131 1156.17,-61.1118"/>
</g>
<!-- src/modules/user/UserModel.js -->
<g id="node18" class="node"><title>src/modules/user/UserModel.js</title>
<path fill="none" stroke="#c6c5fe" d="M1102.33,-144C1102.33,-144 904.667,-144 904.667,-144 900.833,-144 897,-140.167 897,-136.333 897,-136.333 897,-128.667 897,-128.667 897,-124.833 900.833,-121 904.667,-121 904.667,-121 1102.33,-121 1102.33,-121 1106.17,-121 1110,-124.833 1110,-128.667 1110,-128.667 1110,-136.333 1110,-136.333 1110,-140.167 1106.17,-144 1102.33,-144"/>
<text text-anchor="middle" x="1003.5" y="-128.8" font-family="Arial" font-size="14.00" fill="#c6c5fe">src/modules/user/UserModel.js</text>
</g>
<!-- src/modules/authentication/Definitions.js&#45;&gt;src/modules/user/UserModel.js -->
<g id="edge18" class="edge"><title>src/modules/authentication/Definitions.js&#45;&gt;src/modules/user/UserModel.js</title>
<path fill="none" stroke="#757575" d="M790.459,-103.03C827.535,-108.183 871.387,-114.278 909.564,-119.583"/>
<polygon fill="#757575" stroke="#757575" points="909.266,-123.076 919.653,-120.986 910.23,-116.142 909.266,-123.076"/>
</g>
<!-- src/modules/product/Definitions.js&#45;&gt;src/core/Storage.js -->
<g id="edge19" class="edge"><title>src/modules/product/Definitions.js&#45;&gt;src/core/Storage.js</title>
<path fill="none" stroke="#757575" d="M790.459,-185.03C832.494,-190.872 883.241,-197.925 924.55,-203.666"/>
<polygon fill="#757575" stroke="#757575" points="924.178,-207.148 934.565,-205.058 925.142,-200.215 924.178,-207.148"/>
</g>
<!-- src/modules/product/ProductModel.js -->
<g id="node19" class="node"><title>src/modules/product/ProductModel.js</title>
<path fill="none" stroke="#c6c5fe" d="M1122.33,-185C1122.33,-185 884.667,-185 884.667,-185 880.833,-185 877,-181.167 877,-177.333 877,-177.333 877,-169.667 877,-169.667 877,-165.833 880.833,-162 884.667,-162 884.667,-162 1122.33,-162 1122.33,-162 1126.17,-162 1130,-165.833 1130,-169.667 1130,-169.667 1130,-177.333 1130,-177.333 1130,-181.167 1126.17,-185 1122.33,-185"/>
<text text-anchor="middle" x="1003.5" y="-169.8" font-family="Arial" font-size="14.00" fill="#c6c5fe">src/modules/product/ProductModel.js</text>
</g>
<!-- src/modules/product/Definitions.js&#45;&gt;src/modules/product/ProductModel.js -->
<g id="edge20" class="edge"><title>src/modules/product/Definitions.js&#45;&gt;src/modules/product/ProductModel.js</title>
<path fill="none" stroke="#757575" d="M822.399,-173.5C836.858,-173.5 851.757,-173.5 866.502,-173.5"/>
<polygon fill="#757575" stroke="#757575" points="866.678,-177 876.678,-173.5 866.678,-170 866.678,-177"/>
</g>
<!-- src/modules/user/Definitions.js&#45;&gt;src/modules/user/UserModel.js -->
<g id="edge23" class="edge"><title>src/modules/user/Definitions.js&#45;&gt;src/modules/user/UserModel.js</title>
<path fill="none" stroke="#757575" d="M812.337,-132.5C836.353,-132.5 862.021,-132.5 886.477,-132.5"/>
<polygon fill="#757575" stroke="#757575" points="886.509,-136 896.509,-132.5 886.509,-129 886.509,-136"/>
</g>
<!-- src/modules/user/UserModel.js&#45;&gt;src/database.js -->
<g id="edge25" class="edge"><title>src/modules/user/UserModel.js&#45;&gt;src/database.js</title>
<path fill="none" stroke="#757575" d="M1081.62,-144.048C1097.64,-146.655 1114.39,-149.534 1130,-152.5 1141.42,-154.671 1153.57,-157.192 1165.23,-159.719"/>
<polygon fill="#757575" stroke="#757575" points="1164.8,-163.208 1175.32,-161.933 1166.3,-156.371 1164.8,-163.208"/>
</g>
<!-- src/modules/user/UserModel.js&#45;&gt;src/core/index.js -->
<g id="edge24" class="edge"><title>src/modules/user/UserModel.js&#45;&gt;src/core/index.js</title>
<path fill="none" stroke="#757575" d="M1036.56,-120.867C1075.46,-106.756 1141.1,-82.9395 1183.74,-67.4711"/>
<polygon fill="#757575" stroke="#757575" points="1185.05,-70.7177 1193.26,-64.0169 1182.66,-64.1374 1185.05,-70.7177"/>
</g>
<!-- src/modules/product/ProductModel.js&#45;&gt;src/database.js -->
<g id="edge22" class="edge"><title>src/modules/product/ProductModel.js&#45;&gt;src/database.js</title>
<path fill="none" stroke="#757575" d="M1130.21,-173.5C1140.12,-173.5 1149.85,-173.5 1159.09,-173.5"/>
<polygon fill="#757575" stroke="#757575" points="1159.3,-177 1169.3,-173.5 1159.3,-170 1159.3,-177"/>
</g>
<!-- src/modules/product/ProductModel.js&#45;&gt;src/core/index.js -->
<g id="edge21" class="edge"><title>src/modules/product/ProductModel.js&#45;&gt;src/core/index.js</title>
<path fill="none" stroke="#757575" d="M1107.69,-161.897C1115.45,-159.329 1122.98,-156.232 1130,-152.5 1165.84,-133.455 1195.87,-95.7905 1212.07,-72.5124"/>
<polygon fill="#757575" stroke="#757575" points="1215.07,-74.3246 1217.77,-64.0799 1209.27,-70.4039 1215.07,-74.3246"/>
</g>
</g>
</svg>
