<?xml version="1.0" encoding="UTF-8" standalone="no"?>
<!DOCTYPE svg PUBLIC "-//W3C//DTD SVG 1.1//EN"
 "http://www.w3.org/Graphics/SVG/1.1/DTD/svg11.dtd">
<!-- Generated by graphviz version 2.38.0 (20140413.2041)
 -->
<!-- Title: G Pages: 1 -->
<svg width="2040pt" height="514pt"
 viewBox="0.00 0.00 2040.20 514.20" xmlns="http://www.w3.org/2000/svg" xmlns:xlink="http://www.w3.org/1999/xlink">
<g id="graph0" class="graph" transform="scale(1 1) rotate(0) translate(21.6 492.6)">
<title>G</title>
<polygon fill="#111111" stroke="none" points="-21.6,21.6 -21.6,-492.6 2018.6,-492.6 2018.6,21.6 -21.6,21.6"/>
<!-- config.js -->
<g id="node1" class="node"><title>config.js</title>
<path fill="none" stroke="#cfffac" d="M1670.83,-185C1670.83,-185 1616.17,-185 1616.17,-185 1612.33,-185 1608.5,-181.167 1608.5,-177.333 1608.5,-177.333 1608.5,-169.667 1608.5,-169.667 1608.5,-165.833 1612.33,-162 1616.17,-162 1616.17,-162 1670.83,-162 1670.83,-162 1674.67,-162 1678.5,-165.833 1678.5,-169.667 1678.5,-169.667 1678.5,-177.333 1678.5,-177.333 1678.5,-181.167 1674.67,-185 1670.83,-185"/>
<text text-anchor="middle" x="1643.5" y="-169.8" font-family="Arial" font-size="14.00" fill="#cfffac">config.js</text>
</g>
<!-- index.js -->
<g id="node2" class="node"><title>index.js</title>
<path fill="none" stroke="#c6c5fe" d="M212.333,-266C212.333,-266 162.667,-266 162.667,-266 158.833,-266 155,-262.167 155,-258.333 155,-258.333 155,-250.667 155,-250.667 155,-246.833 158.833,-243 162.667,-243 162.667,-243 212.333,-243 212.333,-243 216.167,-243 220,-246.833 220,-250.667 220,-250.667 220,-258.333 220,-258.333 220,-262.167 216.167,-266 212.333,-266"/>
<text text-anchor="middle" x="187.5" y="-250.8" font-family="Arial" font-size="14.00" fill="#c6c5fe">index.js</text>
</g>
<!-- index.js&#45;&gt;config.js -->
<g id="edge1" class="edge"><title>index.js&#45;&gt;config.js</title>
<path fill="none" stroke="#757575" d="M220.182,-257.839C309.217,-267.112 560.566,-292.5 643.5,-292.5 643.5,-292.5 643.5,-292.5 1206.5,-292.5 1361.25,-292.5 1536.34,-221.871 1608.58,-189.438"/>
<polygon fill="#757575" stroke="#757575" points="1610.42,-192.447 1618.07,-185.127 1607.52,-186.073 1610.42,-192.447"/>
</g>
<!-- src/core/Storage.js -->
<g id="node3" class="node"><title>src/core/Storage.js</title>
<path fill="none" stroke="#c6c5fe" d="M1266.33,-226C1266.33,-226 1144.67,-226 1144.67,-226 1140.83,-226 1137,-222.167 1137,-218.333 1137,-218.333 1137,-210.667 1137,-210.667 1137,-206.833 1140.83,-203 1144.67,-203 1144.67,-203 1266.33,-203 1266.33,-203 1270.17,-203 1274,-206.833 1274,-210.667 1274,-210.667 1274,-218.333 1274,-218.333 1274,-222.167 1270.17,-226 1266.33,-226"/>
<text text-anchor="middle" x="1205.5" y="-210.8" font-family="Arial" font-size="14.00" fill="#c6c5fe">src/core/Storage.js</text>
</g>
<!-- index.js&#45;&gt;src/core/Storage.js -->
<g id="edge2" class="edge"><title>index.js&#45;&gt;src/core/Storage.js</title>
<path fill="none" stroke="#757575" d="M220.369,-254.899C332.975,-256.065 722.596,-258.03 1043,-234.5 1070.36,-232.491 1100.2,-229.129 1126.7,-225.729"/>
<polygon fill="#757575" stroke="#757575" points="1127.21,-229.191 1136.68,-224.427 1126.31,-222.25 1127.21,-229.191"/>
</g>
<!-- src/schema.js -->
<g id="node4" class="node"><title>src/schema.js</title>
<path fill="none" stroke="#c6c5fe" d="M507.333,-185C507.333,-185 418.667,-185 418.667,-185 414.833,-185 411,-181.167 411,-177.333 411,-177.333 411,-169.667 411,-169.667 411,-165.833 414.833,-162 418.667,-162 418.667,-162 507.333,-162 507.333,-162 511.167,-162 515,-165.833 515,-169.667 515,-169.667 515,-177.333 515,-177.333 515,-181.167 511.167,-185 507.333,-185"/>
<text text-anchor="middle" x="463" y="-169.8" font-family="Arial" font-size="14.00" fill="#c6c5fe">src/schema.js</text>
</g>
<!-- index.js&#45;&gt;src/schema.js -->
<g id="edge3" class="edge"><title>index.js&#45;&gt;src/schema.js</title>
<path fill="none" stroke="#757575" d="M220.141,-245.129C267.497,-231.104 357.197,-204.538 413.048,-187.998"/>
<polygon fill="#757575" stroke="#757575" points="414.13,-191.327 422.725,-185.132 412.143,-184.616 414.13,-191.327"/>
</g>
<!-- src/database.js -->
<g id="node7" class="node"><title>src/database.js</title>
<path fill="none" stroke="#c6c5fe" d="M1476.83,-185C1476.83,-185 1379.17,-185 1379.17,-185 1375.33,-185 1371.5,-181.167 1371.5,-177.333 1371.5,-177.333 1371.5,-169.667 1371.5,-169.667 1371.5,-165.833 1375.33,-162 1379.17,-162 1379.17,-162 1476.83,-162 1476.83,-162 1480.67,-162 1484.5,-165.833 1484.5,-169.667 1484.5,-169.667 1484.5,-177.333 1484.5,-177.333 1484.5,-181.167 1480.67,-185 1476.83,-185"/>
<text text-anchor="middle" x="1428" y="-169.8" font-family="Arial" font-size="14.00" fill="#c6c5fe">src/database.js</text>
</g>
<!-- src/core/Storage.js&#45;&gt;src/database.js -->
<g id="edge5" class="edge"><title>src/core/Storage.js&#45;&gt;src/database.js</title>
<path fill="none" stroke="#757575" d="M1274,-203.736C1292.81,-200.593 1313.22,-197.046 1332,-193.5 1342.29,-191.556 1353.18,-189.378 1363.78,-187.193"/>
<polygon fill="#757575" stroke="#757575" points="1364.74,-190.568 1373.82,-185.104 1363.32,-183.715 1364.74,-190.568"/>
</g>
<!-- src/interfaces/Definitions.js -->
<g id="node13" class="node"><title>src/interfaces/Definitions.js</title>
<path fill="none" stroke="#cfffac" d="M730.333,-103C730.333,-103 558.667,-103 558.667,-103 554.833,-103 551,-99.1667 551,-95.3333 551,-95.3333 551,-87.6667 551,-87.6667 551,-83.8333 554.833,-80 558.667,-80 558.667,-80 730.333,-80 730.333,-80 734.167,-80 738,-83.8333 738,-87.6667 738,-87.6667 738,-95.3333 738,-95.3333 738,-99.1667 734.167,-103 730.333,-103"/>
<text text-anchor="middle" x="644.5" y="-87.8" font-family="Arial" font-size="14.00" fill="#cfffac">src/interfaces/Definitions.js</text>
</g>
<!-- src/schema.js&#45;&gt;src/interfaces/Definitions.js -->
<g id="edge26" class="edge"><title>src/schema.js&#45;&gt;src/interfaces/Definitions.js</title>
<path fill="none" stroke="#757575" d="M476.81,-161.773C492.918,-147.675 521.99,-124.318 551,-111.5 555.462,-109.529 560.132,-107.746 564.904,-106.134"/>
<polygon fill="#757575" stroke="#757575" points="566.292,-109.368 574.804,-103.06 564.216,-102.682 566.292,-109.368"/>
</g>
<!-- src/modules/Definitions.js -->
<g id="node14" class="node"><title>src/modules/Definitions.js</title>
<path fill="none" stroke="#c6c5fe" d="M726.333,-144C726.333,-144 562.667,-144 562.667,-144 558.833,-144 555,-140.167 555,-136.333 555,-136.333 555,-128.667 555,-128.667 555,-124.833 558.833,-121 562.667,-121 562.667,-121 726.333,-121 726.333,-121 730.167,-121 734,-124.833 734,-128.667 734,-128.667 734,-136.333 734,-136.333 734,-140.167 730.167,-144 726.333,-144"/>
<text text-anchor="middle" x="644.5" y="-128.8" font-family="Arial" font-size="14.00" fill="#c6c5fe">src/modules/Definitions.js</text>
</g>
<!-- src/schema.js&#45;&gt;src/modules/Definitions.js -->
<g id="edge27" class="edge"><title>src/schema.js&#45;&gt;src/modules/Definitions.js</title>
<path fill="none" stroke="#757575" d="M510.909,-161.96C523.881,-158.828 537.974,-155.48 551,-152.5 560.153,-150.406 569.829,-148.25 579.339,-146.165"/>
<polygon fill="#757575" stroke="#757575" points="580.135,-149.573 589.16,-144.022 578.643,-142.734 580.135,-149.573"/>
</g>
<!-- src/scalars/Definitions.js -->
<g id="node22" class="node"><title>src/scalars/Definitions.js</title>
<path fill="none" stroke="#cfffac" d="M721.833,-226C721.833,-226 567.167,-226 567.167,-226 563.333,-226 559.5,-222.167 559.5,-218.333 559.5,-218.333 559.5,-210.667 559.5,-210.667 559.5,-206.833 563.333,-203 567.167,-203 567.167,-203 721.833,-203 721.833,-203 725.667,-203 729.5,-206.833 729.5,-210.667 729.5,-210.667 729.5,-218.333 729.5,-218.333 729.5,-222.167 725.667,-226 721.833,-226"/>
<text text-anchor="middle" x="644.5" y="-210.8" font-family="Arial" font-size="14.00" fill="#cfffac">src/scalars/Definitions.js</text>
</g>
<!-- src/schema.js&#45;&gt;src/scalars/Definitions.js -->
<g id="edge28" class="edge"><title>src/schema.js&#45;&gt;src/scalars/Definitions.js</title>
<path fill="none" stroke="#757575" d="M514.141,-185.051C526.21,-187.825 539.064,-190.773 551,-193.5 561.219,-195.835 572.076,-198.307 582.621,-200.703"/>
<polygon fill="#757575" stroke="#757575" points="582.077,-204.169 592.604,-202.971 583.628,-197.343 582.077,-204.169"/>
</g>
<!-- src/types/Definitions.js -->
<g id="node23" class="node"><title>src/types/Definitions.js</title>
<path fill="none" stroke="#cfffac" d="M716.333,-185C716.333,-185 572.667,-185 572.667,-185 568.833,-185 565,-181.167 565,-177.333 565,-177.333 565,-169.667 565,-169.667 565,-165.833 568.833,-162 572.667,-162 572.667,-162 716.333,-162 716.333,-162 720.167,-162 724,-165.833 724,-169.667 724,-169.667 724,-177.333 724,-177.333 724,-181.167 720.167,-185 716.333,-185"/>
<text text-anchor="middle" x="644.5" y="-169.8" font-family="Arial" font-size="14.00" fill="#cfffac">src/types/Definitions.js</text>
</g>
<!-- src/schema.js&#45;&gt;src/types/Definitions.js -->
<g id="edge29" class="edge"><title>src/schema.js&#45;&gt;src/types/Definitions.js</title>
<path fill="none" stroke="#757575" d="M515.437,-173.5C527.738,-173.5 541.221,-173.5 554.675,-173.5"/>
<polygon fill="#757575" stroke="#757575" points="554.939,-177 564.939,-173.5 554.939,-170 554.939,-177"/>
</g>
<!-- jest.config.js -->
<g id="node5" class="node"><title>jest.config.js</title>
<path fill="none" stroke="#cfffac" d="M227.833,-307C227.833,-307 147.167,-307 147.167,-307 143.333,-307 139.5,-303.167 139.5,-299.333 139.5,-299.333 139.5,-291.667 139.5,-291.667 139.5,-287.833 143.333,-284 147.167,-284 147.167,-284 227.833,-284 227.833,-284 231.667,-284 235.5,-287.833 235.5,-291.667 235.5,-291.667 235.5,-299.333 235.5,-299.333 235.5,-303.167 231.667,-307 227.833,-307"/>
<text text-anchor="middle" x="187.5" y="-291.8" font-family="Arial" font-size="14.00" fill="#cfffac">jest.config.js</text>
</g>
<!-- scripts/updateSchema.js -->
<g id="node6" class="node"><title>scripts/updateSchema.js</title>
<path fill="none" stroke="#c6c5fe" d="M266.333,-185C266.333,-185 108.667,-185 108.667,-185 104.833,-185 101,-181.167 101,-177.333 101,-177.333 101,-169.667 101,-169.667 101,-165.833 104.833,-162 108.667,-162 108.667,-162 266.333,-162 266.333,-162 270.167,-162 274,-165.833 274,-169.667 274,-169.667 274,-177.333 274,-177.333 274,-181.167 270.167,-185 266.333,-185"/>
<text text-anchor="middle" x="187.5" y="-169.8" font-family="Arial" font-size="14.00" fill="#c6c5fe">scripts/updateSchema.js</text>
</g>
<!-- scripts/updateSchema.js&#45;&gt;src/schema.js -->
<g id="edge4" class="edge"><title>scripts/updateSchema.js&#45;&gt;src/schema.js</title>
<path fill="none" stroke="#757575" d="M274.287,-173.5C315.24,-173.5 363.31,-173.5 400.553,-173.5"/>
<polygon fill="#757575" stroke="#757575" points="400.755,-177 410.755,-173.5 400.755,-170 400.755,-177"/>
</g>
<!-- src/database.js&#45;&gt;config.js -->
<g id="edge10" class="edge"><title>src/database.js&#45;&gt;config.js</title>
<path fill="none" stroke="#757575" d="M1484.54,-173.5C1519.88,-173.5 1565.03,-173.5 1598.01,-173.5"/>
<polygon fill="#757575" stroke="#757575" points="1598.26,-177 1608.26,-173.5 1598.26,-170 1598.26,-177"/>
</g>
<!-- src/core/applyInterceptor.js -->
<g id="node8" class="node"><title>src/core/applyInterceptor.js</title>
<path fill="none" stroke="#cfffac" d="M1730.33,-105C1730.33,-105 1556.67,-105 1556.67,-105 1552.83,-105 1549,-101.167 1549,-97.3333 1549,-97.3333 1549,-89.6667 1549,-89.6667 1549,-85.8333 1552.83,-82 1556.67,-82 1556.67,-82 1730.33,-82 1730.33,-82 1734.17,-82 1738,-85.8333 1738,-89.6667 1738,-89.6667 1738,-97.3333 1738,-97.3333 1738,-101.167 1734.17,-105 1730.33,-105"/>
<text text-anchor="middle" x="1643.5" y="-89.8" font-family="Arial" font-size="14.00" fill="#cfffac">src/core/applyInterceptor.js</text>
</g>
<!-- src/core/index.js -->
<g id="node9" class="node"><title>src/core/index.js</title>
<path fill="none" stroke="#c6c5fe" d="M1480.33,-64C1480.33,-64 1375.67,-64 1375.67,-64 1371.83,-64 1368,-60.1667 1368,-56.3333 1368,-56.3333 1368,-48.6667 1368,-48.6667 1368,-44.8333 1371.83,-41 1375.67,-41 1375.67,-41 1480.33,-41 1480.33,-41 1484.17,-41 1488,-44.8333 1488,-48.6667 1488,-48.6667 1488,-56.3333 1488,-56.3333 1488,-60.1667 1484.17,-64 1480.33,-64"/>
<text text-anchor="middle" x="1428" y="-48.8" font-family="Arial" font-size="14.00" fill="#c6c5fe">src/core/index.js</text>
</g>
<!-- src/core/index.js&#45;&gt;src/core/applyInterceptor.js -->
<g id="edge6" class="edge"><title>src/core/index.js&#45;&gt;src/core/applyInterceptor.js</title>
<path fill="none" stroke="#757575" d="M1482.2,-64.0139C1495.81,-66.8731 1510.43,-69.8702 1524,-72.5 1537.37,-75.0913 1551.61,-77.7243 1565.42,-80.21"/>
<polygon fill="#757575" stroke="#757575" points="1564.91,-83.6754 1575.37,-81.9911 1566.15,-76.7847 1564.91,-83.6754"/>
</g>
<!-- src/core/validateFromJoiSchema.js -->
<g id="node10" class="node"><title>src/core/validateFromJoiSchema.js</title>
<path fill="none" stroke="#cfffac" d="M1755.33,-64C1755.33,-64 1531.67,-64 1531.67,-64 1527.83,-64 1524,-60.1667 1524,-56.3333 1524,-56.3333 1524,-48.6667 1524,-48.6667 1524,-44.8333 1527.83,-41 1531.67,-41 1531.67,-41 1755.33,-41 1755.33,-41 1759.17,-41 1763,-44.8333 1763,-48.6667 1763,-48.6667 1763,-56.3333 1763,-56.3333 1763,-60.1667 1759.17,-64 1755.33,-64"/>
<text text-anchor="middle" x="1643.5" y="-48.8" font-family="Arial" font-size="14.00" fill="#cfffac">src/core/validateFromJoiSchema.js</text>
</g>
<!-- src/core/index.js&#45;&gt;src/core/validateFromJoiSchema.js -->
<g id="edge7" class="edge"><title>src/core/index.js&#45;&gt;src/core/validateFromJoiSchema.js</title>
<path fill="none" stroke="#757575" d="M1488.19,-52.5C1496.35,-52.5 1504.97,-52.5 1513.81,-52.5"/>
<polygon fill="#757575" stroke="#757575" points="1513.86,-56.0001 1523.86,-52.5 1513.86,-49.0001 1513.86,-56.0001"/>
</g>
<!-- src/core/validations/index.js -->
<g id="node11" class="node"><title>src/core/validations/index.js</title>
<path fill="none" stroke="#c6c5fe" d="M1730.83,-23C1730.83,-23 1556.17,-23 1556.17,-23 1552.33,-23 1548.5,-19.1667 1548.5,-15.3333 1548.5,-15.3333 1548.5,-7.66667 1548.5,-7.66667 1548.5,-3.83333 1552.33,-0 1556.17,-0 1556.17,-0 1730.83,-0 1730.83,-0 1734.67,-0 1738.5,-3.83333 1738.5,-7.66667 1738.5,-7.66667 1738.5,-15.3333 1738.5,-15.3333 1738.5,-19.1667 1734.67,-23 1730.83,-23"/>
<text text-anchor="middle" x="1643.5" y="-7.8" font-family="Arial" font-size="14.00" fill="#c6c5fe">src/core/validations/index.js</text>
</g>
<!-- src/core/index.js&#45;&gt;src/core/validations/index.js -->
<g id="edge8" class="edge"><title>src/core/index.js&#45;&gt;src/core/validations/index.js</title>
<path fill="none" stroke="#757575" d="M1479.19,-40.9101C1493.62,-37.7115 1509.41,-34.3419 1524,-31.5 1535.76,-29.2094 1548.21,-26.9402 1560.44,-24.7979"/>
<polygon fill="#757575" stroke="#757575" points="1561.39,-28.1856 1570.64,-23.0306 1560.19,-21.2883 1561.39,-28.1856"/>
</g>
<!-- src/core/validations/unique.js -->
<g id="node12" class="node"><title>src/core/validations/unique.js</title>
<path fill="none" stroke="#cfffac" d="M1989.33,-23C1989.33,-23 1806.67,-23 1806.67,-23 1802.83,-23 1799,-19.1667 1799,-15.3333 1799,-15.3333 1799,-7.66667 1799,-7.66667 1799,-3.83333 1802.83,-0 1806.67,-0 1806.67,-0 1989.33,-0 1989.33,-0 1993.17,-0 1997,-3.83333 1997,-7.66667 1997,-7.66667 1997,-15.3333 1997,-15.3333 1997,-19.1667 1993.17,-23 1989.33,-23"/>
<text text-anchor="middle" x="1898" y="-7.8" font-family="Arial" font-size="14.00" fill="#cfffac">src/core/validations/unique.js</text>
</g>
<!-- src/core/validations/index.js&#45;&gt;src/core/validations/unique.js -->
<g id="edge9" class="edge"><title>src/core/validations/index.js&#45;&gt;src/core/validations/unique.js</title>
<path fill="none" stroke="#757575" d="M1738.52,-11.5C1754.78,-11.5 1771.8,-11.5 1788.4,-11.5"/>
<polygon fill="#757575" stroke="#757575" points="1788.68,-15.0001 1798.68,-11.5 1788.68,-8.0001 1788.68,-15.0001"/>
</g>
<!-- src/modules/Definitions.js&#45;&gt;src/core/index.js -->
<g id="edge11" class="edge"><title>src/modules/Definitions.js&#45;&gt;src/core/index.js</title>
<path fill="none" stroke="#757575" d="M717.451,-120.941C724.644,-118.395 731.632,-115.289 738,-111.5 758.84,-99.1002 752.144,-81.0053 774,-70.5 973.636,25.4572 1248.74,-14.5242 1367.96,-38.8751"/>
<polygon fill="#757575" stroke="#757575" points="1367.47,-42.3497 1377.98,-40.9607 1368.9,-35.4966 1367.47,-42.3497"/>
</g>
<!-- src/modules/attachment/Definitions.js -->
<g id="node15" class="node"><title>src/modules/attachment/Definitions.js</title>
<path fill="none" stroke="#cfffac" d="M1026.83,-226C1026.83,-226 790.167,-226 790.167,-226 786.333,-226 782.5,-222.167 782.5,-218.333 782.5,-218.333 782.5,-210.667 782.5,-210.667 782.5,-206.833 786.333,-203 790.167,-203 790.167,-203 1026.83,-203 1026.83,-203 1030.67,-203 1034.5,-206.833 1034.5,-210.667 1034.5,-210.667 1034.5,-218.333 1034.5,-218.333 1034.5,-222.167 1030.67,-226 1026.83,-226"/>
<text text-anchor="middle" x="908.5" y="-210.8" font-family="Arial" font-size="14.00" fill="#cfffac">src/modules/attachment/Definitions.js</text>
</g>
<!-- src/modules/Definitions.js&#45;&gt;src/modules/attachment/Definitions.js -->
<g id="edge12" class="edge"><title>src/modules/Definitions.js&#45;&gt;src/modules/attachment/Definitions.js</title>
<path fill="none" stroke="#757575" d="M719.832,-144.073C726.182,-146.39 732.335,-149.169 738,-152.5 758.903,-164.792 752.755,-181.807 774,-193.5 777.815,-195.6 781.779,-197.506 785.85,-199.235"/>
<polygon fill="#757575" stroke="#757575" points="784.934,-202.632 795.524,-202.955 787.447,-196.099 784.934,-202.632"/>
</g>
<!-- src/modules/authentication/Definitions.js -->
<g id="node16" class="node"><title>src/modules/authentication/Definitions.js</title>
<path fill="none" stroke="#c6c5fe" d="M1035.33,-103C1035.33,-103 781.667,-103 781.667,-103 777.833,-103 774,-99.1667 774,-95.3333 774,-95.3333 774,-87.6667 774,-87.6667 774,-83.8333 777.833,-80 781.667,-80 781.667,-80 1035.33,-80 1035.33,-80 1039.17,-80 1043,-83.8333 1043,-87.6667 1043,-87.6667 1043,-95.3333 1043,-95.3333 1043,-99.1667 1039.17,-103 1035.33,-103"/>
<text text-anchor="middle" x="908.5" y="-87.8" font-family="Arial" font-size="14.00" fill="#c6c5fe">src/modules/authentication/Definitions.js</text>
</g>
<!-- src/modules/Definitions.js&#45;&gt;src/modules/authentication/Definitions.js -->
<g id="edge13" class="edge"><title>src/modules/Definitions.js&#45;&gt;src/modules/authentication/Definitions.js</title>
<path fill="none" stroke="#757575" d="M714.83,-120.997C733.99,-117.865 754.794,-114.508 774,-111.5 788.72,-109.195 804.362,-106.801 819.56,-104.505"/>
<polygon fill="#757575" stroke="#757575" points="820.102,-107.963 829.469,-103.012 819.059,-101.041 820.102,-107.963"/>
</g>
<!-- src/modules/product/Definitions.js -->
<g id="node17" class="node"><title>src/modules/product/Definitions.js</title>
<path fill="none" stroke="#c6c5fe" d="M1016.33,-185C1016.33,-185 800.667,-185 800.667,-185 796.833,-185 793,-181.167 793,-177.333 793,-177.333 793,-169.667 793,-169.667 793,-165.833 796.833,-162 800.667,-162 800.667,-162 1016.33,-162 1016.33,-162 1020.17,-162 1024,-165.833 1024,-169.667 1024,-169.667 1024,-177.333 1024,-177.333 1024,-181.167 1020.17,-185 1016.33,-185"/>
<text text-anchor="middle" x="908.5" y="-169.8" font-family="Arial" font-size="14.00" fill="#c6c5fe">src/modules/product/Definitions.js</text>
</g>
<!-- src/modules/Definitions.js&#45;&gt;src/modules/product/Definitions.js -->
<g id="edge14" class="edge"><title>src/modules/Definitions.js&#45;&gt;src/modules/product/Definitions.js</title>
<path fill="none" stroke="#757575" d="M719.179,-144.03C751.687,-149.117 790.061,-155.122 823.659,-160.38"/>
<polygon fill="#757575" stroke="#757575" points="823.5,-163.897 833.921,-161.986 824.582,-156.982 823.5,-163.897"/>
</g>
<!-- src/modules/user/Definitions.js -->
<g id="node18" class="node"><title>src/modules/user/Definitions.js</title>
<path fill="none" stroke="#c6c5fe" d="M1006.33,-144C1006.33,-144 810.667,-144 810.667,-144 806.833,-144 803,-140.167 803,-136.333 803,-136.333 803,-128.667 803,-128.667 803,-124.833 806.833,-121 810.667,-121 810.667,-121 1006.33,-121 1006.33,-121 1010.17,-121 1014,-124.833 1014,-128.667 1014,-128.667 1014,-136.333 1014,-136.333 1014,-140.167 1010.17,-144 1006.33,-144"/>
<text text-anchor="middle" x="908.5" y="-128.8" font-family="Arial" font-size="14.00" fill="#c6c5fe">src/modules/user/Definitions.js</text>
</g>
<!-- src/modules/Definitions.js&#45;&gt;src/modules/user/Definitions.js -->
<g id="edge15" class="edge"><title>src/modules/Definitions.js&#45;&gt;src/modules/user/Definitions.js</title>
<path fill="none" stroke="#757575" d="M734.201,-132.5C752.911,-132.5 772.91,-132.5 792.431,-132.5"/>
<polygon fill="#757575" stroke="#757575" points="792.586,-136 802.586,-132.5 792.586,-129 792.586,-136"/>
</g>
<!-- src/modules/authentication/Definitions.js&#45;&gt;config.js -->
<g id="edge16" class="edge"><title>src/modules/authentication/Definitions.js&#45;&gt;config.js</title>
<path fill="none" stroke="#757575" d="M1043.13,-92.7154C1126.47,-94.7369 1235.79,-99.685 1332,-111.5 1427.93,-123.281 1538.56,-148.126 1598.44,-162.533"/>
<polygon fill="#757575" stroke="#757575" points="1597.77,-165.971 1608.31,-164.924 1599.42,-159.168 1597.77,-165.971"/>
</g>
<!-- src/modules/authentication/Definitions.js&#45;&gt;src/core/index.js -->
<g id="edge17" class="edge"><title>src/modules/authentication/Definitions.js&#45;&gt;src/core/index.js</title>
<path fill="none" stroke="#757575" d="M1043.2,-81.2212C1055.3,-80.298 1067.38,-79.38 1079,-78.5 1175.74,-71.1767 1287.61,-62.8426 1357.83,-57.6273"/>
<polygon fill="#757575" stroke="#757575" points="1358.17,-61.1118 1367.89,-56.8809 1357.65,-54.131 1358.17,-61.1118"/>
</g>
<!-- src/modules/user/UserModel.js -->
<g id="node19" class="node"><title>src/modules/user/UserModel.js</title>
<path fill="none" stroke="#c6c5fe" d="M1304.33,-144C1304.33,-144 1106.67,-144 1106.67,-144 1102.83,-144 1099,-140.167 1099,-136.333 1099,-136.333 1099,-128.667 1099,-128.667 1099,-124.833 1102.83,-121 1106.67,-121 1106.67,-121 1304.33,-121 1304.33,-121 1308.17,-121 1312,-124.833 1312,-128.667 1312,-128.667 1312,-136.333 1312,-136.333 1312,-140.167 1308.17,-144 1304.33,-144"/>
<text text-anchor="middle" x="1205.5" y="-128.8" font-family="Arial" font-size="14.00" fill="#c6c5fe">src/modules/user/UserModel.js</text>
</g>
<!-- src/modules/authentication/Definitions.js&#45;&gt;src/modules/user/UserModel.js -->
<g id="edge18" class="edge"><title>src/modules/authentication/Definitions.js&#45;&gt;src/modules/user/UserModel.js</title>
<path fill="none" stroke="#757575" d="M992.459,-103.03C1029.53,-108.183 1073.39,-114.278 1111.56,-119.583"/>
<polygon fill="#757575" stroke="#757575" points="1111.27,-123.076 1121.65,-120.986 1112.23,-116.142 1111.27,-123.076"/>
</g>
<!-- src/modules/product/Definitions.js&#45;&gt;src/core/Storage.js -->
<g id="edge19" class="edge"><title>src/modules/product/Definitions.js&#45;&gt;src/core/Storage.js</title>
<path fill="none" stroke="#757575" d="M992.459,-185.03C1034.49,-190.872 1085.24,-197.925 1126.55,-203.666"/>
<polygon fill="#757575" stroke="#757575" points="1126.18,-207.148 1136.57,-205.058 1127.14,-200.215 1126.18,-207.148"/>
</g>
<!-- src/modules/product/ProductModel.js -->
<g id="node20" class="node"><title>src/modules/product/ProductModel.js</title>
<path fill="none" stroke="#c6c5fe" d="M1324.33,-185C1324.33,-185 1086.67,-185 1086.67,-185 1082.83,-185 1079,-181.167 1079,-177.333 1079,-177.333 1079,-169.667 1079,-169.667 1079,-165.833 1082.83,-162 1086.67,-162 1086.67,-162 1324.33,-162 1324.33,-162 1328.17,-162 1332,-165.833 1332,-169.667 1332,-169.667 1332,-177.333 1332,-177.333 1332,-181.167 1328.17,-185 1324.33,-185"/>
<text text-anchor="middle" x="1205.5" y="-169.8" font-family="Arial" font-size="14.00" fill="#c6c5fe">src/modules/product/ProductModel.js</text>
</g>
<!-- src/modules/product/Definitions.js&#45;&gt;src/modules/product/ProductModel.js -->
<g id="edge20" class="edge"><title>src/modules/product/Definitions.js&#45;&gt;src/modules/product/ProductModel.js</title>
<path fill="none" stroke="#757575" d="M1024.4,-173.5C1038.86,-173.5 1053.76,-173.5 1068.5,-173.5"/>
<polygon fill="#757575" stroke="#757575" points="1068.68,-177 1078.68,-173.5 1068.68,-170 1068.68,-177"/>
</g>
<!-- src/modules/user/Definitions.js&#45;&gt;src/modules/user/UserModel.js -->
<g id="edge23" class="edge"><title>src/modules/user/Definitions.js&#45;&gt;src/modules/user/UserModel.js</title>
<path fill="none" stroke="#757575" d="M1014.34,-132.5C1038.35,-132.5 1064.02,-132.5 1088.48,-132.5"/>
<polygon fill="#757575" stroke="#757575" points="1088.51,-136 1098.51,-132.5 1088.51,-129 1088.51,-136"/>
</g>
<!-- src/modules/user/UserModel.js&#45;&gt;src/database.js -->
<g id="edge25" class="edge"><title>src/modules/user/UserModel.js&#45;&gt;src/database.js</title>
<path fill="none" stroke="#757575" d="M1283.62,-144.048C1299.64,-146.655 1316.39,-149.534 1332,-152.5 1343.42,-154.671 1355.57,-157.192 1367.23,-159.719"/>
<polygon fill="#757575" stroke="#757575" points="1366.8,-163.208 1377.32,-161.933 1368.3,-156.371 1366.8,-163.208"/>
</g>
<!-- src/modules/user/UserModel.js&#45;&gt;src/core/index.js -->
<g id="edge24" class="edge"><title>src/modules/user/UserModel.js&#45;&gt;src/core/index.js</title>
<path fill="none" stroke="#757575" d="M1238.56,-120.867C1277.46,-106.756 1343.1,-82.9395 1385.74,-67.4711"/>
<polygon fill="#757575" stroke="#757575" points="1387.05,-70.7177 1395.26,-64.0169 1384.66,-64.1374 1387.05,-70.7177"/>
</g>
<!-- src/modules/product/ProductModel.js&#45;&gt;src/database.js -->
<g id="edge22" class="edge"><title>src/modules/product/ProductModel.js&#45;&gt;src/database.js</title>
<path fill="none" stroke="#757575" d="M1332.21,-173.5C1342.12,-173.5 1351.85,-173.5 1361.09,-173.5"/>
<polygon fill="#757575" stroke="#757575" points="1361.3,-177 1371.3,-173.5 1361.3,-170 1361.3,-177"/>
</g>
<!-- src/modules/product/ProductModel.js&#45;&gt;src/core/index.js -->
<g id="edge21" class="edge"><title>src/modules/product/ProductModel.js&#45;&gt;src/core/index.js</title>
<path fill="none" stroke="#757575" d="M1309.69,-161.897C1317.45,-159.329 1324.98,-156.232 1332,-152.5 1367.84,-133.455 1397.87,-95.7905 1414.07,-72.5124"/>
<polygon fill="#757575" stroke="#757575" points="1417.07,-74.3246 1419.77,-64.0799 1411.27,-70.4039 1417.07,-74.3246"/>
</g>
<!-- src/modules/product/__tests__/ProductDefinitions.test.js -->
<g id="node21" class="node"><title>src/modules/product/__tests__/ProductDefinitions.test.js</title>
<path fill="none" stroke="#cfffac" d="M367.333,-348C367.333,-348 7.66667,-348 7.66667,-348 3.83333,-348 0,-344.167 0,-340.333 0,-340.333 0,-332.667 0,-332.667 0,-328.833 3.83333,-325 7.66667,-325 7.66667,-325 367.333,-325 367.333,-325 371.167,-325 375,-328.833 375,-332.667 375,-332.667 375,-340.333 375,-340.333 375,-344.167 371.167,-348 367.333,-348"/>
<text text-anchor="middle" x="187.5" y="-332.8" font-family="Arial" font-size="14.00" fill="#cfffac">src/modules/product/__tests__/ProductDefinitions.test.js</text>
</g>
<!-- tests/mongo&#45;environment.js -->
<g id="node24" class="node"><title>tests/mongo&#45;environment.js</title>
<path fill="none" stroke="#cfffac" d="M275.333,-389C275.333,-389 99.6667,-389 99.6667,-389 95.8333,-389 92,-385.167 92,-381.333 92,-381.333 92,-373.667 92,-373.667 92,-369.833 95.8333,-366 99.6667,-366 99.6667,-366 275.333,-366 275.333,-366 279.167,-366 283,-369.833 283,-373.667 283,-373.667 283,-381.333 283,-381.333 283,-385.167 279.167,-389 275.333,-389"/>
<text text-anchor="middle" x="187.5" y="-373.8" font-family="Arial" font-size="14.00" fill="#cfffac">tests/mongo&#45;environment.js</text>
</g>
<!-- tests/setup.js -->
<g id="node25" class="node"><title>tests/setup.js</title>
<path fill="none" stroke="#cfffac" d="M230.333,-430C230.333,-430 144.667,-430 144.667,-430 140.833,-430 137,-426.167 137,-422.333 137,-422.333 137,-414.667 137,-414.667 137,-410.833 140.833,-407 144.667,-407 144.667,-407 230.333,-407 230.333,-407 234.167,-407 238,-410.833 238,-414.667 238,-414.667 238,-422.333 238,-422.333 238,-426.167 234.167,-430 230.333,-430"/>
<text text-anchor="middle" x="187.5" y="-414.8" font-family="Arial" font-size="14.00" fill="#cfffac">tests/setup.js</text>
</g>
<!-- tests/teardown.js -->
<g id="node26" class="node"><title>tests/teardown.js</title>
<path fill="none" stroke="#cfffac" d="M241.333,-471C241.333,-471 133.667,-471 133.667,-471 129.833,-471 126,-467.167 126,-463.333 126,-463.333 126,-455.667 126,-455.667 126,-451.833 129.833,-448 133.667,-448 133.667,-448 241.333,-448 241.333,-448 245.167,-448 249,-451.833 249,-455.667 249,-455.667 249,-463.333 249,-463.333 249,-467.167 245.167,-471 241.333,-471"/>
<text text-anchor="middle" x="187.5" y="-455.8" font-family="Arial" font-size="14.00" fill="#cfffac">tests/teardown.js</text>
</g>
</g>
</svg>
